<?xml version="1.0" encoding="UTF-8"?>
<!DOCTYPE svg PUBLIC "-//W3C//DTD SVG 1.1//EN" "http://www.w3.org/Graphics/SVG/1.1/DTD/svg11.dtd">
<!-- Creator: CorelDRAW -->
<svg xmlns="http://www.w3.org/2000/svg" xml:space="preserve" width="2048px" height="2048px" style="shape-rendering:geometricPrecision; text-rendering:geometricPrecision; image-rendering:optimizeQuality; fill-rule:evenodd; clip-rule:evenodd"
viewBox="0 0 2048 2048"
 xmlns:xlink="http://www.w3.org/1999/xlink">
 <defs>
  <style type="text/css">
   <![CDATA[
    .fil0 {fill:none}
    .fil1 {fill:#ef6566;fill-rule:nonzero}
    .fil2 {fill:#ef6566;fill-rule:nonzero}
   ]]>
  </style>
 </defs>
 <g id="Layer_x0020_1">
  <metadata id="CorelCorpID_0Corel-Layer"/>
  <g id="_526171512">
   <rect id="_526156368" class="fil0" width="2048" height="2048"/>
   <rect id="_526142568" class="fil0" x="255.999" y="255.999" width="1536" height="1536"/>
  </g>
  <path class="fil1" d="M362.735 280.662l1404.77 1404.77 0.00236221 -0.00236221c11.3327,11.3327 11.3327,29.7071 0,41.0398l-0.164173 0.16063 -40.8756 40.8744 0.00236221 0.00236221c-11.3327,11.3327 -29.7071,11.3327 -41.0398,0l-0.16063 -0.164173 -1404.77 -1404.77 -0.00236221 0.00236221c-11.3327,-11.3327 -11.3327,-29.7071 0,-41.0398l0.164173 -0.16063 40.8756 -40.8744 -0.00236221 -0.00236221c11.3327,-11.3327 29.7083,-11.3327 41.0398,0l0.16063 0.164173z"/>
  <path class="fil2" d="M1685.27 280.662l-1404.77 1404.77 -0.00236221 -0.00236221c-11.3327,11.3327 -11.3327,29.7071 0,41.0398l0.164173 0.16063 40.8756 40.8744 -0.00236221 0.00236221c11.3327,11.3327 29.7071,11.3327 41.0398,0l0.16063 -0.164173 1404.77 -1404.77 0.00236221 0.00236221c11.3327,-11.3327 11.3327,-29.7071 0,-41.0398l-0.164173 -0.16063 -40.8756 -40.8744 0.00236221 -0.00236221c-11.3327,-11.3327 -29.7083,-11.3327 -41.0398,0l-0.16063 0.164173z"/>
 </g>
</svg>
