<svg xmlns="http://www.w3.org/2000/svg" viewBox="0 0 32 32"><defs><style>.cls-1{fill:#ef6566;}</style></defs><g id="pencil"><path class="cls-1" d="M23.89,3.72l-2-1.19a3.84,3.84,0,0,0-5.25,1.34l-10,16.85a2.91,2.91,0,0,0-.41,1.66L6.59,29a1,1,0,0,0,.49.81,1,1,0,0,0,.51.14,1,1,0,0,0,.43-.1L14,27h0a2.92,2.92,0,0,0,1.26-1.15L24.63,10h0l.6-1A3.84,3.84,0,0,0,23.89,3.72Zm-4,.28a1.88,1.88,0,0,1,.93.25l2,1.19A1.84,1.84,0,0,1,23.51,8l-.09.15L18.26,5l.09-.15A1.84,1.84,0,0,1,19.93,4ZM14.56,23.05l-.33-.52a1,1,0,0,0-.77-.45L11.73,22l-.94-1.46A1,1,0,0,0,10,20L9.4,20,17.24,6.76,22.4,9.82Zm-1.43,2.12L8.51,27.39l-.27-5.12a.83.83,0,0,1,0-.35L9.38,22l.94,1.46a1,1,0,0,0,.77.45l1.73.12.59.92A1.18,1.18,0,0,1,13.13,25.17Z"/></g></svg>