<?xml version="1.0" encoding="utf-8"?>
<!-- Generator: Adobe Illustrator 22.0.1, SVG Export Plug-In . SVG Version: 6.00 Build 0)  -->
<svg version="1.1" xmlns="http://www.w3.org/2000/svg" xmlns:xlink="http://www.w3.org/1999/xlink" x="0px" y="0px"
	 viewBox="0 0 512 512" style="enable-background:new 0 0 512 512;" xml:space="preserve">
<style type="text/css">
	.st0{fill:#A5CDBC;}
	.st1{fill:#453D80;}
	.st2{fill:#E9D178;}
	.st3{fill:#918BC6;}
	.st4{fill:#E2A2AB;}
	.st5{fill:#EECAC4;}
	.st6{fill:#7CB59C;}
	.st7{fill:#BDB9DC;}
	.st8{fill:#E2A66F;}
	.st9{fill:#DAAB5C;}
	.st10{fill:#74A0FB;}
	.st11{fill:#EDBB87;}
	.st12{fill:#EFCBC5;}
	.st13{fill:#CB9E56;}
	.st14{fill:#F8EF6C;}
	.st15{fill:#BBD9CC;}
	.st16{fill:#673528;}
	.st17{fill:#532B22;}
	.st18{fill:#7A3F2C;}
	.st19{fill:#B9865D;}
	.st20{fill:#A1ACA5;}
	.st21{fill:#B7C7BE;}
	.st22{fill:#D3E8DF;}
	.st23{fill:#AA583E;}
	.st24{fill:#944937;}
	.st25{fill:#E9A497;}
	.st26{fill:#C15E48;}
	.st27{fill:#D29289;}
	.st28{fill:#E4CAC8;}
	.st29{fill:#BFE6D5;}
	.st30{fill:#A2D6BD;}
	.st31{fill:#D5EBE2;}
	.st32{fill:#EBF3EF;}
	.st33{fill:#5F55AB;}
	.st34{fill:#2A284C;}
	.st35{fill:#D69C6C;}
	.st36{fill:#CE9567;}
	.st37{fill:#EAE7D6;}
	.st38{fill:#E1C978;}
	.st39{fill:#544C4A;}
	.st40{fill:#ACABB4;}
	.st41{fill:#BC8B63;}
	.st42{fill:#B9D7CA;}
	.st43{fill:#C9B26B;}
	.st44{fill:#817EB1;}
	.st45{fill:#3C3B4D;}
	.st46{fill:#2B2A36;}
	.st47{fill:#CC9567;}
	.st48{fill:#AF7C59;}
	.st49{fill:#A27855;}
	.st50{fill:#B4825B;}
	.st51{fill:#806045;}
	.st52{fill:#CB8694;}
	.st53{fill:#AE6E7E;}
	.st54{fill:#DDC3CB;}
	.st55{fill:#DEE8E3;}
	.st56{fill:#9B3A52;}
	.st57{fill:#C43C50;}
	.st58{fill:#538872;}
	.st59{fill:#67A78A;}
	.st60{fill:none;stroke:#E2A66F;stroke-width:6;stroke-linecap:round;stroke-miterlimit:10;}
	.st61{fill:none;stroke:#B9865D;stroke-width:6;stroke-linecap:round;stroke-miterlimit:10;}
	.st62{fill:#C4D6CD;}
	.st63{fill:#BCE9F2;}
	.st64{fill:#E2B9C1;}
	.st65{fill:#D19AA6;}
	.st66{fill:#D8ACB7;}
	.st67{fill:#C4929F;}
	.st68{fill:#CA6F63;}
	.st69{fill:#E07B67;}
	.st70{fill:#DF9589;}
	.st71{fill:#BE6761;}
	.st72{fill:#9B7380;}
	.st73{fill:#C48D99;}
	.st74{fill:#A97A86;}
	.st75{fill:#886672;}
	.st76{fill:#EEE8D6;}
	.st77{fill:#DCD7C8;}
	.st78{fill:#DB95A3;}
	.st79{fill:#E3CCD3;}
	.st80{fill:#CFBEC3;}
	.st81{fill:#EDE5E7;}
	.st82{fill:#39356B;}
	.st83{fill:#D8E8E1;}
	.st84{fill:none;stroke:#E2A66F;stroke-width:10;stroke-linecap:round;stroke-miterlimit:10;}
	.st85{fill:#C0A2A1;}
	.st86{fill:#ABAAD4;}
	.st87{fill:#514C96;}
	.st88{fill:#C1C1DF;}
	.st89{fill:#807CAE;}
	.st90{fill:#40715B;}
	.st91{fill:#DB9E6B;}
	.st92{fill:#E3C8B0;}
	.st93{fill:#653528;}
	.st94{fill:#D0C5C2;}
	.st95{fill:#EBE4E2;}
	.st96{fill:#F2F0DE;}
	.st97{fill:#668C7B;}
	.st98{fill:#65937D;}
	.st99{fill:#AD617E;}
	.st100{fill:#C97793;}
	.st101{fill:#E28DA3;}
	.st102{fill:#F9A2B3;}
	.st103{fill:#F2D7DC;}
	.st104{fill:#963346;}
	.st105{fill:#AA394E;}
	.st106{fill:#C8C8D5;}
	.st107{fill:#D5D4E8;}
	.st108{fill:#A2A1AF;}
	.st109{fill:#BABACB;}
	.st110{fill:#CCE0D7;}
	.st111{fill:#E0A0A9;}
	.st112{fill:#943346;}
	.st113{fill:#8F89C4;}
	.st114{fill:#BBB7DA;}
	.st115{fill:#C23C50;}
	.st116{fill:#A8394E;}
	.st117{fill:#EBB985;}
	.st118{fill:#DFA36F;}
	.st119{fill:#E1D3CF;}
	.st120{fill:#A59B98;}
	.st121{fill:#3E221C;}
	.st122{fill:none;stroke:#B7845D;stroke-width:8;stroke-linecap:round;stroke-miterlimit:10;}
	.st123{fill:none;stroke:#743A2F;stroke-width:7;stroke-linecap:round;stroke-miterlimit:10;}
	.st124{fill:#EEEBDA;}
	.st125{fill:#E5CD78;}
	.st126{fill:#69342A;}
	.st127{fill:#8C8482;}
	.st128{fill:#BA9D6F;}
	.st129{fill:#EFEFEF;}
	.st130{fill:none;stroke:#E2A66F;stroke-width:8;stroke-linecap:round;stroke-miterlimit:10;}
	.st131{fill:#6A9982;}
	.st132{fill:#638DCA;}
	.st133{fill:#6B96E1;}
	.st134{fill:#90B6F3;}
	.st135{fill:#6796EB;}
	.st136{fill:#C8A7A5;}
	.st137{fill:#817EAE;}
	.st138{fill:#DF9387;}
	.st139{fill:#B99151;}
	.st140{fill:#EFE8D0;}
	.st141{fill:#CC8D84;}
	.st142{fill:#304B78;}
	.st143{fill:#283F65;}
	.st144{fill:#365780;}
	.st145{fill:#CC94A0;}
	.st146{fill:#C0C6CC;}
	.st147{fill:#EBD5DA;}
	.st148{fill:#668ED4;}
	.st149{fill:#D4C3C7;}
	.st150{fill:#ACB0B4;}
	.st151{fill:#B6BDC3;}
	.st152{fill:#CE9668;}
	.st153{fill:#9C9FA0;}
	.st154{fill:#893248;}
	.st155{fill:#E7EBF0;}
	.st156{fill:#673628;}
	.st157{fill:#ECE9D8;}
	.st158{fill:#E3CB78;}
	.st159{fill:#6D9E86;}
	.st160{fill:#BE9573;}
	.st161{fill:#D1A37A;}
	.st162{fill:#D5C6B8;}
	.st163{fill:#E7D4C3;}
	.st164{fill:#B4A69A;}
	.st165{fill:#C79064;}
	.st166{fill:#BEC4C9;}
	.st167{fill:#AAADB2;}
	.st168{fill:#B4BBC1;}
	.st169{fill:#CC9468;}
	.st170{fill:#9A9D9E;}
	.st171{fill:#873248;}
	.st172{fill:#E5E9EE;}
	.st173{fill:#DBBBB8;}
	.st174{fill:#D3CAC3;}
	.st175{fill:#E4DAD1;}
	.st176{fill:#979492;}
	.st177{fill:#BAB5B0;}
	.st178{fill:#D1996C;}
	.st179{fill:#58504B;}
	.st180{fill:#E3DBDB;}
	.st181{fill:#855151;}
	.st182{fill:#BD8F9B;}
	.st183{fill:#CFC45A;}
	.st184{fill:#599178;}
	.st185{fill:#C3EDDE;}
	.st186{fill:#A2D4BF;}
	.st187{fill:#CA6F62;}
	.st188{fill:#EBDDE0;}
	.st189{fill:#D7CCCF;}
	.st190{fill:#CBC8C9;}
	.st191{fill:#A39EA0;}
	.st192{fill:#BAB2B4;}
	.st193{fill:#AA818B;}
	.st194{fill:#BF8D97;}
	.st195{fill:#C8939E;}
	.st196{fill:#E4C0C7;}
	.st197{fill:#A5BAD3;}
	.st198{fill:#B3CAEC;}
	.st199{fill:#6C95DC;}
	.st200{fill:#6E9AE6;}
	.st201{fill:#D4A67D;}
	.st202{fill:#D3D1C2;}
	.st203{fill:#827FB3;}
	.st204{fill:#646386;}
	.st205{fill:#6F6D97;}
	.st206{fill:#5A597A;}
	.st207{fill:#B6B4DA;}
	.st208{fill:#D0CEC0;}
	.st209{fill:#DAB9B6;}
	.st210{fill:#7E7AAB;}
	.st211{fill:#DBC5C5;}
	.st212{fill:#E0C18D;}
	.st213{fill:#7D9DC8;}
	.st214{fill:#9EBEEF;}
	.st215{fill:#C3D6F0;}
	.st216{fill:#B79872;}
	.st217{fill:#A68962;}
	.st218{fill:#70665E;}
	.st219{fill:#8E9791;}
	.st220{fill:#535399;}
	.st221{fill:#E0EBE4;}
	.st222{fill:#C08B96;}
	.st223{fill:#DDEDE7;}
	.st224{fill:#A68048;}
	.st225{fill:#474085;}
	.st226{fill:#7C7C9C;}
	.st227{fill:#9E9DCD;}
	.st228{fill:#4D291F;}
	.st229{fill:#854735;}
	.st230{fill:#9C533F;}
	.st231{fill:#D15F2E;}
	.st232{fill:#C26862;}
	.st233{fill:#464648;}
	.st234{fill:#3A3A3C;}
	.st235{fill:#5E5E63;}
	.st236{fill:#4F4F55;}
	.st237{fill:#7F7F86;}
	.st238{fill:#686871;}
	.st239{fill:#548A72;}
	.st240{fill:#67A98C;}
	.st241{fill:#CC9366;}
	.st242{fill:#CEB76E;}
	.st243{fill:#E1D4AB;}
	.st244{fill:#A87958;}
	.st245{fill:#92B5A5;}
	.st246{fill:#B68B4F;}
	.st247{fill:#D5B788;}
	.st248{fill:#CDE0D8;}
	.st249{fill:#6F6D95;}
	.st250{fill:#DAE1E6;}
	.st251{fill:#E0B7BF;}
	.st252{fill:#C2909D;}
	.st253{fill:#D6AAB5;}
	.st254{fill:#807FB1;}
	.st255{fill:#646384;}
	.st256{fill:#B4B2D8;}
	.st257{fill:#E8E5D4;}
	.st258{fill:#DFC778;}
	.st259{fill:#CF98A4;}
	.st260{fill:#99737F;}
	.st261{fill:none;stroke:#538872;stroke-width:10;stroke-linecap:round;stroke-miterlimit:10;}
	.st262{fill:#87485A;}
	.st263{fill:#A25365;}
	.st264{fill:#A4BDB1;}
	.st265{fill:#C7A23A;}
	.st266{fill:#E6BE3F;}
	.st267{fill:#A77D5A;}
	.st268{fill:#DDD9D5;}
	.st269{fill:#9F7654;}
	.st270{fill:#8B6A4D;}
	.st271{fill:#CACCCB;}
	.st272{fill:#C7C7D3;}
	.st273{fill:#D7D6E8;}
	.st274{fill:#E9DBDE;}
	.st275{fill:#D5CACD;}
	.st276{fill:#C9C6C7;}
	.st277{fill:#A19C9E;}
	.st278{fill:#B8AFB2;}
	.st279{fill:#6C9C84;}
	.st280{fill:#8481B6;}
	.st281{fill:#82653B;}
	.st282{fill:#D1CFC0;}
	.st283{fill:#C6919C;}
	.st284{fill:#A88089;}
	.st285{fill:#CECCBE;}
	.st286{fill:#739EF9;}
	.st287{fill:#A3B8D1;}
	.st288{fill:#B1C8EA;}
	.st289{fill:#6B93DA;}
	.st290{fill:#6D98E4;}
	.st291{fill:#BCC2C7;}
	.st292{fill:#A8ABB0;}
	.st293{fill:#B2B9BF;}
	.st294{fill:#CA9268;}
	.st295{fill:#DDA16E;}
	.st296{fill:#989B9C;}
	.st297{fill:#C03C50;}
	.st298{fill:#853248;}
	.st299{fill:#E3E7EC;}
	.st300{fill:#AC844B;}
	.st301{fill:#C6BB5A;}
	.st302{fill:#94B5A6;}
	.st303{fill:#C7E0D5;}
	.st304{fill:#6892DC;}
	.st305{fill:#B7D5C8;}
	.st306{fill:#A2BBAF;}
	.st307{fill:#528672;}
	.st308{fill:#67A588;}
	.st309{fill:#C5A03A;}
	.st310{fill:#E4BC3F;}
	.st311{fill:#DCE6E1;}
	.st312{fill:#993A52;}
	.st313{fill:#983347;}
</style>
<g id="BULINE">
	<g>
		<g>
			<path id="XMLID_2913_" class="st7" d="M512,256c0,3.3-0.1,6.5-0.2,9.8c-0.3,7.8-0.9,15.5-1.9,23.2c-1,7.9-2.4,15.7-4.1,23.3
				c-1.1,4.8-2.3,9.5-3.6,14.2c-1.1,4-2.4,7.9-3.7,11.8c-1,2.8-2,5.6-3,8.3c-0.4,1.2-0.9,2.3-1.3,3.5c-0.7,1.8-1.4,3.5-2.2,5.3
				c-0.5,1.1-0.9,2.2-1.4,3.3c-3.3,7.6-7,14.9-11,22.1c-2.3,4.1-4.7,8.1-7.2,12c-0.9,1.5-1.9,3-2.9,4.4c-3.5,5.3-7.3,10.5-11.2,15.6
				c-1.2,1.5-2.4,3.1-3.7,4.6c-2.5,3.1-5.1,6.1-7.7,9c-2.2,2.4-4.4,4.8-6.7,7.2c-1.4,1.5-2.8,2.9-4.2,4.3c-1.7,1.7-3.4,3.3-5.1,4.9
				c-0.1,0.1-0.2,0.2-0.3,0.3c-1.2,1.2-2.5,2.3-3.8,3.5c-1.8,1.6-3.5,3.1-5.4,4.7c-1.5,1.2-2.9,2.5-4.4,3.7c-1,0.8-2.1,1.7-3.1,2.5
				c-0.8,0.6-1.5,1.2-2.3,1.8c-3.3,2.5-6.7,5-10.1,7.4c-2.2,1.5-4.5,3-6.8,4.5c-3,2-6.1,3.8-9.2,5.7c-0.5,0.3-1,0.6-1.5,0.9
				c-0.2,0.1-0.4,0.2-0.5,0.3c-0.2,0.1-0.4,0.2-0.6,0.3c-1.4,0.8-2.8,1.6-4.2,2.4c-0.5,0.3-1.1,0.6-1.6,0.9
				c-1.1,0.6-2.1,1.1-3.2,1.7c-0.8,0.4-1.5,0.8-2.3,1.2c-0.1,0.1-0.3,0.1-0.4,0.2c-0.6,0.3-1.3,0.7-1.9,1c-1.6,0.8-3.1,1.5-4.7,2.3
				c-0.1,0-0.2,0.1-0.3,0.1c-1,0.5-2.1,1-3.1,1.4c-3.6,1.6-7.1,3.1-10.8,4.6c-0.2,0.1-0.4,0.2-0.6,0.2c-1.8,0.7-3.5,1.4-5.3,2
				c-2,0.7-4,1.5-6,2.1c-1.5,0.5-3.1,1-4.7,1.5c-0.8,0.3-1.6,0.5-2.5,0.8c-0.5,0.2-1,0.3-1.5,0.5c-4.7,1.4-9.5,2.7-14.3,3.8
				c-1.2,0.3-2.4,0.6-3.6,0.8h0c-0.7,0.2-1.4,0.3-2,0.4c-0.4,0.1-0.8,0.2-1.3,0.3c-4.1,0.9-8.2,1.6-12.3,2.3
				c-1.9,0.3-3.7,0.6-5.6,0.8c-2,0.3-4.1,0.5-6.1,0.8c-1.4,0.1-2.8,0.3-4.2,0.4c-1.4,0.1-2.9,0.3-4.3,0.4c-4.2,0.3-8.4,0.6-12.7,0.7
				c-0.3,0-0.6,0-0.9,0c-0.4,0-0.8,0-1.1,0c-0.3,0-0.6,0-0.9,0l-1.5,0c0,0,0,0,0,0c-0.6,0-1.3,0-1.9,0c-0.3,0-0.7,0-1,0h-0.3
				c-0.7,0-1.4,0-2.1,0c-0.7,0-1.5,0-2.2,0c-0.8,0-1.5,0-2.3,0c-0.4,0-0.8,0-1.1,0c-4.6-0.1-9.2-0.4-13.8-0.8
				c-0.9-0.1-1.8-0.1-2.7-0.2c-0.2,0-0.3,0-0.5,0c-2.9-0.3-5.9-0.6-8.8-1c-0.4,0-0.9-0.1-1.3-0.2c-6.6-0.9-13.2-2.1-19.7-3.5
				c-1.4-0.3-2.8-0.6-4.1-0.9c-3.3-0.8-6.6-1.6-9.9-2.5c-0.4-0.1-0.8-0.2-1.1-0.3c-1.3-0.4-2.6-0.7-3.9-1.1
				c-0.7-0.2-1.4-0.4-2.2-0.7c-1.4-0.4-2.7-0.9-4.1-1.3c-0.9-0.3-1.8-0.6-2.7-0.9c-1.2-0.4-2.5-0.9-3.7-1.3c0,0-0.1,0-0.1,0
				c-1.9-0.7-3.8-1.4-5.6-2.1c-0.2-0.1-0.3-0.1-0.5-0.2c-1.4-0.5-2.8-1.1-4.2-1.7c-5.6-2.3-11.1-4.8-16.5-7.5c0,0,0,0-0.1,0
				c-1.5-0.7-3-1.5-4.4-2.2c-1.3-0.7-2.6-1.4-3.9-2.1c-0.3-0.2-0.7-0.3-1-0.5c-0.7-0.4-1.3-0.7-2-1.1c-0.4-0.2-0.7-0.4-1-0.6
				c-4-2.3-8-4.6-11.8-7.1c-3.1-2-6.1-4-9-6c-2.4-1.6-4.7-3.3-7-5.1c-0.1-0.1-0.2-0.2-0.3-0.2c-1.3-1-2.6-2-3.9-3
				c-2.6-2-5.1-4-7.5-6.2c-2.2-1.9-4.4-3.8-6.6-5.8c-0.9-0.8-1.7-1.6-2.6-2.4c-0.1-0.1-0.2-0.2-0.3-0.3c-3.2-3-6.3-6.1-9.4-9.2
				c-2.3-2.3-4.5-4.8-6.7-7.2c-0.5-0.6-1.1-1.2-1.6-1.8c-7.5-8.5-14.4-17.5-20.7-27c-0.1-0.1-0.2-0.3-0.3-0.4c-1-1.5-1.9-3-2.9-4.4
				c-0.4-0.7-0.8-1.3-1.2-2c-2-3.3-4-6.6-5.9-10c-3.1-5.6-6.1-11.3-8.8-17.2c-0.8-1.6-1.5-3.3-2.2-4.9c-0.5-1.1-1-2.2-1.4-3.3
				c-0.1-0.2-0.2-0.4-0.2-0.6c-0.7-1.6-1.3-3.1-1.9-4.7c-0.5-1.2-0.9-2.3-1.4-3.5c-0.1-0.2-0.2-0.5-0.3-0.7c-0.4-1-0.7-2-1.1-3
				c-0.5-1.2-0.9-2.5-1.3-3.8c-1.4-4.2-2.8-8.4-4-12.6c-1.3-4.7-2.5-9.4-3.6-14.2c-1.7-7.7-3.1-15.4-4.1-23.3
				c-0.2-1.3-0.3-2.5-0.5-3.8c-0.7-6.4-1.2-12.8-1.5-19.4C0.1,262.5,0,259.3,0,256c0-1.8,0-3.6,0.1-5.4c0.1-4.9,0.3-9.8,0.7-14.7
				c1.7-21.9,6.1-43,13-63C27.6,132.5,51.3,96.7,82,68.2c0.7-0.6,1.3-1.2,2-1.8c5.8-5.2,11.8-10.2,18-14.9c2.4-1.8,4.8-3.6,7.3-5.3
				c2.5-1.8,5.1-3.5,7.7-5.2c4.9-3.2,9.9-6.2,15-9c1.3-0.7,2.7-1.5,4-2.2c11.7-6.2,24-11.6,36.7-16c1.1-0.4,2.2-0.8,3.3-1.1
				c1.7-0.6,3.3-1.1,5-1.6c1.5-0.5,3.1-0.9,4.6-1.4c5.1-1.5,10.3-2.8,15.6-3.9c4.9-1.1,9.8-2,14.8-2.8c9.4-1.5,19-2.4,28.7-2.9
				c0,0,0.1,0,0.1,0c1.6-0.1,3.2-0.1,4.8-0.2c0,0,0,0,0,0h0c0,0,0,0,0.1,0C251.9,0,253.9,0,256,0c2.1,0,4.2,0,6.4,0.1c0,0,0,0,0,0
				h0.1c1.1,0,2.1,0.1,3.2,0.1h0c6.4,0.2,12.8,0.7,19,1.4c1.1,0.1,2.2,0.2,3.3,0.4c7.4,0.9,14.8,2.2,22,3.7c4.4,0.9,8.7,2,13,3.2
				c1.1,0.3,2.3,0.6,3.4,0.9c12.9,3.7,25.4,8.3,37.4,13.9c4.2,1.9,8.3,4,12.3,6.1c1.3,0.7,2.6,1.4,4,2.1c5.8,3.2,11.5,6.7,17,10.3
				c1.5,1,3,2,4.5,3C406.8,49,412,52.9,417,57c3.3,2.7,6.6,5.5,9.8,8.3c1.8,1.6,3.5,3.2,5.2,4.8c29.9,28.3,53,63.8,66.5,103.6
				C507.2,199.5,512,227.2,512,256z"/>
		</g>
	</g>
</g>
<g id="ICON_1_">
	<g id="XMLID_2851_">
		<path id="XMLID_2912_" class="st42" d="M174.9,161.1c0.7-2,3.7-4.5,5-6.3c3.7-5.4,6.7-11.3,8.5-17.6c3-10.1,2.2-20.7-2.1-30.3
			c-3.8-8.7-11.1-14.8-15.2-23.1c-8.5-17-6-36.2,3.9-52.2c-0.6,0.9-3.7,2-4.7,2.6c-3.7,2.5-6.9,5.6-9.4,9.3
			c-9.5,13.8-7.1,31.6-1.7,46.4c3.9,10.8,12.5,18.7,16.2,29.8C179.9,133.1,179.4,147.7,174.9,161.1z"/>
		<path id="XMLID_2911_" class="st262" d="M418.5,414.3c0,8.3-1.8,14.7-5,20.1c-1.6,2.8-3.6,5.4-5.9,7.7
			c-6.7,6.7-16.1,10.9-26.3,10.9H136.8c-13.8,0-25.8-7.5-32.3-18.6c-3.2-5.5-5-11.8-5-20.1H418.5z"/>
		<path id="XMLID_2910_" class="st263" d="M413.5,434.4c-1.6,2.8-3.6,5.4-5.9,7.7c-6.7,6.7-16.1,10.9-26.3,10.9H136.8
			c-13.8,0-25.8-7.5-32.3-18.6H413.5z"/>
		<g id="XMLID_2906_">
			<path id="XMLID_2907_" class="st264" d="M433.7,352.9H339V181.5h94.7c33.2,0,60.3,27,60.3,60.3v50.8
				C494,325.8,467,352.9,433.7,352.9z M368,323.9h65.7c17.2,0,31.3-14,31.3-31.3v-50.8c0-17.2-14-31.3-31.3-31.3H368V323.9z"/>
		</g>
		<g id="XMLID_2895_">
			<path id="XMLID_2905_" class="st58" d="M409.8,125.1C399,169,364,198.2,331.7,190.2c-13.2-3.2-23.9-12.2-31.2-24.6
				c-10.6-18-14.1-43.4-7.7-69.4c10.5-42.5,73.8-63.7,77.9-65.1c0.1,0,0.2-0.1,0.2-0.1S420.6,81.2,409.8,125.1z"/>
			<path id="XMLID_2904_" class="st59" d="M395.9,108.9c-10.8,43.9-45.8,73.1-78.1,65.1c-6.4-1.6-12.2-4.5-17.3-8.4
				c-10.6-18-14.1-43.4-7.7-69.4c10.5-42.5,73.8-63.7,77.9-65.1C384.5,49.5,402.9,80.5,395.9,108.9z"/>
			<g id="XMLID_2902_">
				<path id="XMLID_2903_" class="st58" d="M335.2,190.9l4-16.4c0-0.1,0.1-0.3,0.1-0.4l8.6-35l2.1-8.4l6-24.3c0-0.1,0.1-0.2,0.1-0.3
					l15.2-61.9c0.5-1.9-0.7-3.9-2.6-4.3c-1.9-0.5-3.9,0.7-4.3,2.6l-13,52.9l-2.6,10.5l-7.3,29.6c0,0.1-0.1,0.2-0.1,0.3l-7.2,29.4
					l-2.2,9.1l-0.2,1l-3.4,14L335.2,190.9z"/>
			</g>
			<g id="XMLID_2900_">
				<path id="XMLID_2901_" class="st58" d="M351.7,108.9c-1-0.2-1.8-0.9-2.3-1.8l-21.3-40.6c-0.9-1.7-0.2-3.9,1.5-4.8
					c1.7-0.9,3.9-0.2,4.8,1.5l21.3,40.6c0.9,1.7,0.2,3.9-1.5,4.8C353.4,109,352.6,109.1,351.7,108.9z"/>
			</g>
			<g id="XMLID_2898_">
				<path id="XMLID_2899_" class="st58" d="M344.1,140c-1.1-0.3-2.1-1.1-2.5-2.2c-0.7-1.8,0.2-3.9,2.1-4.6l43.6-16.6
					c1.8-0.7,3.9,0.2,4.6,2.1c0.7,1.8-0.2,3.9-2.1,4.6l-43.6,16.6C345.5,140.1,344.8,140.1,344.1,140z"/>
			</g>
			<g id="XMLID_2896_">
				<path id="XMLID_2897_" class="st58" d="M335,177c-0.8-0.2-1.5-0.7-2-1.4l-37-51.3c-1.2-1.6-0.8-3.8,0.8-5c1.6-1.2,3.8-0.8,5,0.8
					l37,51.3c1.2,1.6,0.8,3.8-0.8,5C337,177,335.9,177.2,335,177z"/>
			</g>
		</g>
		<g id="XMLID_2884_">
			<path id="XMLID_2894_" class="st58" d="M313.7,114.3c9.8,31.7-1.1,63.2-24.4,70.5c-9.5,3-19.6,1.4-28.9-3.6
				c-13.5-7.3-25.3-21.9-31.1-40.6c-9.5-30.7,22.2-68,24.3-70.4c0.1-0.1,0.1-0.1,0.1-0.1S303.9,82.6,313.7,114.3z"/>
			<path id="XMLID_2893_" class="st59" d="M298.8,109.4c9.8,31.7-1.1,63.2-24.4,70.5c-4.6,1.4-9.3,1.8-14,1.2
				c-13.5-7.3-25.3-21.9-31.1-40.6c-9.5-30.7,22.2-68,24.3-70.4C269.2,76.4,292.4,88.9,298.8,109.4z"/>
			<g id="XMLID_2891_">
				<path id="XMLID_2892_" class="st58" d="M291.8,183.9l-3.7-11.8c0-0.1-0.1-0.2-0.1-0.3l-7.8-25.2l-1.9-6.1l-5.5-17.5
					c0-0.1-0.1-0.2-0.1-0.2l-13.9-44.6c-0.4-1.4-1.9-2.2-3.3-1.7s-2.2,1.9-1.7,3.3l11.9,38.1l2.4,7.6l6.6,21.4c0,0.1,0,0.1,0.1,0.2
					l6.6,21.2l2,6.6l0.2,0.7l3.1,10.1L291.8,183.9z"/>
			</g>
			<g id="XMLID_2889_">
				<path id="XMLID_2890_" class="st58" d="M271.1,126.1c-0.7,0.2-1.5,0.1-2.1-0.3l-28.7-17.5c-1.2-0.8-1.6-2.4-0.9-3.6
					c0.8-1.2,2.4-1.6,3.6-0.9l28.7,17.5c1.2,0.8,1.6,2.4,0.9,3.6C272.2,125.5,271.7,125.9,271.1,126.1z"/>
			</g>
			<g id="XMLID_2887_">
				<path id="XMLID_2888_" class="st58" d="M278.1,148.5c-0.8,0.2-1.7,0.1-2.4-0.4c-1.1-0.9-1.3-2.5-0.4-3.7l21.1-27
					c0.9-1.1,2.5-1.3,3.7-0.4c1.1,0.9,1.3,2.5,0.4,3.7l-21.1,27C279,148.1,278.6,148.4,278.1,148.5z"/>
			</g>
			<g id="XMLID_2885_">
				<path id="XMLID_2886_" class="st58" d="M286.4,175.2c-0.6,0.2-1.2,0.2-1.8-0.1l-42.7-18.2c-1.3-0.6-1.9-2.1-1.4-3.4
					c0.6-1.3,2.1-1.9,3.4-1.4l42.7,18.2c1.3,0.6,1.9,2.1,1.4,3.4C287.7,174.5,287.1,175,286.4,175.2z"/>
			</g>
		</g>
		<path id="XMLID_2883_" class="st264" d="M416.5,171.2v137.6c0,58.3-47.2,105.5-105.5,105.5H201c-28.9,0-55.1-11.6-74.2-30.5
			c-19.3-19.1-31.3-45.7-31.3-75V171.2H416.5z"/>
		<path id="XMLID_2882_" class="st15" d="M385.5,171.2v116.3c0,58.3-47.2,105.5-105.5,105.5H170c-15.4,0-30-3.3-43.2-9.2
			c-19.3-19.1-31.3-45.7-31.3-75V171.2H385.5z"/>
		<path id="XMLID_2881_" class="st265" d="M398.4,232.9V308c0,43.7-35.5,79.2-79.2,79.2H192.8c-43.7,0-79.2-35.5-79.2-79.2v-75.1
			H398.4z"/>
		<path id="XMLID_2880_" class="st266" d="M385.5,232.9V308c0,43.7-35.5,79.2-79.2,79.2H192.8c-43.7,0-79.2-35.5-79.2-79.2v-75.1
			H385.5z"/>
		<g id="XMLID_2867_">
			<path id="XMLID_2879_" class="st37" d="M183.4,214.3c-5.6,7-14.4,35-14.4,35s25.4-14.9,30.9-21.8s6.4-15.6,1.8-19.2
				S188.9,207.3,183.4,214.3z"/>
			<path id="XMLID_2878_" class="st37" d="M143.2,222.9c4.3,7.8,26.8,26.7,26.8,26.7s-4-29.1-8.3-36.9s-12-11.9-17.1-9.1
				C139.5,206.4,138.9,215,143.2,222.9z"/>
			<path id="XMLID_2877_" class="st37" d="M137.3,267.5c8.7-2.1,32.7-19,32.7-19s-29.2-3.7-37.8-1.5s-14.6,8.5-13.2,14.1
				C120.5,266.8,128.6,269.7,137.3,267.5z"/>
			<path id="XMLID_2876_" class="st37" d="M171.9,285.8c1.9-8.7-2.7-37.8-2.7-37.8s-16.1,24.6-18,33.3s1.2,16.8,6.9,18
				C163.9,300.6,170,294.5,171.9,285.8z"/>
			<path id="XMLID_2875_" class="st37" d="M204.9,256.8c-7.7-4.6-36.7-9.4-36.7-9.4s18.2,23.1,25.9,27.6c7.7,4.6,16.3,4.2,19.3-0.9
				S212.6,261.4,204.9,256.8z"/>
			<g id="XMLID_2869_">
				<path id="XMLID_2874_" class="st38" d="M173.5,239.3c-1.5,1.9-4,9.7-4,9.7s7-4.1,8.5-6s1.8-4.3,0.5-5.3
					C177.3,236.6,175.1,237.3,173.5,239.3z"/>
				<path id="XMLID_2873_" class="st38" d="M162.4,241.6c1.2,2.2,7.4,7.4,7.4,7.4s-1.1-8-2.3-10.2s-3.3-3.3-4.7-2.5
					C161.4,237.1,161.3,239.5,162.4,241.6z"/>
				<path id="XMLID_2872_" class="st38" d="M160.8,254c2.4-0.6,9-5.2,9-5.2s-8-1-10.4-0.4c-2.4,0.6-4,2.3-3.6,3.9
					S158.4,254.5,160.8,254z"/>
				<path id="XMLID_2871_" class="st38" d="M170.4,259c0.5-2.4-0.7-10.4-0.7-10.4s-4.4,6.8-5,9.2c-0.5,2.4,0.3,4.6,1.9,5
					C168.2,263.1,169.9,261.4,170.4,259z"/>
				<path id="XMLID_2870_" class="st38" d="M179.5,251c-2.1-1.3-10.1-2.6-10.1-2.6s5,6.4,7.1,7.6c2.1,1.3,4.5,1.2,5.3-0.2
					C182.7,254.4,181.6,252.2,179.5,251z"/>
			</g>
			<circle id="XMLID_2868_" class="st39" cx="169.2" cy="248" r="4"/>
		</g>
		<g id="XMLID_2854_">
			<path id="XMLID_2866_" class="st37" d="M359.8,325.7c-9,11.3-23.3,56.7-23.3,56.7s41.1-24,50.1-35.4c9-11.3,10.3-25.3,2.9-31.1
				C382.2,310,368.9,314.4,359.8,325.7z"/>
			<path id="XMLID_2865_" class="st37" d="M294.8,339.5c7,12.7,43.4,43.3,43.4,43.3s-6.4-47.1-13.4-59.8
				c-7-12.7-19.4-19.2-27.6-14.7S287.8,326.9,294.8,339.5z"/>
			<path id="XMLID_2864_" class="st37" d="M285.2,411.9c14-3.5,53-30.7,53-30.7s-47.2-6-61.2-2.5c-14,3.5-23.6,13.7-21.3,22.9
				C258,410.7,271.2,415.4,285.2,411.9z"/>
			<path id="XMLID_2863_" class="st37" d="M341.3,441.4c3-14.1-4.4-61.1-4.4-61.1s-26.1,39.8-29.1,54c-3,14.1,2,27.2,11.3,29.2
				C328.3,465.4,338.2,455.6,341.3,441.4z"/>
			<path id="XMLID_2862_" class="st37" d="M394.7,394.5c-12.4-7.4-59.4-15.3-59.4-15.3s29.5,37.4,41.9,44.7
				c12.4,7.4,26.4,6.8,31.3-1.4S407.2,401.9,394.7,394.5z"/>
			<g id="XMLID_2856_">
				<path id="XMLID_2861_" class="st38" d="M343.9,366.1c-2.5,3.1-6.4,15.7-6.4,15.7s11.3-6.6,13.8-9.8c2.5-3.1,2.8-7,0.8-8.6
					C350.1,361.8,346.4,363,343.9,366.1z"/>
				<path id="XMLID_2860_" class="st38" d="M326,369.9c1.9,3.5,12,11.9,12,11.9s-1.8-13-3.7-16.5s-5.3-5.3-7.6-4
					C324.3,362.6,324,366.4,326,369.9z"/>
				<path id="XMLID_2859_" class="st38" d="M323.3,389.9c3.9-1,14.6-8.5,14.6-8.5s-13-1.6-16.9-0.7s-6.5,3.8-5.9,6.3
					S319.5,390.8,323.3,389.9z"/>
				<path id="XMLID_2858_" class="st38" d="M338.8,398c0.8-3.9-1.2-16.9-1.2-16.9s-7.2,11-8,14.9c-0.8,3.9,0.6,7.5,3.1,8.1
					C335.2,404.7,338,401.9,338.8,398z"/>
				<path id="XMLID_2857_" class="st38" d="M353.6,385.1c-3.4-2-16.4-4.2-16.4-4.2s8.1,10.3,11.6,12.4s7.3,1.9,8.6-0.4
					C358.7,390.6,357,387.1,353.6,385.1z"/>
			</g>
			<circle id="XMLID_2855_" class="st39" cx="336.9" cy="380.3" r="6.4"/>
		</g>
		<path id="XMLID_2853_" class="st42" d="M252.8,171.6c0.9-2.6,4.7-5.7,6.2-8c4.6-6.8,8.4-14.3,10.7-22.2c3.7-12.8,2.7-26-2.6-38.2
			c-4.8-10.9-13.9-18.7-19.1-29.1c-10.7-21.4-7.6-45.6,4.8-65.6c-0.7,1.2-4.7,2.5-5.9,3.3c-4.6,3.1-8.6,7.1-11.8,11.6
			c-11.9,17.3-8.9,39.7-2.1,58.3c4.9,13.5,15.8,23.5,20.4,37.5C259,136.4,258.5,154.7,252.8,171.6z"/>
		<path id="XMLID_2852_" class="st42" d="M316.8,163.1c0.7-2,3.7-4.5,5-6.3c3.7-5.4,6.7-11.3,8.5-17.6c3-10.1,2.2-20.7-2.1-30.3
			c-3.8-8.7-11.1-14.8-15.2-23.1c-8.5-17-6-36.2,3.9-52.2c-0.6,0.9-3.7,2-4.7,2.6c-3.7,2.5-6.9,5.6-9.4,9.3
			c-9.5,13.8-7.1,31.6-1.7,46.4c3.9,10.8,12.5,18.7,16.2,29.8C321.7,135.1,321.2,149.6,316.8,163.1z"/>
	</g>
</g>
</svg>
