<?xml version="1.0" encoding="utf-8"?>
<!-- Generator: Adobe Illustrator 22.0.0, SVG Export Plug-In . SVG Version: 6.00 Build 0)  -->
<svg version="1.1" id="Layer_1" xmlns="http://www.w3.org/2000/svg" xmlns:xlink="http://www.w3.org/1999/xlink" x="0px" y="0px"
	 viewBox="0 0 500 500" style="enable-background:new 0 0 500 500;" xml:space="preserve">
<style type="text/css">
	.st0{fill:#FDDF7F;}
	.st1{fill:#ECF4F7;}
	.st2{fill:#83E1E5;}
	.st3{fill:#1C1D21;}
	.st4{fill:#AAB1BA;}
</style>
<g>
	<path class="st2" d="M355.418,288.725c1.303,0.083,2.614,0.139,3.938,0.139c22.834,0,42.755-12.413,53.426-30.85
		c-8.162-14.103-21.745-24.657-37.895-28.851c9.255-15.225,11.638-33.45,7.161-50.227c-16.777-4.477-35.002-2.094-50.227,7.161
		c-4.194-16.15-14.749-29.733-28.851-37.895c-18.437,10.67-30.85,30.592-30.85,53.425c0,8.365,1.673,16.334,4.693,23.602
		l0.909,0.909h56.933v52.332c-0.001,0-0.001,0-0.002,0C342.9,279.068,350.244,282.907,355.418,288.725z"/>
</g>
<g>
	<path class="st1" d="M119.606,226.14v29.716H90.819c-17.159,0-31.071,13.911-31.071,31.07v76.468
		c0,17.16,13.911,31.07,31.071,31.07h31.004c8.292,34.153,39.054,59.519,75.757,59.519h1.858v0H148.36
		c-13.61,0-24.644,11.033-24.644,24.643V495h206.828v-1.555c-16.708-4.791-28.94-20.171-28.94-38.419v-36.49h-14.386
		c-8.339,0-15.099-6.76-15.099-15.099c0-8.339,6.76-15.099,15.099-15.099h14.386v-79.161c0-17.008,13.788-30.796,30.796-30.796h0
		c0.759,0,1.509,0.037,2.254,0.091V226.14H119.606z M119.606,371.94H90.818c-4.712,0-8.545-3.834-8.545-8.546v-76.468
		c0-4.712,3.833-8.546,8.545-8.546h28.788V371.94z"/>
</g>
<g>
	<path class="st0" d="M413.456,441.409h-39.107c-6.159,0-11.152-4.993-11.152-11.152v-65.385h19.657
		c10.494,0,19.001-8.507,19.001-19.002s-8.507-19.002-19.001-19.002h-19.657v-17.691c0-17.008-13.788-30.796-30.796-30.796h0
		c-17.008,0-30.796,13.788-30.796,30.796v79.162h-14.386c-8.339,0-15.099,6.76-15.099,15.099s6.76,15.099,15.099,15.099h14.386
		v36.49c0,22.077,17.897,39.974,39.974,39.974h71.878c14.799,0,26.795-11.997,26.795-26.795l0,0
		C440.252,453.406,428.255,441.409,413.456,441.409z"/>
</g>
<path class="st3" d="M267.405,207.762c-0.189-2.032-0.285-4.096-0.285-6.133c0-23.72,12.777-45.85,33.345-57.753
	c1.551-0.896,3.46-0.896,5.009,0c13.531,7.83,23.961,20.342,29.299,34.919c14.959-7.292,32.326-9.024,48.564-4.689
	c1.729,0.462,3.08,1.813,3.542,3.542c4.333,16.238,2.602,33.605-4.689,48.564c14.576,5.338,27.088,15.768,34.919,29.298
	c0.897,1.55,0.897,3.46,0,5.01c-8.712,15.053-22.68,25.976-39.33,30.756c-0.461,0.133-0.926,0.195-1.382,0.195
	c-2.174,0-4.174-1.428-4.804-3.621c-0.763-2.654,0.771-5.424,3.426-6.186c13.21-3.793,24.437-12.139,31.898-23.646
	c-7.033-10.8-17.676-18.975-29.875-22.995c-2.409,3.5-5.141,6.795-8.167,9.819c-4.37,4.372-9.283,8.135-14.603,11.186
	c-0.784,0.449-1.64,0.663-2.482,0.663c-1.733,0-3.418-0.902-4.343-2.514c-1.373-2.396-0.545-5.451,1.851-6.825
	c4.553-2.61,8.761-5.833,12.506-9.58c3.381-3.381,6.342-7.146,8.802-11.188c0.003-0.005,0.005-0.011,0.009-0.016
	c7.87-12.948,10.471-28.642,7.289-43.486c-14.843-3.184-30.538-0.582-43.486,7.289c-0.007,0.004-0.015,0.007-0.021,0.012
	c-4.042,2.459-7.805,5.419-11.183,8.798c-3.606,3.606-6.729,7.642-9.283,11.993c-0.931,1.587-2.602,2.471-4.317,2.471
	c-0.859,0-1.73-0.222-2.525-0.688c-2.382-1.397-3.18-4.461-1.782-6.843c2.984-5.085,6.63-9.797,10.837-14.003
	c3.024-3.025,6.318-5.757,9.82-8.167c-4.02-12.199-12.195-22.841-22.993-29.874c-16.016,10.417-25.849,28.377-25.849,47.56
	c0,1.729,0.081,3.48,0.242,5.205c0.256,2.75-1.766,5.187-4.515,5.442C270.087,212.534,267.66,210.511,267.405,207.762z
	 M186.227,20.975h5.974v5.975c0,2.762,2.238,5,5,5s5-2.238,5-5v-5.975h5.975c2.762,0,5-2.238,5-5s-2.238-5-5-5H202.2V5
	c0-2.762-2.238-5-5-5s-5,2.238-5,5v5.975h-5.974c-2.762,0-5,2.238-5,5S183.465,20.975,186.227,20.975z M89.966,186.441h5.974v5.975
	c0,2.762,2.238,5,5,5s5-2.238,5-5v-5.975h5.975c2.762,0,5-2.238,5-5s-2.238-5-5-5h-5.975v-5.975c0-2.762-2.238-5-5-5s-5,2.238-5,5
	v5.975h-5.974c-2.762,0-5,2.238-5,5S87.204,186.441,89.966,186.441z M333.053,142.857h5.975v5.975c0,2.762,2.238,5,5,5s5-2.238,5-5
	v-5.975h5.975c2.762,0,5-2.238,5-5s-2.238-5-5-5h-5.975v-5.975c0-2.762-2.238-5-5-5s-5,2.238-5,5v5.975h-5.975c-2.762,0-5,2.238-5,5
	S330.291,142.857,333.053,142.857z M152.568,199.029c2.762,0,5-2.238,5-5V81.686c0-2.762-2.238-5-5-5s-5,2.238-5,5v112.344
	C147.568,196.791,149.807,199.029,152.568,199.029z M152.568,65.834c2.762,0,5-2.238,5-5v-8.323c0-2.762-2.238-5-5-5s-5,2.238-5,5
	v8.323C147.568,63.596,149.807,65.834,152.568,65.834z M197.2,76.686c-2.762,0-5,2.238-5,5v112.344c0,2.762,2.238,5,5,5s5-2.238,5-5
	V81.686C202.2,78.924,199.962,76.686,197.2,76.686z M202.2,52.511c0-2.762-2.238-5-5-5s-5,2.238-5,5v8.323c0,2.762,2.238,5,5,5
	s5-2.238,5-5V52.511z M241.833,199.029c2.762,0,5-2.238,5-5V81.686c0-2.762-2.238-5-5-5s-5,2.238-5,5v112.344
	C236.833,196.791,239.071,199.029,241.833,199.029z M241.833,65.834c2.762,0,5-2.238,5-5v-8.323c0-2.762-2.238-5-5-5s-5,2.238-5,5
	v8.323C236.833,63.596,239.071,65.834,241.833,65.834z M90.818,399.465h12.423c2.762,0,5-2.238,5-5s-2.238-5-5-5H90.818
	c-14.375,0-26.07-11.695-26.07-26.07v-76.469c0-14.375,11.695-26.07,26.07-26.07h12.423c2.762,0,5-2.238,5-5s-2.238-5-5-5H90.818
	c-19.89,0-36.07,16.181-36.07,36.07v76.469C54.748,383.284,70.929,399.465,90.818,399.465z M90.818,283.381h12.423
	c2.762,0,5-2.238,5-5s-2.238-5-5-5H90.818c-7.469,0-13.545,6.076-13.545,13.546v76.468c0,7.469,6.076,13.545,13.545,13.545h12.423
	c2.762,0,5-2.238,5-5s-2.238-5-5-5H90.818c-1.955,0-3.545-1.59-3.545-3.545v-76.468C87.273,284.972,88.863,283.381,90.818,283.381z
	 M445.252,468.204c0,17.532-14.264,31.796-31.796,31.796h-71.877c-2.855,0-5.646-0.279-8.355-0.791
	c-0.775,0.495-1.69,0.791-2.679,0.791H123.717H88.323c-2.762,0-5-2.238-5-5s2.238-5,5-5h30.394v-11.373
	c0-16.346,13.298-29.644,29.644-29.644h9.759c-25.894-14.058-43.514-41.497-43.514-72.974V226.14c0-2.762,2.238-5,5-5h32.963
	c2.762,0,5,2.238,5,5s-2.238,5-5,5h-27.963v144.87c0,40.238,32.736,72.974,72.975,72.974h99.025v-25.447h-9.387
	c-11.083,0-20.1-9.017-20.1-20.099c0-11.083,9.017-20.1,20.1-20.1h9.387v-74.161c0-0.603,0.016-1.203,0.046-1.798
	c0.009-0.195,0.029-0.387,0.042-0.581c0.026-0.399,0.052-0.799,0.091-1.195c0.023-0.231,0.056-0.459,0.083-0.689
	c0.042-0.354,0.083-0.709,0.135-1.061c0.037-0.245,0.083-0.487,0.125-0.73c0.057-0.332,0.112-0.665,0.178-0.993
	c0.05-0.25,0.108-0.496,0.164-0.743c0.071-0.318,0.141-0.637,0.221-0.953c0.063-0.249,0.133-0.495,0.201-0.742
	c0.085-0.308,0.17-0.617,0.263-0.922c0.075-0.247,0.156-0.49,0.237-0.735c0.099-0.3,0.198-0.601,0.304-0.897
	c0.087-0.242,0.179-0.481,0.271-0.721c0.112-0.293,0.226-0.586,0.346-0.876c0.098-0.236,0.2-0.471,0.303-0.705
	c0.126-0.287,0.254-0.572,0.387-0.855c0.108-0.231,0.221-0.459,0.334-0.688c0.139-0.279,0.281-0.557,0.427-0.832
	c0.119-0.225,0.24-0.447,0.364-0.668c0.152-0.273,0.308-0.543,0.467-0.812c0.128-0.216,0.258-0.432,0.391-0.645
	c0.166-0.266,0.335-0.529,0.507-0.791c0.137-0.208,0.275-0.417,0.417-0.622c0.178-0.26,0.362-0.515,0.547-0.77
	c0.145-0.2,0.29-0.399,0.439-0.595c0.193-0.253,0.391-0.502,0.59-0.75c0.152-0.189,0.303-0.379,0.458-0.565
	c0.207-0.247,0.42-0.489,0.634-0.731c0.158-0.179,0.313-0.358,0.475-0.534c0.223-0.242,0.452-0.478,0.681-0.714
	c0.161-0.166,0.319-0.333,0.483-0.497c0.241-0.239,0.49-0.471,0.738-0.703c0.161-0.15,0.319-0.304,0.482-0.452
	c0.266-0.24,0.54-0.472,0.813-0.704c0.153-0.131,0.304-0.266,0.46-0.394c0.306-0.251,0.62-0.493,0.935-0.735
	c0.13-0.1,0.257-0.205,0.389-0.304c0.418-0.312,0.845-0.614,1.277-0.908c0.032-0.022,0.063-0.046,0.096-0.068
	c0.471-0.318,0.949-0.625,1.436-0.921c0.083-0.05,0.169-0.096,0.252-0.146c0.4-0.239,0.803-0.474,1.213-0.698
	c0.16-0.087,0.324-0.167,0.486-0.252c0.338-0.178,0.676-0.356,1.021-0.523c0.194-0.094,0.392-0.181,0.587-0.271
	c0.318-0.147,0.634-0.295,0.957-0.434c0.216-0.092,0.436-0.177,0.654-0.266c0.309-0.125,0.617-0.25,0.93-0.367
	c0.23-0.086,0.464-0.164,0.696-0.246c0.307-0.107,0.613-0.214,0.923-0.313c0.243-0.078,0.488-0.148,0.733-0.22
	c0.306-0.09,0.611-0.18,0.92-0.262c0.253-0.067,0.508-0.128,0.763-0.19c0.306-0.074,0.612-0.147,0.92-0.213
	c0.263-0.057,0.528-0.107,0.793-0.158c0.306-0.058,0.612-0.114,0.92-0.165c0.271-0.044,0.543-0.083,0.815-0.122
	c0.308-0.043,0.616-0.083,0.927-0.118c0.277-0.031,0.556-0.059,0.835-0.084c0.157-0.014,0.311-0.035,0.468-0.047V231.14H193.771
	c-2.762,0-5-2.238-5-5s2.238-5,5-5h140.885c2.762,0,5,2.238,5,5v47.981c16.271,3.362,28.541,17.802,28.541,35.056v12.691h14.657
	c13.234,0,24.001,10.768,24.001,24.002s-10.767,24.002-24.001,24.002h-14.657v54.516v5.869c0,3.393,2.76,6.152,6.151,6.152h39.107
	C430.988,436.409,445.252,450.672,445.252,468.204z M313.347,490c-8.648-6.995-14.657-17.123-16.288-28.645
	c-0.018-0.121-0.03-0.243-0.046-0.364c-0.079-0.595-0.151-1.192-0.207-1.793c-0.007-0.072-0.019-0.143-0.025-0.215H197.58h-49.22
	c-10.831,0-19.644,8.813-19.644,19.644V490H313.347z M435.252,468.204c0-12.018-9.777-21.795-21.796-21.795h-39.107
	c-2.178,0-4.254-0.439-6.151-1.224v13.672c0,2.762-2.238,5-5,5s-5-2.238-5-5v-28.601v-5.869v-54.516h-8.336c-2.762,0-5-2.238-5-5
	s2.238-5,5-5h13.336h19.657c7.72,0,14.001-6.281,14.001-14.002s-6.281-14.002-14.001-14.002h-19.657h-22.823c-2.762,0-5-2.238-5-5
	s2.238-5,5-5h17.823v-12.691c0-13.582-10.555-24.739-23.891-25.718c-0.003,0-0.006,0-0.009,0c-0.332-0.024-0.629-0.041-0.914-0.053
	c-0.327-0.012-0.653-0.025-0.982-0.025c-14.224,0-25.796,11.572-25.796,25.796v34.481h8.786c2.762,0,5,2.238,5,5s-2.238,5-5,5
	h-8.786v29.68h15.11c2.762,0,5,2.238,5,5s-2.238,5-5,5h-20.11h-14.387c-5.568,0-10.099,4.53-10.099,10.1
	c0,5.568,4.53,10.099,10.099,10.099h14.387h13.786c2.762,0,5,2.238,5,5s-2.238,5-5,5h-8.786v30.447v1.043
	c0,0.544,0.017,1.084,0.041,1.622c0.01,0.22,0.027,0.438,0.042,0.657c0.02,0.301,0.042,0.601,0.068,0.899
	c0.027,0.293,0.058,0.586,0.092,0.878c0.022,0.188,0.047,0.375,0.072,0.563c1.31,9.718,6.684,18.404,14.551,23.968
	c0.093,0.065,0.184,0.133,0.277,0.197c0.267,0.185,0.539,0.363,0.811,0.541c0.172,0.112,0.344,0.224,0.518,0.333
	c0.244,0.153,0.489,0.302,0.737,0.449c0.212,0.125,0.426,0.248,0.641,0.369c0.229,0.13,0.459,0.26,0.692,0.385
	c0.248,0.132,0.5,0.258,0.75,0.385c0.213,0.107,0.423,0.218,0.639,0.321c0.439,0.21,0.883,0.411,1.332,0.604
	c0.249,0.106,0.503,0.204,0.756,0.305c0.227,0.091,0.452,0.183,0.682,0.27c0.286,0.107,0.576,0.208,0.866,0.308
	c0.193,0.067,0.386,0.133,0.58,0.196c0.318,0.104,0.639,0.203,0.962,0.298c3.131,0.923,6.441,1.427,9.867,1.427h52.149v-15.304
	c0-2.762,2.238-5,5-5s5,2.238,5,5V490h9.728C425.475,490,435.252,480.223,435.252,468.204z M173.199,231.14h4.265
	c2.762,0,5-2.238,5-5s-2.238-5-5-5h-4.265c-2.762,0-5,2.238-5,5S170.438,231.14,173.199,231.14z M70.324,490h-5.04
	c-2.762,0-5,2.238-5,5s2.238,5,5,5h5.04c2.762,0,5-2.238,5-5S73.086,490,70.324,490z"/>
</svg>
