<?xml version="1.0" encoding="iso-8859-1"?>
<!-- Generator: Adobe Illustrator 19.0.0, SVG Export Plug-In . SVG Version: 6.00 Build 0)  -->
<svg version="1.1" id="Layer_1" xmlns="http://www.w3.org/2000/svg" xmlns:xlink="http://www.w3.org/1999/xlink" x="0px" y="0px"
	 viewBox="0 0 512 512" style="enable-background:new 0 0 512 512;" xml:space="preserve">
<path style="fill:#A9CF54;" d="M390.536,366.235c-53.498,53.498-121.551,30.27-133.031,25.804c-1.084-0.421-1.94-1.279-2.363-2.363
	c-4.466-11.48-27.694-79.533,25.804-133.031c52.322-52.322,131.333-44.018,147.701-41.632c1.828,0.266,3.254,1.693,3.521,3.521
	C434.554,234.901,442.858,313.911,390.536,366.235z"/>
<path style="fill:#FFDC7B;" d="M121.464,366.235c53.498,53.498,121.551,30.27,133.031,25.804c1.084-0.421,1.94-1.279,2.363-2.363
	c4.466-11.48,27.694-79.533-25.804-133.031c-52.322-52.322-131.333-44.018-147.701-41.632c-1.828,0.266-3.254,1.693-3.521,3.521
	C77.446,234.901,69.142,313.911,121.464,366.235z"/>
<path style="fill:#F0AE59;" d="M140.338,364.21C88.25,312.122,95.459,233.545,98.309,213.502
	c-6.751,0.425-11.929,1.069-14.957,1.511c-1.828,0.266-3.254,1.693-3.52,3.52c-2.387,16.368-10.69,95.378,41.632,147.7
	c35.385,35.387,77.135,37.202,104.674,33.084C199.953,399.397,168.131,392.004,140.338,364.21z"/>
<path d="M256,44.929c4.329,0,7.837-3.509,7.837-7.837V7.837C263.837,3.509,260.329,0,256,0c-4.329,0-7.837,3.509-7.837,7.837v29.255
	C248.163,41.42,251.671,44.929,256,44.929z"/>
<path d="M256,467.071c-4.329,0-7.837,3.509-7.837,7.837v29.255c0,4.328,3.508,7.837,7.837,7.837c4.329,0,7.837-3.509,7.837-7.837
	v-29.255C263.837,470.58,260.329,467.071,256,467.071z"/>
<path d="M139.759,70.337c1.452,2.514,4.086,3.919,6.794,3.919c1.329,0,2.678-0.339,3.911-1.051
	c3.748-2.164,5.032-6.957,2.868-10.705l-14.628-25.336c-2.165-3.749-6.958-5.032-10.705-2.868
	c-3.748,2.164-5.032,6.957-2.868,10.705L139.759,70.337z"/>
<path d="M372.241,441.663c-2.165-3.748-6.958-5.032-10.705-2.868c-3.748,2.164-5.032,6.957-2.868,10.705l14.628,25.336
	c1.452,2.514,4.086,3.919,6.794,3.919c1.329,0,2.678-0.339,3.911-1.051c3.748-2.164,5.032-6.957,2.868-10.705L372.241,441.663z"/>
<path d="M37.166,138.705l25.335,14.628c1.234,0.713,2.582,1.051,3.911,1.051c2.708,0,5.343-1.405,6.794-3.919
	c2.164-3.748,0.88-8.541-2.868-10.705l-25.335-14.628c-3.747-2.165-8.542-0.881-10.705,2.868
	C32.134,131.748,33.418,136.541,37.166,138.705z"/>
<path d="M474.834,373.295l-25.335-14.628c-3.747-2.164-8.543-0.881-10.705,2.868c-2.164,3.748-0.88,8.541,2.868,10.705
	l25.335,14.628c1.234,0.713,2.582,1.051,3.911,1.051c2.708,0,5.343-1.405,6.794-3.919
	C479.866,380.252,478.582,375.459,474.834,373.295z"/>
<path d="M44.929,256c0-4.328-3.508-7.837-7.837-7.837H7.837C3.508,248.163,0,251.672,0,256s3.508,7.837,7.837,7.837h29.255
	C41.421,263.837,44.929,260.328,44.929,256z"/>
<path d="M504.163,248.163h-29.255c-4.329,0-7.837,3.509-7.837,7.837s3.508,7.837,7.837,7.837h29.255
	c4.329,0,7.837-3.509,7.837-7.837S508.492,248.163,504.163,248.163z"/>
<path d="M62.501,358.667l-25.335,14.628c-3.748,2.164-5.032,6.957-2.868,10.705c1.452,2.514,4.086,3.919,6.794,3.919
	c1.329,0,2.678-0.34,3.911-1.051l25.335-14.628c3.748-2.164,5.032-6.957,2.868-10.705C71.041,357.787,66.247,356.506,62.501,358.667
	z"/>
<path d="M445.587,154.384c1.329,0,2.678-0.34,3.911-1.051l25.335-14.628c3.748-2.164,5.032-6.957,2.868-10.705
	c-2.164-3.749-6.959-5.03-10.705-2.868l-25.335,14.628c-3.748,2.164-5.032,6.957-2.868,10.705
	C440.246,152.978,442.88,154.384,445.587,154.384z"/>
<path d="M150.464,438.793c-3.75-2.165-8.542-0.88-10.705,2.868l-14.628,25.336c-2.164,3.748-0.88,8.541,2.868,10.705
	c1.235,0.713,2.582,1.051,3.911,1.051c2.708,0,5.343-1.405,6.794-3.919l14.628-25.336
	C155.496,445.751,154.212,440.958,150.464,438.793z"/>
<path d="M361.536,73.207c1.235,0.713,2.582,1.051,3.911,1.051c2.708,0,5.343-1.405,6.794-3.919l14.628-25.336
	c2.164-3.748,0.88-8.541-2.868-10.705c-3.751-2.164-8.542-0.881-10.705,2.868l-14.628,25.336
	C356.503,66.249,357.788,71.042,361.536,73.207z"/>
<path d="M439.377,214.04c-0.6-3.164-3.074-5.639-6.239-6.239c-0.985-0.187-24.491-4.542-55.607-1.508
	c-41.548,4.05-76.865,19.547-102.13,44.815c-7.616,7.615-14.11,15.889-19.426,24.707c-5.301-8.826-11.767-17.097-19.38-24.71
	c-3.062-3.061-8.023-3.061-11.083,0s-3.061,8.023,0,11.082c10.008,10.007,17.708,21.066,23.084,33.105
	c0.14,0.406,0.311,0.801,0.515,1.18c6.386,14.793,9.299,31.047,8.676,48.643c-0.458,12.92-2.823,24.065-4.984,31.785l-25.511-25.511
	l11.875-40.552c1.217-4.153-1.164-8.508-5.319-9.724c-4.155-1.217-8.508,1.165-9.723,5.319l-9.467,32.325l-25.161-25.161
	l14.522-49.588c1.217-4.153-1.164-8.508-5.319-9.724c-4.156-1.219-8.508,1.166-9.723,5.319l-12.112,41.36l-28.355-28.355
	l8.081-27.595c1.217-4.153-1.164-8.508-5.319-9.724c-4.155-1.217-8.508,1.165-9.723,5.319l-5.672,19.368l-14.123-14.123
	c-3.061-3.059-8.022-3.062-11.083,0c-3.061,3.061-3.061,8.023,0,11.082l14.123,14.123l-19.368,5.672
	c-4.155,1.216-6.536,5.57-5.319,9.724c1.001,3.418,4.126,5.636,7.517,5.636c0.728,0,1.47-0.102,2.205-0.318l27.597-8.081
	l28.355,28.355l-41.36,12.112c-4.155,1.216-6.536,5.57-5.319,9.724c1.001,3.418,4.126,5.636,7.517,5.636
	c0.728,0,1.47-0.102,2.205-0.318l49.589-14.522l25.161,25.161l-32.325,9.467c-4.155,1.216-6.536,5.57-5.319,9.724
	c1.001,3.418,4.126,5.636,7.517,5.636c0.728,0,1.47-0.102,2.205-0.318l40.552-11.876l25.51,25.511
	c-6.816,1.91-16.288,3.977-27.303,4.747c-4.318,0.302-7.572,4.047-7.27,8.364c0.288,4.132,3.73,7.29,7.81,7.29
	c0.184,0,0.369-0.006,0.555-0.02c4.919-0.344,9.552-0.916,13.837-1.616l-3.242,3.242c-3.061,3.06-3.061,8.023,0,11.082
	c1.531,1.53,3.537,2.296,5.542,2.296c2.005,0,4.011-0.765,5.542-2.296L256,402.264l18.811,18.811
	c1.531,1.531,3.536,2.296,5.542,2.296c2.005,0,4.011-0.765,5.542-2.296c3.06-3.06,3.06-8.023,0-11.082l-3.24-3.24
	c7.148,1.169,15.27,1.986,24.033,1.985c27.069-0.001,60.223-7.788,89.395-36.96c3.06-3.061,3.06-8.023,0-11.082
	c-3.062-3.06-8.023-3.06-11.083,0c-41.518,41.519-92.368,33.652-114.754,27.322l25.546-25.546l40.552,11.876
	c0.735,0.215,1.476,0.318,2.205,0.318c3.391,0,6.516-2.218,7.517-5.636c1.217-4.153-1.164-8.508-5.319-9.724l-32.325-9.467
	l25.161-25.161l49.589,14.522c0.735,0.215,1.476,0.318,2.205,0.318c3.391,0,6.516-2.218,7.517-5.636
	c1.217-4.153-1.164-8.508-5.319-9.724l-41.36-12.112l28.355-28.355l27.597,8.081c0.735,0.215,1.476,0.318,2.205,0.318
	c3.391,0,6.516-2.218,7.517-5.636c1.217-4.153-1.164-8.508-5.319-9.724l-19.368-5.672l14.123-14.123c3.06-3.061,3.06-8.023,0-11.082
	c-3.063-3.062-8.024-3.059-11.083,0l-14.123,14.123l-5.672-19.368c-1.215-4.152-5.568-6.534-9.723-5.319
	c-4.155,1.216-6.536,5.57-5.319,9.724l8.081,27.595l-28.355,28.355l-12.112-41.36c-1.216-4.153-5.567-6.536-9.723-5.319
	c-4.155,1.216-6.536,5.57-5.319,9.724l14.522,49.588l-25.161,25.161l-9.467-32.325c-1.215-4.153-5.568-6.536-9.723-5.319
	c-4.155,1.216-6.536,5.57-5.319,9.724l11.875,40.552l-13.137,13.139c0.904-5.541,1.597-11.666,1.858-18.234
	c0.752-18.941-2.282-36.866-8.894-53.295c5.311-11.167,12.667-21.525,21.951-30.809c22.896-22.897,53.889-36.441,92.116-40.253
	c20.541-2.049,37.788-0.579,46.168,0.465c1.95,15.845,5.376,63.428-16.214,105.715c-1.969,3.855-0.439,8.575,3.417,10.543
	c1.141,0.583,2.358,0.859,3.557,0.859c2.852,0,5.6-1.561,6.986-4.275C451.241,278.976,439.876,216.665,439.377,214.04z"/>
<path d="M173.668,388.679c-17.428-5.034-33.127-14.451-46.662-27.986c-22.897-22.897-36.44-53.889-40.251-92.115
	c-2.048-20.547-0.576-37.799,0.469-46.175c15.812-1.969,63.292-5.433,105.704,16.22c3.854,1.969,8.573,0.438,10.543-3.416
	c1.969-3.855,0.439-8.575-3.417-10.543c-56.265-28.727-118.57-17.361-121.194-16.863c-3.164,0.601-5.638,3.075-6.239,6.239
	c-0.188,0.985-4.544,24.49-1.511,55.605c4.049,41.547,19.545,76.863,44.811,102.129c15.43,15.43,33.395,26.183,53.397,31.961
	c0.726,0.21,1.459,0.309,2.179,0.309c3.401,0,6.534-2.232,7.524-5.663C180.223,394.224,177.827,389.88,173.668,388.679z"/>
<path d="M116.042,167.739c3.532,2.506,8.425,1.673,10.926-1.858c29.633-41.773,77.866-66.712,129.019-66.712
	c51.159,0,99.4,24.946,129.045,66.73c1.529,2.154,3.944,3.303,6.399,3.303c1.567,0,3.151-0.469,4.528-1.446
	c3.53-2.504,4.361-7.396,1.857-10.926c-32.579-45.92-85.599-73.335-141.828-73.335c-56.225,0-109.235,27.408-141.802,73.317
	C111.681,160.343,112.513,165.234,116.042,167.739z"/>
<g>
</g>
<g>
</g>
<g>
</g>
<g>
</g>
<g>
</g>
<g>
</g>
<g>
</g>
<g>
</g>
<g>
</g>
<g>
</g>
<g>
</g>
<g>
</g>
<g>
</g>
<g>
</g>
<g>
</g>
</svg>
