<?xml version="1.0" encoding="iso-8859-1"?>
<!-- Generator: Adobe Illustrator 19.0.0, SVG Export Plug-In . SVG Version: 6.00 Build 0)  -->
<svg xmlns="http://www.w3.org/2000/svg" xmlns:xlink="http://www.w3.org/1999/xlink" version="1.1" id="Layer_1" x="0px" y="0px" viewBox="0 0 512.001 512.001" style="enable-background:new 0 0 512.001 512.001;" xml:space="preserve">
<polygon style="fill:#FEC566;" points="403.683,85.254 381.078,7.495 130.925,7.495 108.318,85.254 256.001,113.915 "/>
<polygon style="opacity:0.1;enable-background:new    ;" points="158.286,85.254 180.893,7.495 130.925,7.495 108.318,85.254   256.001,113.915 280.985,109.066 "/>
<path style="fill:#FEA001;" d="M256.001,113.915l-143.53,28.661l39.29,341.516c1.338,11.633,11.187,20.414,22.896,20.414h162.686  c11.71,0,21.558-8.78,22.896-20.414l39.29-341.516L256.001,113.915z"/>
<path style="opacity:0.1;enable-background:new    ;" d="M201.73,484.091l-39.29-341.516l118.546-23.672l-24.984-4.989  l-143.53,28.661l39.29,341.516c1.338,11.633,11.187,20.414,22.896,20.414h49.968C212.917,504.505,203.068,495.724,201.73,484.091z"/>
<path style="fill:#B8703F;" d="M443.61,117.704c-3.948-18.905-20.613-32.45-39.927-32.45H108.318  c-19.313,0-35.978,13.545-39.927,32.45l-5.194,24.871h385.605L443.61,117.704z"/>
<path style="opacity:0.1;enable-background:new    ;" d="M158.286,85.254h-49.968c-19.313,0-35.978,13.545-39.927,32.45  l-5.194,24.871h49.968l5.194-24.871C122.308,98.799,138.974,85.254,158.286,85.254z"/>
<path style="fill:#B8703F;" d="M380.53,228.043H131.472c-11.303,0-20.083,9.848-18.791,21.078l14.997,130.365  c1.098,9.547,9.181,16.753,18.791,16.753h219.062c9.61,0,17.693-7.206,18.791-16.753l14.998-130.365  C400.613,237.891,391.833,228.043,380.53,228.043z"/>
<path style="opacity:0.1;enable-background:new    ;" d="M177.647,379.486l-14.998-130.365  c-1.292-11.229,7.488-21.078,18.791-21.078h-49.968c-11.303,0-20.083,9.848-18.791,21.078l14.998,130.365  c1.098,9.547,9.181,16.753,18.791,16.753h49.968C186.828,396.239,178.745,389.033,177.647,379.486z"/>
<path d="M454.62,147.302c1.423-1.751,1.982-4.05,1.52-6.259l-5.194-24.872c-4.252-20.365-21.257-35.611-41.535-38.059l-21.137-72.71  C387.344,2.202,384.412,0,381.078,0H195.597c-4.139,0-7.495,3.356-7.495,7.495s3.356,7.495,7.495,7.495h179.855L393.7,77.76h-39.98  c-4.139,0-7.495,3.356-7.495,7.495c0,4.139,3.356,7.495,7.495,7.495h49.964c15.678,0,29.384,11.139,32.589,26.486l3.309,15.844  H72.421l3.309-15.844c3.205-15.347,16.91-26.486,32.589-26.486h215.42c4.139,0,7.495-3.356,7.495-7.495  c0-4.139-3.356-7.495-7.495-7.495H118.303l18.248-62.769h29.065c4.139,0,7.495-3.356,7.495-7.495S169.755,0,165.616,0h-34.691  c-3.334,0-6.267,2.202-7.197,5.403l-21.139,72.71C82.31,80.56,65.307,95.807,61.054,116.171l-5.194,24.872  c-0.461,2.209,0.098,4.508,1.52,6.259c1.423,1.751,3.56,2.768,5.816,2.768h42.591l2.508,21.8c0.474,4.112,4.187,7.063,8.303,6.59  c4.112-0.474,7.063-4.19,6.589-8.304l-2.312-20.086h270.245l-8.121,70.593c-0.82-0.077-1.648-0.116-2.472-0.116H131.472  c-0.823,0-1.652,0.039-2.472,0.116l-2.362-20.526c-0.474-4.112-4.191-7.06-8.303-6.59c-4.112,0.474-7.063,4.19-6.59,8.304  l2.853,24.797c-1.006,0.835-1.959,1.747-2.84,2.735c-5.006,5.615-7.383,13.121-6.524,20.594l14.997,130.365  c1.05,9.131,6.671,16.722,14.419,20.603l9.664,84.002c1.774,15.423,14.819,27.053,30.343,27.053h162.686  c15.524,0,28.569-11.63,30.343-27.053l2.985-25.948c0.474-4.112-2.477-7.829-6.589-8.303c-4.121-0.474-7.83,2.477-8.303,6.59  l-2.985,25.948c-0.903,7.853-7.545,13.775-15.45,13.775H174.658c-7.905,0-14.547-5.922-15.45-13.775l-9.146-79.5h211.88  l-2.711,23.571c-0.474,4.112,2.477,7.829,6.589,8.303c4.117,0.473,7.829-2.477,8.303-6.59l3.23-28.072  c7.748-3.881,13.369-11.473,14.419-20.604l14.997-130.365c0.86-7.473-1.518-14.979-6.523-20.594  c-0.881-0.988-1.835-1.899-2.841-2.735l8.81-76.577h42.59C451.06,150.071,453.196,149.054,454.62,147.302z M391.876,248.263  c0,0-14.984,130.249-14.997,130.365c-0.649,5.639-5.662,10.116-11.346,10.116c0,0-219.055,0-219.063,0  c-5.733,0-10.69-4.426-11.346-10.116l-14.997-130.365c-0.377-3.279,0.625-6.441,2.821-8.904c2.094-2.349,5.309-3.812,8.495-3.819  c0.01,0,0.02-0.002,0.03-0.002H380.53c0.01,0,0.02,0.002,0.03,0.002c3.218,0.007,6.353,1.419,8.495,3.819  C391.251,241.822,392.253,244.985,391.876,248.263z"/>
<g>
</g>
<g>
</g>
<g>
</g>
<g>
</g>
<g>
</g>
<g>
</g>
<g>
</g>
<g>
</g>
<g>
</g>
<g>
</g>
<g>
</g>
<g>
</g>
<g>
</g>
<g>
</g>
<g>
</g>
</svg>
