<svg xmlns="http://www.w3.org/2000/svg" width="128" height="128" viewBox="0 0 128 128">
  <title>COFFEE</title>
  <g>
    <polygon points="66.962 43.665 63.49 43.665 45.924 43.665 50.4 96.258 63.49 96.258 66.962 96.258 80.052 96.258 84.528 43.665 66.962 43.665" fill="#f93e55"/>
    <rect x="41.29" y="34.665" width="47.75" height="9" fill="#2b74f7"/>
    <path d="M49.17,27.908H81.16a3.369,3.369,0,0,1,3.369,3.369v3.388a0,0,0,0,1,0,0H45.8a0,0,0,0,1,0,0V31.277A3.369,3.369,0,0,1,49.17,27.908Z" fill="#62dff4"/>
    <polygon points="81.861 75 83.769 52.582 46.683 52.582 48.591 75 81.861 75" fill="#fff5dc"/>
  </g>
</svg>
