<?xml version="1.0" encoding="iso-8859-1"?>
<!-- Generator: Adobe Illustrator 19.0.0, SVG Export Plug-In . SVG Version: 6.00 Build 0)  -->
<svg xmlns="http://www.w3.org/2000/svg" xmlns:xlink="http://www.w3.org/1999/xlink" version="1.1" id="Layer_1" x="0px" y="0px" viewBox="0 0 512.001 512.001" style="enable-background:new 0 0 512.001 512.001;" xml:space="preserve">
<rect x="100.979" y="9.253" style="fill:#E0E0E3;" width="310.032" height="38.734"/>
<polygon style="fill:#30D8B8;" points="411.019,123.386 406.515,158.745 400.594,205.416 396.745,235.717 368.368,458.863   365.506,481.317 362.792,502.747 149.208,502.747 146.494,481.317 143.632,458.863 115.255,235.717 111.406,205.416   105.485,158.745 100.981,123.386 "/>
<g>
	<polygon style="fill:#00C6A5;" points="400.594,205.416 396.745,235.717 115.255,235.717 111.406,205.416  "/>
	<polygon style="fill:#00C6A5;" points="411.017,123.384 406.515,158.748 105.485,158.748 100.983,123.384  "/>
	<polygon style="fill:#00C6A5;" points="368.37,458.863 365.509,481.32 146.491,481.32 143.63,458.863  "/>
</g>
<rect x="73.655" y="47.989" style="fill:#EFEFEF;" width="364.69" height="75.4"/>
<rect x="73.655" y="85.682" style="fill:#E0E0E3;" width="364.69" height="37.7"/>
<polygon style="fill:#A07852;" points="396.743,235.713 373.016,422.341 368.37,458.863 143.63,458.863 138.984,422.341   115.257,235.713 "/>
<g>
	<polygon style="fill:#896746;" points="373.016,422.341 368.37,458.863 143.63,458.863 138.984,422.341  "/>
	
		<ellipse transform="matrix(0.7071 -0.7071 0.7071 0.7071 -153.0073 275.4547)" style="fill:#896746;" cx="256" cy="322.423" rx="53.582" ry="40.845"/>
</g>
<path d="M438.343,38.736h-18.074V9.253c0-5.111-4.143-9.253-9.253-9.253h-81.404c-5.111,0-9.253,4.142-9.253,9.253  s4.143,9.253,9.253,9.253h72.15v20.23H110.236V18.506H290.91c5.111,0,9.253-4.142,9.253-9.253S296.021,0,290.911,0H100.983  c-5.111,0-9.253,4.142-9.253,9.253v29.483H73.657c-5.111,0-9.253,4.142-9.253,9.253v75.394c0,5.111,4.143,9.253,9.253,9.253h19.177  l3.472,27.281c0.595,4.673,4.577,8.085,9.168,8.085c0.389,0,0.783-0.025,1.18-0.074c5.07-0.646,8.656-5.279,8.011-10.349  l-3.174-24.944h37.176c5.111,0,9.253-4.142,9.253-9.253c0-5.111-4.143-9.253-9.253-9.253H82.912V57.243h346.181v56.888H186.088  c-5.111,0-9.253,4.142-9.253,9.253s4.143,9.253,9.253,9.253h214.426l-11.925,93.825H123.415l-4.286-33.717  c-0.644-5.07-5.261-8.638-10.346-8.014c-5.069,0.644-8.657,5.276-8.014,10.344l5.28,41.539c0.006,0.063,0.017,0.124,0.024,0.187  l28.376,223.233l5.578,43.878c0.586,4.623,4.519,8.09,9.179,8.09h213.584c4.66,0,8.593-3.466,9.179-8.09l19.076-150.044  c0.645-5.07-2.942-9.702-8.012-10.347c-5.067-0.645-9.701,2.943-10.346,8.012l-12.471,98.078h-142.83  c-5.111,0-9.253,4.142-9.253,9.253c0,5.111,4.143,9.253,9.253,9.253h140.478l-3.227,25.378H157.362l-3.227-25.378h26.607  c5.111,0,9.253-4.142,9.253-9.253c0-5.111-4.143-9.253-9.253-9.253h-28.959l-26.015-204.643h260.468l-8.953,70.437  c-0.645,5.07,2.942,9.702,8.012,10.347c0.396,0.049,0.789,0.075,1.179,0.075c4.59,0,8.573-3.415,9.168-8.086l10.3-81.036  c0.002-0.019,0.005-0.038,0.007-0.056l13.22-104.009h19.175c5.111,0,9.253-4.142,9.253-9.253V47.989  C447.597,42.878,443.454,38.736,438.343,38.736z"/>
<path d="M300.431,277.992c-9.802-9.803-23.759-14.049-39.3-11.955c-14.608,1.971-29.012,9.415-40.557,20.959  c-24.5,24.5-28.539,60.323-9.006,79.857c8.328,8.328,19.615,12.37,31.725,12.37c16.294,0,34.077-7.322,48.132-21.375  c11.545-11.546,18.989-25.949,20.959-40.558C314.48,301.751,310.235,287.794,300.431,277.992z M294.044,314.817  c-1.432,10.614-7.008,21.249-15.704,29.945c-17.284,17.285-41.366,21.325-53.686,9.007c-12.317-12.319-8.278-36.402,9.006-53.686  c8.696-8.697,19.331-14.273,29.945-15.705c1.735-0.235,3.429-0.351,5.074-0.351c7.54,0,14.049,2.431,18.666,7.049  C292.972,296.702,295.351,305.134,294.044,314.817z"/>
<path d="M265.102,300.234l-31.289,31.289c-3.614,3.614-3.614,9.472,0,13.086c1.807,1.806,4.174,2.709,6.543,2.709  c2.368,0,4.737-0.904,6.543-2.709l31.289-31.289c3.614-3.614,3.614-9.472,0-13.086C274.574,296.621,268.715,296.621,265.102,300.234  z"/>
<path d="M303.865,90.65v-9.929c0-5.111-4.143-9.253-9.253-9.253c-5.11,0-9.253,4.142-9.253,9.253v9.929  c0,5.111,4.143,9.253,9.253,9.253C299.722,99.903,303.865,95.762,303.865,90.65z"/>
<path d="M265.253,90.65v-9.929c0-5.111-4.143-9.253-9.253-9.253s-9.253,4.142-9.253,9.253v9.929c0,5.111,4.143,9.253,9.253,9.253  S265.253,95.762,265.253,90.65z"/>
<path d="M226.64,90.65v-9.929c0-5.111-4.143-9.253-9.253-9.253c-5.111,0-9.253,4.142-9.253,9.253v9.929  c0,5.111,4.143,9.253,9.253,9.253C222.498,99.904,226.64,95.762,226.64,90.65z"/>
<path d="M284.685,396.645h-57.369c-5.111,0-9.253,4.142-9.253,9.253c0,5.111,4.143,9.253,9.253,9.253h57.369  c5.111,0,9.253-4.142,9.253-9.253C293.937,400.787,289.794,396.645,284.685,396.645z"/>
<g>
</g>
<g>
</g>
<g>
</g>
<g>
</g>
<g>
</g>
<g>
</g>
<g>
</g>
<g>
</g>
<g>
</g>
<g>
</g>
<g>
</g>
<g>
</g>
<g>
</g>
<g>
</g>
<g>
</g>
</svg>
