<?xml version="1.0" encoding="utf-8"?>
<!-- Generator: Adobe Illustrator 24.3.0, SVG Export Plug-In . SVG Version: 6.00 Build 0)  -->
<svg version="1.1" id="Layer_1" xmlns="http://www.w3.org/2000/svg" xmlns:xlink="http://www.w3.org/1999/xlink" x="0px" y="0px"
	 viewBox="0 0 300 300" enable-background="new 0 0 300 300" xml:space="preserve">
<g>
	<g>
		<g>
			<polygon fill="#F4F4F4" points="84.353,35.136 84.353,59.049 56.633,264.863 187.923,264.863 215.643,59.049 215.643,35.136 			
				"/>
		</g>
		<g>
			<polygon fill="#F9F9F9" points="84.353,59.049 56.633,264.863 77.042,264.863 104.762,59.049 			"/>
		</g>
		<g>
			<polygon fill="#E5E5E4" points="243.366,264.863 216.124,254.094 187.923,264.863 215.643,59.049 			"/>
		</g>
		<g>
			<polygon fill="#E5E5E4" points="215.643,35.136 238.896,68.427 216.907,68.427 215.643,59.049 			"/>
		</g>
		<g>
			<path fill="#AA6148" d="M159.048,180.644c-17.492,17.494-41.704,21.648-54.075,9.282c-12.359-12.37-8.212-36.58,9.289-54.072
				c17.493-17.495,41.697-21.649,54.066-9.283C180.697,138.94,176.549,163.149,159.048,180.644z"/>
		</g>
		<g>
			<path fill="#BC715C" d="M122.201,143.791c15.572-15.577,36.448-20.542,49.573-12.725c-0.966-1.618-2.088-3.138-3.446-4.495
				c-12.366-12.366-36.572-8.212-54.064,9.283c-17.501,17.492-21.649,41.701-9.289,54.072c1.358,1.357,2.879,2.481,4.497,3.443
				C101.656,180.241,106.619,159.365,122.201,143.791z"/>
		</g>
		<g>
			<g>
				<path fill="#BC715C" d="M110.21,191.035c-0.763,0-1.528-0.009-2.299-0.024c-2.505-0.046-4.498-2.113-4.451-4.616
					c0.044-2.476,2.067-4.453,4.532-4.453c0.028,0,0.056,0,0.084,0.002c12.915,0.23,23.105,0.421,25.915-25.429
					c3.614-33.246,31.59-30.822,31.873-30.794c2.492,0.251,4.31,2.476,4.059,4.968c-0.25,2.485-2.474,4.326-4.943,4.06
					c-2.002-0.167-19.392-0.988-21.971,22.746C139.744,187.513,125.834,191.035,110.21,191.035z"/>
			</g>
		</g>
		<g>
			<rect x="84.353" y="35.136" fill="#F9F9F9" width="20.409" height="23.913"/>
		</g>
	</g>
	<g>
		<g>
			<path fill="#161616" d="M187.924,269.398h-82.647c-2.505,0-4.535-2.03-4.535-4.535s2.03-4.535,4.535-4.535h78.681l26.499-196.743
				H88.32L61.821,260.328h22.534c2.505,0,4.535,2.03,4.535,4.535s-2.03,4.535-4.535,4.535h-27.72c-1.308,0-2.553-0.566-3.415-1.55
				c-0.861-0.985-1.255-2.294-1.081-3.591L79.86,58.444c0.303-2.25,2.223-3.93,4.494-3.93h131.29c1.308,0,2.553,0.565,3.415,1.55
				c0.861,0.985,1.255,2.294,1.081,3.59l-27.722,205.814C192.116,267.718,190.195,269.398,187.924,269.398z"/>
		</g>
		<g>
			<path fill="#161616" d="M243.366,269.398c-0.562,0-1.128-0.105-1.667-0.317l-25.6-10.12l-26.557,10.14
				c-1.497,0.571-3.179,0.312-4.435-0.682c-1.253-0.994-1.891-2.575-1.679-4.16l27.72-205.814c0.304-2.25,2.225-3.93,4.495-3.93
				s4.191,1.68,4.495,3.93l11.966,88.842c0.334,2.482-1.407,4.766-3.89,5.101c-2.46,0.334-4.764-1.406-5.101-3.89l-7.47-55.47
				l-22.206,164.877l21.071-8.046c1.057-0.406,2.229-0.399,3.285,0.019l20.045,7.924l-11.905-88.381
				c-0.334-2.482,1.407-4.766,3.89-5.101c2.48-0.317,4.767,1.408,5.101,3.89l12.937,96.049c0.214,1.595-0.433,3.185-1.701,4.177
				C245.35,269.069,244.364,269.398,243.366,269.398z"/>
		</g>
		<g>
			<path fill="#161616" d="M215.644,63.585H84.354c-2.505,0-4.535-2.03-4.535-4.535V35.136c0-2.505,2.03-4.535,4.535-4.535h131.29
				c2.505,0,4.535,2.03,4.535,4.535v23.913C220.18,61.555,218.15,63.585,215.644,63.585z M88.89,54.514h122.219V39.672H88.89V54.514
				z"/>
		</g>
		<g>
			<path fill="#161616" d="M238.898,72.962h-21.99c-2.271,0-4.191-1.679-4.494-3.93l-1.264-9.378
				c-0.028-0.201-0.041-0.403-0.041-0.605V35.136c0-1.98,1.284-3.732,3.174-4.326c1.89-0.592,3.946,0.105,5.079,1.729l23.254,33.291
				c0.969,1.385,1.085,3.195,0.304,4.693C242.139,72.022,240.589,72.962,238.898,72.962z M220.874,63.892h9.325L220.18,49.549v9.196
				L220.874,63.892z"/>
		</g>
		<g>
			<path fill="#161616" d="M123.798,201.503c-8.479,0-16.212-2.721-21.863-8.37c-14.114-14.129-9.946-41.261,9.289-60.488
				c19.23-19.233,46.362-23.4,60.479-9.282c7.054,7.053,9.833,17.383,7.825,29.087c-1.91,11.132-7.984,22.283-17.105,31.401v-0.001
				c0,0.001,0,0.001,0,0.001C150.888,195.387,136.507,201.503,123.798,201.503z M149.751,123.928
				c-10.236,0-22.287,5.306-32.114,15.133c-15.7,15.692-19.866,37.072-9.288,47.66c10.583,10.575,31.963,6.412,47.66-9.283
				c0,0,0,0,0-0.002c7.806-7.803,12.983-17.22,14.578-26.517c1.495-8.721-0.385-16.228-5.297-21.141
				C161.333,125.822,155.866,123.928,149.751,123.928z"/>
		</g>
		<g>
			<path fill="#161616" d="M110.378,191.035c-0.763,0-1.528-0.009-2.299-0.024c-2.505-0.046-4.499-2.113-4.451-4.617
				c0.044-2.504,2.136-4.627,4.617-4.451c12.915,0.23,23.105,0.421,25.915-25.429c3.614-33.246,31.593-30.822,31.873-30.794
				c2.492,0.251,4.309,2.476,4.059,4.968c-0.251,2.485-2.479,4.304-4.943,4.06c-1.995-0.167-19.391-0.988-21.971,22.746
				C139.913,187.513,126.002,191.035,110.378,191.035z"/>
		</g>
	</g>
</g>
</svg>
