<?xml version="1.0" encoding="UTF-8"?>
<!DOCTYPE svg PUBLIC "-//W3C//DTD SVG 1.1//EN" "http://www.w3.org/Graphics/SVG/1.1/DTD/svg11.dtd">
<!-- Creator: CorelDRAW -->
<svg xmlns="http://www.w3.org/2000/svg" xml:space="preserve" width="6.82666in" height="6.82666in" style="shape-rendering:geometricPrecision; text-rendering:geometricPrecision; image-rendering:optimizeQuality; fill-rule:evenodd; clip-rule:evenodd"
viewBox="0 0 6.82666 6.82666"
 xmlns:xlink="http://www.w3.org/1999/xlink">
 <defs>
  <style type="text/css">
   <![CDATA[
    .fil3 {fill:none}
    .fil1 {fill:#B38E85}
    .fil2 {fill:#FFD3B3}
    .fil0 {fill:#333333;fill-rule:nonzero}
   ]]>
  </style>
 </defs>
 <g id="Layer_x0020_1">
  <metadata id="CorelCorpID_0Corel-Layer"/>
  <g id="_267705968">
   <g>
    <path id="_267690896" class="fil0" d="M2.52837 2.11488l1.77146 0c0.0395315,0 0.0723661,0.0286772 0.0788386,0.0663622l0.106469 0.431594 0.000185039 -4.72441e-005c0.0105787,0.0428976 -0.0156142,0.0862559 -0.0585118,0.0968346 -0.00887795,0.00218898 -0.0177717,0.00279921 -0.0263937,0.00201575l-1.9815 0.000338583 0 0.000311024c-0.0441811,3.93701e-006 -0.0800079,-0.0358071 -0.0800118,-0.0799882 0,-0.00861024 0.00136614,-0.0169016 0.00388189,-0.0246732l0.106528 -0.431811 0.0775 0.019063 -0.0776732 -0.0191614c0.00912598,-0.0370079 0.0426496,-0.0615787 0.0792283,-0.0608386zm1.70899 0.16l-1.64808 0 -0.0685118 0.277705 1.78502 -0.000307087 -0.0684291 -0.277398z"/>
    <path id="_267690560" class="fil0" d="M4.53168 3.05689c0.00345276,-0.0440079 -0.0294291,-0.0824882 -0.073437,-0.0859409 -0.0440079,-0.00345276 -0.0824882,0.0294291 -0.0859409,0.073437l-0.202457 2.58138c-0.00422835,0.0539252 -0.0263543,0.102626 -0.0607874,0.137059 -0.0311929,0.0311929 -0.0730236,0.0505079 -0.120839,0.0505079l-1.14979 0c-0.047815,0 -0.0896457,-0.019315 -0.120839,-0.0505079 -0.0344331,-0.0344331 -0.0565591,-0.0831339 -0.0607874,-0.137059l-0.202492 -2.58177c-0.00345276,-0.0440079 -0.0419331,-0.0768898 -0.0859409,-0.073437 -0.0440079,0.00345276 -0.0768898,0.0419331 -0.073437,0.0859409l0.202492 2.58177c0.00724016,0.0923701 0.0462008,0.176843 0.107039,0.237681 0.0601417,0.0601417 0.141106,0.0973819 0.233965,0.0973819l1.14979 0c0.0928583,0 0.173823,-0.0372402 0.233965,-0.0973819 0.0608386,-0.0608386 0.0997992,-0.145311 0.107039,-0.237681l0.202457 -2.58138z"/>
    <g>
     <path id="_267690704" class="fil0" d="M2.42019 3.51376c-0.0441811,0 -0.08,0.0358189 -0.08,0.08 0,0.0441811 0.0358189,0.08 0.08,0.08l1.98628 0c0.0441811,0 0.08,-0.0358189 0.08,-0.08 0,-0.0441811 -0.0358189,-0.08 -0.08,-0.08l-1.98628 0z"/>
     <path id="_267690848" class="fil0" d="M4.28243 5.28346c0.0441811,0 0.08,-0.0358189 0.08,-0.08 0,-0.0441811 -0.0358189,-0.08 -0.08,-0.08l-1.7382 0c-0.0441811,0 -0.08,0.0358189 -0.08,0.08 0,0.0441811 0.0358189,0.08 0.08,0.08l1.7382 0z"/>
    </g>
    <path id="_267691088" class="fil0" d="M2.28468 2.55212l2.25878 0c0.0395551,0 0.0724016,0.0287126 0.0788504,0.0664291l0.10139 0.412614 -0.0775 0.019063 0.077689 -0.0190906c0.0105433,0.0429055 -0.0156929,0.0862362 -0.0585984,0.0967795 -0.00692913,0.00170079 -0.0138622,0.00244094 -0.0206732,0.00231102l-2.46415 0c-0.0441811,0 -0.08,-0.0358189 -0.08,-0.08 0,-0.00857874 0.00135827,-0.0168346 0.00385827,-0.0245827l0.101374 -0.412567 -0.000185039 -4.72441e-005c0.00909449,-0.0370157 0.0425906,-0.061622 0.0791693,-0.0609094zm2.19625 0.16l-2.1352 0 -0.0634213 0.258106 2.26205 0 -0.0634252 -0.258106z"/>
    <g>
     <path id="_267690128" class="fil0" d="M3.41331 3.83953c0.119843,0 0.226209,0.0667638 0.301283,0.174693 0.069189,0.0994606 0.111988,0.235449 0.111988,0.384386 0,0.148937 -0.0427992,0.284925 -0.111988,0.384386 -0.0750748,0.107929 -0.181441,0.174693 -0.301283,0.174693 -0.119831,0 -0.226201,-0.0667638 -0.301283,-0.174693 -0.069185,-0.0994606 -0.111984,-0.235449 -0.111984,-0.384386 0,-0.148937 0.0427992,-0.284925 0.111984,-0.384386 0.0750827,-0.107929 0.181453,-0.174693 0.301283,-0.174693zm0.170031 0.265945c-0.0455315,-0.0654567 -0.105811,-0.105945 -0.170031,-0.105945 -0.0642165,0 -0.124496,0.0404882 -0.170031,0.105945 -0.0514213,0.0739252 -0.0832362,0.17748 -0.0832362,0.293134 0,0.115654 0.031815,0.219209 0.0832362,0.293134 0.0455354,0.0654567 0.105815,0.105945 0.170031,0.105945 0.0642205,0 0.1245,-0.0404882 0.170031,-0.105945 0.0514252,-0.0739252 0.0832402,-0.17748 0.0832402,-0.293134 0,-0.115654 -0.031815,-0.219209 -0.0832402,-0.293134z"/>
     <path id="_267689936" class="fil0" d="M3.33854 4.8305c-0.0260591,0.0355512 -0.0183661,0.0855039 0.017185,0.111563 0.0355512,0.0260591 0.0855039,0.0183661 0.111563,-0.017185 0.129398,-0.176362 0.078811,-0.348543 0.0252047,-0.531024 -0.0420118,-0.143 -0.0863071,-0.293803 -0.0173898,-0.440571 0.0186378,-0.0398661 0.00142913,-0.0873031 -0.038437,-0.105941 -0.0398661,-0.0186378 -0.0873031,-0.00142913 -0.105941,0.038437 -0.0946339,0.201528 -0.041626,0.381965 0.00864173,0.553075 0.0421496,0.143476 0.0819213,0.278862 -0.000826772,0.391646z"/>
    </g>
   </g>
   <g>
    <path id="_267690488" class="fil0" d="M2.92991 1.80641c-0.0245039,0.0367598 -0.0145709,0.0864331 0.022189,0.110937 0.0367598,0.0245039 0.0864331,0.0145709 0.110937,-0.022189 0.116992,-0.175488 0.0639646,-0.321185 0.012622,-0.462256 -0.0347598,-0.0955039 -0.0684567,-0.188083 -0.012622,-0.27202 0.0243346,-0.0367598 0.0142598,-0.0862913 -0.0225,-0.110626 -0.0367598,-0.0243346 -0.0862913,-0.0142598 -0.110626,0.0225 -0.100264,0.150732 -0.0530079,0.280575 -0.00425197,0.414524 0.0377008,0.103583 0.0766339,0.210559 0.00425197,0.31913z"/>
    <path id="_267689912" class="fil0" d="M3.34121 1.62292c-0.0245039,0.0367598 -0.0145709,0.0864331 0.022189,0.110937 0.0367598,0.0245039 0.0864331,0.0145709 0.110937,-0.022189 0.116992,-0.175484 0.0639646,-0.321181 0.012622,-0.462252 -0.0347598,-0.0955039 -0.0684567,-0.188087 -0.012622,-0.27202 0.0243346,-0.0367598 0.0142598,-0.0862913 -0.0225,-0.110626 -0.0367598,-0.0243346 -0.0862913,-0.0142598 -0.110626,0.0225 -0.100264,0.150728 -0.0530079,0.280575 -0.00425197,0.414524 0.0376969,0.103579 0.0766299,0.210559 0.00425197,0.319126z"/>
    <path id="_267690512" class="fil0" d="M3.75251 1.80641c-0.0245039,0.0367598 -0.0145709,0.0864331 0.022189,0.110937 0.0367598,0.0245039 0.0864331,0.0145709 0.110937,-0.022189 0.116992,-0.175488 0.0639646,-0.321185 0.012622,-0.462256 -0.0347598,-0.0955039 -0.0684567,-0.188083 -0.012622,-0.27202 0.0243346,-0.0367598 0.0142598,-0.0862913 -0.0225,-0.110626 -0.0367598,-0.0243346 -0.0862913,-0.0142598 -0.110626,0.0225 -0.10026,0.150728 -0.0530079,0.280575 -0.00425197,0.414524 0.0376969,0.103579 0.0766339,0.210559 0.00425197,0.31913z"/>
   </g>
  </g>
  <path class="fil1" d="M4.19669 5.28346l-1.56673 0 0.0268465 0.342307c0.00422835,0.0539252 0.0263543,0.102626 0.0607874,0.137059 0.0311929,0.0311929 0.0730236,0.0505079 0.120839,0.0505079l1.14979 0c0.047815,0 0.0896457,-0.019315 0.120839,-0.0505079 0.0344331,-0.0344331 0.0565591,-0.0831339 0.0607874,-0.137059l0.0268465 -0.342307z"/>
  <path class="fil2" d="M2.61741 5.12346l1.59183 0 0.113697 -1.44969 -1.81923 0 0.113701 1.44969zm1.09719 -1.10923c0.069189,0.0994606 0.111988,0.235449 0.111988,0.384386 0,0.148937 -0.0427992,0.284925 -0.111988,0.384386 -0.0750748,0.107929 -0.181441,0.174693 -0.301283,0.174693 -0.00359449,0 -0.00717323,-5.90551e-005 -0.0107402,-0.000181102 -0.00212992,-3.93701e-006 -0.00425984,-9.84252e-005 -0.00638583,-0.000275591 -0.112823,-0.00603543 -0.212673,-0.0714764 -0.284157,-0.174236 -0.069185,-0.0994606 -0.111984,-0.235449 -0.111984,-0.384386 0,-0.148937 0.0427992,-0.284925 0.111984,-0.384386 0.0750827,-0.107929 0.181453,-0.174693 0.301283,-0.174693 0.119843,0 0.226209,0.0667638 0.301283,0.174693z"/>
  <polygon class="fil2" points="2.49116,3.51376 4.33549,3.51376 4.36557,3.13022 2.46108,3.13022 "/>
  <path class="fil1" d="M2.28231 2.97022l2.26205 0 -0.0634252 -0.258106 -2.06201 0 0 0.000173228c-0.0017874,0 -0.00355906,-5.90551e-005 -0.00531496,-0.000173228l-0.067878 0 -0.0634213 0.258106z"/>
  <polygon class="fil1" points="2.52089,2.55212 4.30576,2.55212 4.23737,2.27488 2.58929,2.27488 "/>
  <path class="fil1" d="M3.58334 4.10548c-0.0354528,-0.0509646 -0.0798425,-0.0867953 -0.128075,-0.100161 -0.0386772,0.130165 0.000161417,0.26239 0.0372244,0.388539 0.0345236,0.117516 0.0677913,0.23076 0.0525472,0.343598 0.0136378,-0.0133661 0.0264685,-0.0286929 0.0383031,-0.0457087 0.0514252,-0.0739252 0.0832402,-0.17748 0.0832402,-0.293134 0,-0.115654 -0.031815,-0.219209 -0.0832402,-0.293134z"/>
  <path class="fil1" d="M3.33937 4.43885c-0.0353622,-0.120374 -0.0720827,-0.245366 -0.0577992,-0.379067 -0.0136299,0.0133622 -0.0264567,0.028685 -0.0382874,0.045689 -0.0514213,0.0739252 -0.0832362,0.17748 -0.0832362,0.293134 0,0.115654 0.031815,0.219209 0.0832362,0.293134 0.0334094,0.0480236 0.074752,0.0826102 0.119768,0.097622 0.0487559,-0.103937 0.0134606,-0.224083 -0.0236811,-0.350512z"/>
 </g>
 <rect class="fil3" width="6.82666" height="6.82666"/>
</svg>
