<svg xmlns="http://www.w3.org/2000/svg" viewBox="0 0 512 512"><title>Artboard 137</title><g id="Forbidden_Access" data-name="Forbidden Access"><path d="M256,42.66667C138.17969,42.66667,42.66667,138.17839,42.66667,256c0,117.82031,95.513,213.33333,213.33333,213.33333S469.33333,373.82031,469.33333,256C469.33333,138.17839,373.82031,42.66667,256,42.66667Zm0,362.66666A149.33333,149.33333,0,1,1,405.33333,256,149.33342,149.33342,0,0,1,256,405.33333Z" style="fill:#fa4659"/><path d="M138.66667,426.66667a10.66667,10.66667,0,0,1-7.54167-18.20834L152.45833,387.125a10.66553,10.66553,0,1,1,15.08334,15.08333l-21.33334,21.33334A10.63211,10.63211,0,0,1,138.66667,426.66667Z" style="fill:#cb0025"/><path d="M394.66667,170.66667a10.66667,10.66667,0,0,1-7.54167-18.20834L408.45833,131.125a10.66553,10.66553,0,1,1,15.08334,15.08333l-21.33334,21.33334A10.63211,10.63211,0,0,1,394.66667,170.66667Z" style="fill:#cb0025"/><rect x="44.81077" y="225.83011" width="422.37845" height="60.33978" transform="translate(-106.03867 256) rotate(-45)" style="fill:#fa4659"/></g></svg>