<?xml version="1.0" encoding="utf-8"?>
<!-- Generator: Adobe Illustrator 24.3.0, SVG Export Plug-In . SVG Version: 6.00 Build 0)  -->
<svg version="1.1" id="Layer_1" xmlns="http://www.w3.org/2000/svg" xmlns:xlink="http://www.w3.org/1999/xlink" x="0px" y="0px"
	 viewBox="0 0 300 300" enable-background="new 0 0 300 300" xml:space="preserve">
<g>
	<g>
		<g>
			<rect x="112.29" y="242.847" fill="#FFDA88" width="52.268" height="13.934"/>
		</g>
		<g>
			<path fill="#F4F4F4" d="M207.975,107.978h-17.722v13.996h17.722c7.146,0,12.974,5.761,13.14,12.9c0,0-5.533,54.224-5.569,54.446
				c-1.093,7.615-5.894,13.205-13.14,13.205h-12.153v10.751c0,1.098-0.059,2.176-0.154,3.242h12.307
				c14.805,0,26.87-12,27.065-26.829l5.539-53.828c0.023-0.227,0.035-0.455,0.035-0.679
				C235.045,120.182,222.904,107.978,207.975,107.978z"/>
		</g>
		<g>
			<path fill="#F4F4F4" d="M64.955,91.653l20.513,23.731v97.892c0,16.332,10.571,29.572,26.823,29.572h51.134
				c16.252,0,26.829-13.24,26.829-29.572V91.653H64.955z"/>
		</g>
		<g>
			<path fill="#F9F9F9" d="M97.562,213.275v-97.892L77.049,91.653H64.955l20.513,23.731v97.892
				c0,16.332,10.571,29.572,26.823,29.572h12.094C108.133,242.847,97.562,229.607,97.562,213.275z"/>
		</g>
		<g>
			<path fill="#FFDA88" d="M137.007,50.031c-29.002,0-52.514,13.686-52.514,29.994v11.628h105.76V80.025
				C190.253,63.717,166.011,50.031,137.007,50.031z"/>
		</g>
		<g>
			<path fill="#9AE8CE" d="M137.007,50.028c2.778,0,5.489,0.16,8.153,0.393l2.037-10.296c0-5.625-4.562-10.187-10.19-10.187
				c-5.625,0-10.19,4.562-10.19,10.187l2.037,10.296C131.518,50.188,134.229,50.028,137.007,50.028z"/>
		</g>
		<g>
			<path fill="#AEF4DB" d="M133.243,40.125c0-4.494,2.935-8.267,6.977-9.62c-1.016-0.34-2.082-0.567-3.213-0.567
				c-5.625,0-10.19,4.562-10.19,10.187l2.037,10.296c2.082-0.183,4.208-0.292,6.357-0.346L133.243,40.125z"/>
		</g>
		<g>
			<path fill="#9AE8CE" d="M174.993,223.536c0,3.874-3.148,7.016-7.022,7.016h-59.094c-3.877,0-7.016-3.142-7.016-7.016l0,0
				c0-3.874,3.139-7.019,7.016-7.019h59.094C171.845,216.518,174.993,219.662,174.993,223.536L174.993,223.536z"/>
		</g>
		<g>
			<path fill="#AEF4DB" d="M108.549,223.536c0-3.874,3.139-7.019,7.016-7.019h-6.688c-3.877,0-7.016,3.145-7.016,7.019
				c0,3.874,3.139,7.016,7.016,7.016h6.688C111.688,230.552,108.549,227.41,108.549,223.536z"/>
		</g>
		<g>
			<rect x="133.822" y="91.653" fill="#9AE8CE" width="9.209" height="124.865"/>
		</g>
		<g>
			<rect x="133.822" y="91.653" fill="#AEF4DB" width="4.606" height="124.865"/>
		</g>
		<g>
			<polygon fill="#F4F4F4" points="115.99,270.062 102.936,270.062 112.29,256.781 125.347,256.781 			"/>
		</g>
		<g>
			<polygon fill="#F4F4F4" points="160.832,270.062 173.883,270.062 164.558,256.781 151.471,256.781 			"/>
		</g>
		<g>
			<path fill="#FFE2A9" d="M137.007,50.031c-29.002,0-52.514,13.686-52.514,29.994v11.628H95.4V80.025h0.053
				c0-15.268,20.61-28.234,47.04-29.825C140.687,50.09,138.859,50.031,137.007,50.031z"/>
		</g>
		<g>
			<rect x="112.29" y="242.847" fill="#FFE2A9" width="13.057" height="13.934"/>
		</g>
	</g>
	<g>
		<g>
			<path fill="#161616" d="M164.558,261.316h-52.266c-2.505,0-4.535-2.032-4.535-4.535v-13.934c0-2.504,2.03-4.535,4.535-4.535
				h52.266c2.504,0,4.535,2.031,4.535,4.535v13.934C169.093,259.285,167.062,261.316,164.558,261.316z M116.827,252.245h43.195
				v-4.863h-43.195V252.245z"/>
		</g>
		<g>
			<path fill="#161616" d="M202.409,221.053h-12.31c-1.273,0-2.486-0.534-3.345-1.473c-0.859-0.939-1.284-2.194-1.172-3.464
				c0.083-0.933,0.136-1.878,0.136-2.841v-10.751c0-2.504,2.032-4.535,4.535-4.535h12.156c6.782,0,8.336-7.131,8.652-9.316
				c0.08-0.759,3.623-35.447,5.51-53.949c-0.236-4.553-4.039-8.214-8.592-8.214h-17.725c-2.504,0-4.535-2.031-4.535-4.535v-13.996
				c0-2.504,2.032-4.535,4.535-4.535h17.725c17.427,0,31.603,14.238,31.603,31.739c0,0.378-0.021,0.765-0.059,1.149l-5.519,53.63
				C233.664,207.125,219.535,221.053,202.409,221.053z M194.788,211.982h7.621c12.26,0,22.364-10.027,22.526-22.352
				c0.003-0.136,0.009-0.272,0.024-0.405l5.539-53.828c0.012-12.714-10.095-22.884-22.521-22.884h-13.19v4.925h13.19
				c9.525,0,17.454,7.775,17.672,17.333c0.003,0.189-0.003,0.378-0.024,0.564c-5.542,54.324-5.572,54.507-5.59,54.643
				c-1.494,10.373-8.412,17.082-17.628,17.082h-7.621V211.982z"/>
		</g>
		<g>
			<path fill="#161616" d="M163.427,247.382h-51.135c-18.171,0-31.359-14.344-31.359-34.107v-6.292c0-2.504,2.03-4.535,4.535-4.535
				c2.505,0,4.535,2.031,4.535,4.535v6.292c0,14.507,9.373,25.036,22.289,25.036h51.135c12.915,0,22.29-10.529,22.29-25.036V96.188
				H74.87l14.028,16.231c0.713,0.824,1.104,1.875,1.104,2.965v70.676c0,2.504-2.03,4.535-4.535,4.535
				c-2.505,0-4.535-2.031-4.535-4.535v-68.988L61.524,94.617c-1.16-1.341-1.432-3.236-0.694-4.851
				c0.738-1.612,2.35-2.649,4.125-2.649h125.298c2.504,0,4.535,2.031,4.535,4.535v121.623
				C194.788,233.038,181.598,247.382,163.427,247.382z"/>
		</g>
		<g>
			<path fill="#161616" d="M190.253,96.188H84.493c-2.505,0-4.535-2.032-4.535-4.535V80.025c0-2.505,2.03-4.535,4.535-4.535h105.759
				c2.504,0,4.535,2.03,4.535,4.535v11.628C194.788,94.157,192.756,96.188,190.253,96.188z M89.029,87.117h96.688V84.56H89.029
				V87.117z"/>
		</g>
		<g>
			<path fill="#161616" d="M190.253,84.56H84.493c-2.505,0-4.535-2.032-4.535-4.535c0-19.039,25.593-34.529,57.05-34.529
				c8.615,0,16.941,1.119,24.751,3.328c2.409,0.681,3.812,3.188,3.13,5.598c-0.682,2.412-3.192,3.807-5.598,3.13
				c-7.007-1.981-14.504-2.985-22.283-2.985c-22.661,0-42.853,9.351-47.142,20.923h94.844c-1.379-3.263-4.128-6.636-7.907-9.585
				c-1.975-1.541-2.327-4.391-0.785-6.366c1.538-1.972,4.385-2.328,6.366-0.785c7.884,6.151,12.404,13.904,12.404,21.272
				C194.788,82.529,192.756,84.56,190.253,84.56z"/>
		</g>
		<g>
			<path fill="#161616" d="M145.166,54.956c-0.133,0-0.266-0.006-0.4-0.018c-5.849-0.512-9.664-0.512-15.517,0
				c-2.288,0.207-4.395-1.366-4.845-3.639l-2.034-10.296c-0.056-0.289-0.086-0.583-0.086-0.878c0-8.118,6.605-14.722,14.724-14.722
				c8.119,0,14.724,6.604,14.724,14.722c0,0.295-0.03,0.589-0.086,0.878l-2.035,10.296C149.189,53.44,147.31,54.956,145.166,54.956z
				 M131.368,39.745l1.159,5.868c3.124-0.162,5.84-0.162,8.962,0l1.159-5.868c-0.195-2.941-2.65-5.272-5.64-5.272
				C134.018,34.473,131.563,36.804,131.368,39.745z"/>
		</g>
		<g>
			<path fill="#161616" d="M167.974,235.087h-59.099c-6.369,0-11.551-5.182-11.551-11.551c0-6.372,5.182-11.554,11.551-11.554
				h59.099c6.372,0,11.554,5.182,11.554,11.554C179.528,229.905,174.346,235.087,167.974,235.087z M108.875,221.053
				c-1.367,0-2.48,1.113-2.48,2.483c0,1.367,1.113,2.48,2.48,2.48h59.099c1.37,0,2.483-1.113,2.483-2.48
				c0-1.37-1.113-2.483-2.483-2.483H108.875z"/>
		</g>
		<g>
			<rect x="133.82" y="91.653" fill="#161616" width="9.211" height="124.865"/>
		</g>
		<g>
			<path fill="#161616" d="M115.99,274.598h-13.054c-1.693,0-3.246-0.945-4.026-2.448c-0.779-1.503-0.657-3.316,0.319-4.701
				l9.356-13.281c0.849-1.205,2.232-1.922,3.707-1.922h13.054c1.693,0,3.247,0.945,4.026,2.448c0.779,1.503,0.657,3.316-0.319,4.701
				l-9.356,13.281C118.848,273.88,117.465,274.598,115.99,274.598z M111.679,265.527h1.958l2.966-4.211h-1.958L111.679,265.527z"/>
		</g>
		<g>
			<path fill="#161616" d="M173.883,274.598h-13.051c-1.476,0-2.858-0.717-3.709-1.922l-9.356-13.281
				c-0.976-1.385-1.098-3.198-0.319-4.701c0.781-1.503,2.331-2.448,4.026-2.448h13.084c1.476,0,2.864,0.721,3.712,1.928
				l9.325,13.281c0.972,1.385,1.093,3.198,0.313,4.698C177.128,273.656,175.575,274.598,173.883,274.598z M163.185,265.527h1.973
				l-2.956-4.211h-1.984L163.185,265.527z"/>
		</g>
	</g>
</g>
</svg>
