<?xml version="1.0" encoding="utf-8"?>
<!-- Generator: Adobe Illustrator 24.3.0, SVG Export Plug-In . SVG Version: 6.00 Build 0)  -->
<svg version="1.1" id="Layer_1" xmlns="http://www.w3.org/2000/svg" xmlns:xlink="http://www.w3.org/1999/xlink" x="0px" y="0px"
	 viewBox="0 0 300 300" enable-background="new 0 0 300 300" xml:space="preserve">
<g>
	<g>
		<g>
			<path fill="#AA6148" d="M116.074,66.108c3.056-1.38,6.062-3.432,8.752-6.122c8.74-8.736,10.81-20.823,4.636-27
				c-6.177-6.174-18.262-4.1-26.997,4.636c-7.955,7.95-10.358,18.666-6.077,25.185C99.604,63.496,106.776,64.92,116.074,66.108z"/>
		</g>
		<g>
			<path fill="#AA6148" d="M159.689,67.286c2.731-4.02,4.42-9.47,4.42-15.484c0.006-12.358-7.081-22.367-15.812-22.37
				c-8.734,0.003-15.815,10.014-15.815,22.369c0,6.32,1.86,12.016,4.842,16.083C144.594,68.147,152.209,68.036,159.689,67.286z"/>
		</g>
		<g>
			<path fill="#AA6148" d="M172.453,65.278c2.708-0.597,5.362-1.292,7.922-2.129c6.951-2.274,13.364-4.082,19.252-5.48
				c0.009-4.152-1.048-8.7-3.287-13.075c-5.628-11.002-16.497-16.681-24.271-12.704c-7.771,3.983-9.511,16.121-3.88,27.118
				C169.394,61.362,170.85,63.454,172.453,65.278z"/>
		</g>
		<g>
			<path fill="#FFDA88" d="M94.51,62.391c0,0,51.076,12.136,85.865,0.759c50.565-16.535,73.62-9.326,60.058,12.831
				c-13.562,22.159-44.471,22.713-29.557,53.452c14.92,30.741,81.566,132.594-62.586,142.172c0,0-162.234,5.777-57.153-145.295
				c10.423-14.982,3.697-14.269-12.059-33.672C63.326,73.237,68.234,50.683,94.51,62.391z"/>
		</g>
		<g>
			<g>
				<path fill="#FFE2A9" d="M200.23,63.15c13.119-4.291,24.366-6.969,33.623-8.216c-10.485-2.284-28.659,0.1-53.477,8.216
					c-8.232,2.693-17.377,4.057-26.542,4.589C168.939,68.525,185.953,67.818,200.23,63.15z"/>
			</g>
			<g>
				<path fill="#FFE2A9" d="M110.992,126.31c10.423-14.982,3.697-14.269-12.059-33.672C89.24,80.701,87.382,67.579,93.5,61.971
					C68.125,51.299,63.533,73.493,79.079,92.638c15.756,19.402,22.482,18.689,12.059,33.672
					c-105.082,151.072,57.153,145.295,57.153,145.295c1.964-0.13,3.871-0.285,5.755-0.451
					C117.004,268.32,25.469,249.26,110.992,126.31z"/>
			</g>
		</g>
		<g>
			<path fill="#AA6148" d="M170.688,204.392c-17.492,17.493-41.704,21.648-54.073,9.282c-12.357-12.37-8.211-36.58,9.289-54.072
				c17.495-17.495,41.696-21.65,54.067-9.283C192.337,162.687,188.191,186.897,170.688,204.392z"/>
		</g>
		<g>
			<path fill="#BC715C" d="M133.843,167.539c15.573-15.577,36.449-20.542,49.57-12.725c-0.962-1.618-2.085-3.139-3.443-4.495
				c-12.366-12.366-36.572-8.212-54.064,9.283c-17.504,17.492-21.649,41.701-9.289,54.072c1.358,1.357,2.876,2.48,4.494,3.443
				C113.298,203.989,118.259,183.113,133.843,167.539z"/>
		</g>
		<g>
			<g>
				<path fill="#BC715C" d="M121.849,214.782c-0.762,0-1.527-0.009-2.297-0.024c-2.504-0.046-4.5-2.113-4.453-4.617
					c0.047-2.476,2.067-4.453,4.535-4.453c0.027,0,0.053,0,0.083,0.001c12.915,0.23,23.105,0.421,25.913-25.429
					c3.614-33.246,31.591-30.822,31.874-30.794c2.492,0.251,4.308,2.476,4.06,4.968c-0.251,2.485-2.474,4.326-4.943,4.06
					c-2.002-0.167-19.394-0.988-21.974,22.746C151.386,211.261,137.475,214.782,121.849,214.782z"/>
			</g>
		</g>
		<g>
			<path fill="#BC715C" d="M180.337,55.468c4.524,2.273,4.488,3.438,2.941,6.759c3.464-1.092,6.797-2.077,9.986-2.942
				c0.089-3.93-1.754-8.353-8.852-11.922c-7.63-3.834-6.431-8.389-5.873-9.713c1.028-2.249,0.062-4.912-2.176-5.978
				c-2.265-1.078-4.969-0.114-6.044,2.147C168.113,38.456,167.369,48.948,180.337,55.468z"/>
		</g>
		<g>
			<path fill="#BC715C" d="M145.542,66.331c-0.526,0.478-0.874,1.062-1.122,1.68c3.635-0.003,7.311-0.115,10.978-0.368
				c1.969-4.616,2.238-11.113-3.183-18.438c-5.185-7.008-1.908-10.68-0.759-11.65c1.928-1.549,2.262-4.364,0.738-6.323
				c-1.542-1.975-4.388-2.336-6.363-0.793c-4.125,3.208-9.62,12.388-0.91,24.161C150.098,61.596,146.348,65.6,145.542,66.331z"/>
		</g>
		<g>
			<path fill="#BC715C" d="M110.927,65.399c1.095-0.437,2.161-1.052,3.157-1.924c3.091-2.708,4.736-7.113,5.176-13.864
				c0.207-3.193,1.078-5.452,2.586-6.713c1.881-1.569,4.462-1.337,4.603-1.318c2.457,0.319,4.724-1.389,5.079-3.85
				c0.357-2.479-1.361-4.779-3.842-5.137c-0.661-0.093-6.543-0.806-11.498,3.214c-3.588,2.91-5.601,7.357-5.982,13.216
				c-0.36,5.539-1.585,7.178-2.096,7.625c-0.963,0.841-3.313,0.682-5.808,0.509l-1.025-0.068c-2.551-0.139-4.654,1.745-4.81,4.245
				c-0.033,0.533,0.044,1.044,0.183,1.528C99.329,63.432,104.381,64.429,110.927,65.399z"/>
		</g>
	</g>
	<g>
		<g>
			<path fill="#161616" d="M116.072,70.644c-0.192,0-0.384-0.012-0.574-0.037c-9.407-1.202-16.608-2.625-20.062-3.365
				c-1.166-0.251-2.187-0.949-2.841-1.946c-5.564-8.474-2.764-21.462,6.661-30.883c10.665-10.665,25.34-12.703,33.41-4.636
				c3.999,4.001,5.653,10.02,4.538,16.516c-1.032,6.016-4.29,12.018-9.174,16.9c-3.013,3.013-6.409,5.384-10.091,7.048
				C117.351,70.508,116.715,70.644,116.072,70.644z M99.413,58.803c3.301,0.663,8.942,1.705,15.902,2.632
				c2.248-1.168,4.407-2.762,6.303-4.656c3.517-3.517,5.939-7.897,6.647-12.019c0.359-2.089,0.574-5.981-2.012-8.567
				c-4.32-4.32-13.749-2.198-20.582,4.636C100.091,46.405,97.581,53.906,99.413,58.803z"/>
		</g>
		<g>
			<path fill="#161616" d="M144.281,72.548c-2.33,0-4.705-0.044-7.122-0.131c-1.386-0.05-2.674-0.732-3.493-1.851
				c-3.689-5.03-5.721-11.694-5.721-18.765c0-15.083,8.938-26.899,20.347-26.904c5.659,0.002,11.083,3.089,14.889,8.468
				c3.525,4.986,5.465,11.533,5.463,18.438c0,6.691-1.848,13.095-5.209,18.034c-0.756,1.109-1.961,1.828-3.298,1.962
				C155.171,72.297,149.859,72.548,144.281,72.548z M159.686,67.286h0.03H159.686z M139.842,63.423
				c6.056,0.146,11.806-0.004,17.148-0.444c1.674-3.183,2.584-7.075,2.584-11.176c0.003-4.974-1.382-9.784-3.797-13.199
				c-1.225-1.73-3.824-4.634-7.484-4.636c-6.111,0.002-11.276,8.169-11.276,17.833C137.016,56.059,138.03,60.178,139.842,63.423z"/>
		</g>
		<g>
			<path fill="#161616" d="M172.453,69.814c-1.287,0-2.533-0.549-3.404-1.538c-1.919-2.181-3.567-4.603-4.896-7.2
				c-6.877-13.423-4.308-28.015,5.846-33.221c5.037-2.579,11.273-2.3,17.111,0.753c5.412,2.83,10.122,7.775,13.267,13.922
				c2.489,4.863,3.797,10.103,3.782,15.153c-0.006,2.096-1.447,3.915-3.487,4.4c-5.926,1.407-12.283,3.217-18.889,5.378
				c-2.554,0.836-5.285,1.571-8.353,2.247C173.106,69.778,172.778,69.814,172.453,69.814z M177.464,35.155
				c-1.098,0-2.235,0.214-3.328,0.774c-5.442,2.787-6.316,12.41-1.91,21.012c0.582,1.138,1.246,2.229,1.984,3.266
				c1.689-0.427,3.26-0.878,4.751-1.367c5.471-1.789,10.786-3.348,15.85-4.651c-0.408-2.525-1.255-5.077-2.507-7.528
				c-2.265-4.426-5.69-8.077-9.398-10.016C181.66,35.992,179.634,35.155,177.464,35.155z"/>
		</g>
		<g>
			<path fill="#161616" d="M180.337,55.468c4.524,2.273,4.488,3.438,2.941,6.759c3.461-1.092,6.797-2.077,9.986-2.942
				c0.089-3.93-1.754-8.353-8.852-11.922c-7.63-3.834-6.431-8.389-5.876-9.713c1.027-2.249,0.065-4.912-2.173-5.978
				c-2.268-1.078-4.972-0.114-6.047,2.147C168.113,38.456,167.369,48.948,180.337,55.468z"/>
		</g>
		<g>
			<path fill="#161616" d="M145.541,66.331c-0.526,0.478-0.874,1.062-1.122,1.68c3.635-0.003,7.312-0.115,10.98-0.368
				c1.966-4.616,2.238-11.113-3.183-18.438c-5.186-7.008-1.908-10.68-0.762-11.65c1.931-1.549,2.262-4.364,0.738-6.323
				c-1.541-1.975-4.386-2.336-6.362-0.793c-4.125,3.208-9.62,12.388-0.91,24.161C150.095,61.596,146.347,65.6,145.541,66.331z"/>
		</g>
		<g>
			<path fill="#161616" d="M110.926,65.399c1.095-0.437,2.161-1.052,3.157-1.924c3.091-2.708,4.736-7.113,5.176-13.864
				c0.206-3.193,1.078-5.452,2.587-6.713c1.881-1.569,4.461-1.337,4.603-1.318c2.457,0.319,4.724-1.389,5.079-3.85
				c0.357-2.479-1.361-4.779-3.841-5.137c-0.662-0.093-6.543-0.806-11.498,3.214c-3.588,2.91-5.602,7.357-5.982,13.216
				c-0.36,5.539-1.586,7.178-2.096,7.625c-0.963,0.841-3.313,0.682-5.808,0.509l-1.025-0.068c-2.551-0.139-4.653,1.745-4.81,4.245
				c-0.032,0.533,0.044,1.044,0.183,1.528C99.328,63.432,104.38,64.429,110.926,65.399z"/>
		</g>
		<g>
			<path fill="#161616" d="M135.057,225.251c-8.479,0-16.212-2.721-21.863-8.37c-9.246-9.255-10.99-24.607-4.552-40.066
				c0.966-2.313,3.617-3.406,5.931-2.443c2.312,0.963,3.406,3.619,2.443,5.931c-4.999,12.003-4.005,23.561,2.592,30.165
				c10.58,10.574,31.963,6.415,47.66-9.283c7.807-7.804,12.983-17.222,14.578-26.518c1.497-8.721-0.384-16.228-5.297-21.141
				c-10.574-10.572-31.954-6.413-47.652,9.283c-0.224,0.226-0.434,0.458-0.644,0.689l-0.533,0.58
				c-1.718,1.822-4.589,1.909-6.412,0.193c-1.823-1.717-1.911-4.589-0.194-6.412l0.422-0.459c0.309-0.34,0.617-0.676,0.946-1.005
				c19.234-19.237,46.362-23.399,60.479-9.283c7.054,7.053,9.833,17.383,7.825,29.087c-1.91,11.132-7.984,22.283-17.105,31.401
				C162.145,219.135,147.766,225.25,135.057,225.251z"/>
		</g>
		<g>
			<path fill="#161616" d="M121.805,214.782c-0.763,0-1.528-0.009-2.299-0.024c-2.505-0.046-4.499-2.113-4.451-4.617
				c0.044-2.504,2.083-4.593,4.617-4.451c12.918,0.23,23.105,0.421,25.915-25.429c3.617-33.255,31.576-30.816,31.875-30.794
				c2.492,0.251,4.308,2.476,4.057,4.968c-0.248,2.483-2.465,4.302-4.943,4.06c-1.996-0.179-19.391-0.991-21.971,22.746
				C151.338,211.261,137.429,214.782,121.805,214.782z"/>
		</g>
		<g>
			<path fill="#161616" d="M145.643,276.173c-13.571,0-68.615-2.237-87.914-37.619c-14.637-26.834-4.648-65.471,29.688-114.833
				c5.908-8.494,5.908-8.494-2.222-17.259c-2.615-2.818-5.87-6.328-9.635-10.965c-10.156-12.505-12.89-26.926-6.652-35.065
				c2.458-3.207,9.983-9.805,27.038-2.365c4.73,1.064,51.42,11.107,83.022,0.772c20.395-6.667,56.229-15.816,67.009-2.17
				c2.982,3.772,5.111,10.596-1.674,21.68c-5.194,8.486-12.543,13.96-19.027,18.79c-11.465,8.536-18.384,13.689-10.317,30.314
				c1.202,2.479,2.749,5.429,4.494,8.758c14.77,28.196,45.502,86.866,1.574,119.174c-2.02,1.484-4.854,1.053-6.34-0.967
				c-1.485-2.018-1.051-4.857,0.965-6.341c37.653-27.691,10.403-79.71-4.237-107.656c-1.792-3.424-3.381-6.458-4.618-9.007
				c-11.341-23.378,1.621-33.032,13.06-41.549c6.109-4.55,12.428-9.257,16.709-16.25c1.831-2.993,4.568-8.445,2.294-11.319
				c-3.148-3.982-18.714-7.377-57.076,5.167c-35.597,11.64-86.184-0.149-88.32-0.657c-0.273-0.065-0.54-0.155-0.797-0.27
				C84.731,63,78.539,62.78,76.107,65.949c-3.069,4.004-1.478,14.012,6.494,23.83c3.576,4.405,6.719,7.792,9.243,10.515
				c9.316,10.042,12.71,14.674,3.018,28.606c-32.204,46.297-42.022,81.723-29.18,105.293c18.89,34.674,81.821,32.898,82.452,32.88
				c19.966-1.329,36.859-4.6,50.063-9.716c2.336-0.902,4.961,0.254,5.867,2.591c0.906,2.336-0.254,4.963-2.59,5.868
				c-14.064,5.448-31.857,8.917-52.88,10.314C148.281,276.142,147.253,276.173,145.643,276.173z"/>
		</g>
	</g>
</g>
</svg>
