<svg xmlns="http://www.w3.org/2000/svg" viewBox="0 0 512 512"><defs><style>.cls-1{fill:#06ccab;}.cls-2{fill:#505560;}.cls-3{fill:#636978;}.cls-4{fill:#595f6b;}.cls-5{fill:#b3f2d7;}.cls-6{fill:#a3d8bf;}.cls-7{fill:#8a4711;}.cls-8{fill:#70350e;}.cls-9{fill:#f9daa7;}.cls-10{fill:#23a8fe;}.cls-11{fill:none;stroke:#595f6b;stroke-linecap:round;stroke-miterlimit:10;stroke-width:10px;}.cls-12{fill:#f92814;}.cls-13{fill:#ffda45;}.cls-14{fill:#76d67b;}.cls-15{fill:#fff;}</style></defs><title>Development</title><g id="BULINE"><circle class="cls-1" cx="256" cy="256" r="256"/></g><g id="Icons"><rect class="cls-2" x="218.3" y="302.51" width="76" height="78.6"/><path class="cls-3" d="M456.57,88.15V289.24a29.64,29.64,0,0,1-29.64,29.63H85.67A29.64,29.64,0,0,1,56,289.24V88.15A29.64,29.64,0,0,1,85.67,58.52H426.93A29.64,29.64,0,0,1,456.57,88.15Z"/><path class="cls-4" d="M172.66,318.87h-87A29.64,29.64,0,0,1,56,289.24V88.15A29.64,29.64,0,0,1,85.67,58.52h87A29.64,29.64,0,0,0,143,88.15V289.24A29.64,29.64,0,0,0,172.66,318.87Z"/><rect class="cls-3" x="185.89" y="376.1" width="140.83" height="32" rx="16"/><path class="cls-5" d="M456.57,88.15V284.9H56V88.15A29.64,29.64,0,0,1,85.67,58.52H426.93A29.64,29.64,0,0,1,456.57,88.15Z"/><path class="cls-6" d="M172.66,58.52A29.64,29.64,0,0,0,143,88.15V284.9H56V88.15A29.64,29.64,0,0,1,85.67,58.52Z"/><path class="cls-7" d="M461.93,408.1a256,256,0,0,1-411.86,0Z"/><path class="cls-8" d="M428,445.64a256,256,0,0,1-343.94,0Z"/><path class="cls-9" d="M418.81,102.84V244.55a22.76,22.76,0,0,1-22.75,22.75H116.55a22.75,22.75,0,0,1-22.74-22.75V102.84A22.74,22.74,0,0,1,116.55,80.1H396.06A22.75,22.75,0,0,1,418.81,102.84Z"/><path class="cls-10" d="M418.81,102.84V116.1h-325V102.84A22.74,22.74,0,0,1,116.55,80.1H396.06A22.75,22.75,0,0,1,418.81,102.84Z"/><line class="cls-11" x1="152.03" y1="228.1" x2="262.41" y2="228.1"/><line class="cls-11" x1="152.03" y1="250.1" x2="218.3" y2="250.1"/><line class="cls-11" x1="235.48" y1="250.1" x2="268.62" y2="250.1"/><line class="cls-11" x1="289.66" y1="228.1" x2="351.16" y2="228.1"/><line class="cls-11" x1="289.66" y1="250.1" x2="351.16" y2="250.1"/><circle class="cls-12" cx="123.41" cy="98.1" r="9.06"/><circle class="cls-13" cx="152.03" cy="98.1" r="9.06"/><circle class="cls-14" cx="180.66" cy="98.1" r="9.06"/><circle class="cls-15" cx="256.31" cy="107.16" r="101.42"/><path class="cls-12" d="M302.2,108.11l16.64-16.64a33.13,33.13,0,0,0,0-46.84h0a33.13,33.13,0,0,0-46.84,0L255.36,61.27,240.61,46.52a33.12,33.12,0,0,0-46.83,46.84l14.75,14.75L195.66,121a33.13,33.13,0,0,0,0,46.84h0a33.13,33.13,0,0,0,46.84,0l12.86-12.87,14.76,14.75a33.1,33.1,0,0,0,46.83,0h0a33.12,33.12,0,0,0,0-46.83Z"/></g></svg>