<?xml version="1.0" encoding="iso-8859-1"?>
<!-- Generator: Adobe Illustrator 19.0.0, SVG Export Plug-In . SVG Version: 6.00 Build 0)  -->
<svg version="1.1" id="Layer_1" xmlns="http://www.w3.org/2000/svg" xmlns:xlink="http://www.w3.org/1999/xlink" x="0px" y="0px"
	 viewBox="0 0 511.999 511.999" style="enable-background:new 0 0 511.999 511.999;" xml:space="preserve">
<path style="fill:#C7BCB5;" d="M340.188,259.366h72.45c34.583,0,62.619,28.091,62.619,62.743l0,0
	c0,34.652-28.036,62.743-62.619,62.743h-72.45v-29.951h66.468c17.896,0,32.404-14.537,32.404-32.468l0,0
	c0-17.931-14.507-32.468-32.404-32.468h-66.468V259.366z"/>
<path style="fill:#F7E9E1;" d="M100.591,259.366h296.244v73.325c0,65.029-52.612,117.745-117.512,117.745h-61.22
	c-64.9,0-117.512-52.716-117.512-117.745L100.591,259.366L100.591,259.366z"/>
<path style="fill:#DED2CA;" d="M121.83,332.691v-73.326h-21.239v73.326c0,65.029,52.612,117.745,117.512,117.745h21.239
	C174.443,450.437,121.83,397.721,121.83,332.691z"/>
<path style="fill:#826B6B;" d="M14.492,450.698h483.018c3.675,0,6.655,2.985,6.655,6.668l0,0c0,15.746-12.739,28.511-28.454,28.511
	H36.29c-15.714,0-28.454-12.764-28.454-28.511l0,0C7.837,453.683,10.816,450.698,14.492,450.698z"/>
<path style="fill:#705B5B;" d="M28.735,457.365L28.735,457.365c0-3.682,2.979-6.668,6.655-6.668H14.492
	c-3.675,0-6.655,2.985-6.655,6.668l0,0c0,15.747,12.739,28.511,28.454,28.511h20.898C41.474,485.876,28.735,473.112,28.735,457.365z
	"/>
<g>
	<path style="fill:#F7E9E1;" d="M206.035,229.397c-8.656,0-15.673-7.026-15.673-15.691c0-16.011,10.123-24.339,16.173-29.315
		c4.725-3.888,4.725-4.282,4.725-5.067c0-0.785,0-1.18-4.726-5.067c-6.049-4.976-16.172-13.304-16.172-29.315
		s10.124-24.338,16.173-29.314c4.725-3.886,4.725-4.28,4.725-5.064c0-0.784,0-1.178-4.725-5.064
		c-6.049-4.976-16.173-13.303-16.173-29.314s10.124-24.338,16.173-29.313c4.725-3.886,4.725-4.28,4.725-5.064
		c0-8.666,7.018-15.691,15.673-15.691s15.673,7.026,15.673,15.691c0,16.011-10.124,24.338-16.173,29.313
		c-4.725,3.886-4.725,4.28-4.725,5.064c0,0.784,0,1.178,4.725,5.064c6.049,4.976,16.173,13.303,16.173,29.314
		s-10.124,24.338-16.173,29.313c-4.725,3.886-4.725,4.28-4.725,5.064c0,0.785,0,1.179,4.725,5.066
		c6.049,4.976,16.173,13.304,16.173,29.315s-10.123,24.339-16.173,29.315c-4.725,3.888-4.725,4.282-4.725,5.067
		C221.709,222.371,214.691,229.397,206.035,229.397z"/>
	<path style="fill:#F7E9E1;" d="M281.363,229.397c-8.656,0-15.673-7.026-15.673-15.691c0-16.011,10.123-24.339,16.173-29.315
		c4.725-3.888,4.725-4.282,4.725-5.067c0-0.785,0-1.18-4.726-5.067c-6.049-4.976-16.172-13.304-16.172-29.315
		s10.124-24.338,16.173-29.314c4.725-3.886,4.725-4.28,4.725-5.064c0-0.784,0-1.178-4.725-5.064
		c-6.049-4.976-16.173-13.303-16.173-29.314s10.124-24.338,16.173-29.313c4.725-3.886,4.725-4.28,4.725-5.064
		c0-8.666,7.018-15.691,15.673-15.691c8.656,0,15.673,7.026,15.673,15.691c0,16.011-10.124,24.338-16.173,29.313
		c-4.725,3.886-4.725,4.28-4.725,5.064c0,0.784,0,1.178,4.725,5.064c6.049,4.976,16.173,13.303,16.173,29.314
		s-10.124,24.338-16.173,29.313c-4.725,3.886-4.725,4.28-4.725,5.064c0,0.785,0,1.179,4.725,5.066
		c6.049,4.976,16.173,13.304,16.173,29.315s-10.123,24.339-16.173,29.315c-4.725,3.888-4.725,4.282-4.725,5.067
		C297.036,222.371,290.019,229.397,281.363,229.397z"/>
</g>
<path style="fill:#FFDC7B;" d="M273.208,405.621h-56.093c-3.051,0-5.524-2.473-5.524-5.524v-78.805c0-3.051,2.473-5.524,5.524-5.524
	h56.093c3.051,0,5.524,2.473,5.524,5.524v78.805C278.733,403.148,276.26,405.621,273.208,405.621z"/>
<path style="fill:#F0AE59;" d="M232.49,400.097v-78.804c0-3.051,2.473-5.524,5.524-5.524h-20.898c-3.051,0-5.524,2.473-5.524,5.524
	v78.804c0,3.051,2.473,5.524,5.524,5.524h20.898C234.963,405.621,232.49,403.148,232.49,400.097z"/>
<path style="fill:#A9CF54;" d="M186.858,446.106c0,0,7.102-62.017-35.407-96.298S37.267,327.113,37.267,327.113
	s3.975,91.294,47.387,111.88S186.858,446.106,186.858,446.106z"/>
<path style="fill:#8AA848;" d="M104.575,444.903c-37.465-19.82-45.557-98.374-47.071-119.526
	c-12.235,0.444-20.237,1.736-20.237,1.736s3.975,91.294,47.387,111.88c7.701,3.652,15.887,6.228,24.141,8.002
	C107.376,446.334,105.967,445.638,104.575,444.903z"/>
<path d="M497.508,442.861h-68.752c-4.328,0-7.837,3.509-7.837,7.837s3.509,7.837,7.837,7.837h67.537
	c-0.607,10.858-9.608,19.505-20.585,19.505H36.29c-10.977,0-19.978-8.648-20.584-19.505h370.558c4.328,0,7.837-3.509,7.837-7.837
	s-3.509-7.837-7.837-7.837h-46.833c21.061-11.581,38.463-29.043,49.98-50.169h23.23c18.822,0,36.518-7.345,49.831-20.683
	c13.301-13.338,20.625-31.06,20.625-49.9c0-38.919-31.607-70.583-70.457-70.583H396.83h-56.644H188.604
	c-4.328,0-7.837,3.509-7.837,7.837c0,4.328,3.509,7.837,7.837,7.837h48.724v8.069H108.429V267.2h29.497
	c4.328,0,7.837-3.509,7.837-7.837c0-4.328-3.509-7.837-7.837-7.837h-37.334c-4.328,0-7.837,3.509-7.837,7.837v23.721
	c0,0.007-0.001,0.014-0.001,0.02s0.001,0.014,0.001,0.02v35.965c-30.044-3.914-55.558,0.097-56.735,0.287
	c-3.924,0.634-6.751,4.105-6.579,8.077c0.023,0.55,0.622,13.678,3.694,31.238c0.746,4.263,4.808,7.119,9.07,6.369
	c4.263-0.746,7.115-4.807,6.369-9.07c-1.56-8.917-2.447-16.696-2.934-21.983c10.59-1.003,31.6-2.082,53.541,1.94
	c19.403,3.55,35.332,10.264,47.346,19.959c26.362,21.256,31.916,54.921,32.774,74.275l-23.054-18.146l-3.593-41.259
	c-0.375-4.311-4.165-7.508-8.488-7.127c-4.311,0.375-7.502,4.175-7.127,8.488l2.317,26.603l-18.053-14.211l-1.188-31.653
	c-0.163-4.325-3.797-7.723-8.125-7.537c-4.325,0.162-7.7,3.8-7.537,8.125l0.689,18.343l-13.928-10.963l-1.742-15.038
	c-0.498-4.3-4.38-7.375-8.686-6.883c-4.16,0.482-7.17,4.141-6.91,8.272l-6.395-5.033c-3.399-2.676-8.327-2.09-11.005,1.311
	c-2.677,3.4-2.09,8.328,1.31,11.005l5.264,4.144l-0.98,0.071c-4.316,0.31-7.565,4.063-7.254,8.379
	c0.297,4.125,3.736,7.275,7.809,7.275c0.189,0,0.379-0.007,0.571-0.021l18.145-1.306l13.699,10.783l-21.784,3.892
	c-4.261,0.762-7.097,4.833-6.335,9.094c0.677,3.794,3.981,6.46,7.705,6.46c0.458,0,0.922-0.041,1.388-0.124l35.513-6.346
	l18.108,14.253l-30.205,4.527c-4.281,0.642-7.231,4.631-6.589,8.911c0.582,3.887,3.926,6.677,7.741,6.677
	c0.387,0,0.777-0.028,1.171-0.088l44.796-6.713l21.384,16.832c-5.281,0.604-11.501,1.126-18.288,1.326
	c-24.202,0.709-45.505-2.952-61.631-10.598c-9.146-4.335-17.178-13.059-23.875-25.928c-1.998-3.839-6.73-5.333-10.569-3.334
	c-3.839,1.998-5.332,6.729-3.334,10.569c6.981,13.417,15.479,23.349,25.312,29.645H14.492C6.501,442.861,0,449.368,0,457.365
	c0,20.042,16.281,36.348,36.29,36.348h439.418c20.011,0,36.29-16.306,36.29-36.348C512,449.368,505.499,442.861,497.508,442.861z
	 M404.668,332.694v-34.889h1.985c6.56,0,12.728,2.56,17.368,7.209c4.641,4.649,7.197,10.836,7.197,17.419
	c0,13.581-11.02,24.628-24.566,24.628h-2.811C404.381,342.345,404.668,337.553,404.668,332.694z M467.425,322.11
	c0,14.663-5.7,28.454-16.048,38.83c-10.35,10.369-24.107,16.079-38.736,16.079h-16.044c1.752-4.637,3.237-9.404,4.438-14.284h5.619
	c22.187,0,40.239-18.079,40.239-40.302c0-10.766-4.183-20.884-11.778-28.493c-7.602-7.615-17.71-11.808-28.461-11.808h-1.985V267.2
	h7.973C442.849,267.2,467.425,291.833,467.425,322.11z M253.001,267.2h87.186h48.807v8.069H253.001V267.2z M156.368,343.711
	c-12.675-10.227-28.787-17.558-47.939-21.856v-30.911h128.899v16.989h-20.211c-7.368,0-13.361,5.994-13.361,13.361v78.804
	c0,7.368,5.994,13.361,13.361,13.361h56.093c7.368,0,13.361-5.994,13.361-13.361v-78.804c0-7.368-5.994-13.361-13.361-13.361
	h-20.208v-16.989h135.993v41.751c0,60.601-49.199,109.902-109.672,109.902h-61.221c-7.782,0-15.492-0.824-23.007-2.434
	C195.707,422.263,193.608,373.738,156.368,343.711z M219.429,356.321h51.467v41.464h-51.467V356.321z M270.896,340.647h-51.467
	v-17.042h51.467V340.647z"/>
<path d="M182.525,213.705c0,12.973,10.546,23.529,23.51,23.529c12.048,0,22.009-9.118,23.356-20.842
	c0.472-0.41,1.123-0.961,2.022-1.701c6.651-5.471,19.031-15.654,19.031-35.367c0-18.585-11.003-28.699-17.835-34.38
	c6.834-5.681,17.835-15.795,17.835-34.377c0-18.58-11.001-28.695-17.834-34.377c6.834-5.681,17.834-15.795,17.834-34.376
	c0-12.973-10.546-23.528-23.51-23.528c-12.048,0-22.008,9.116-23.356,20.839c-0.471,0.41-1.123,0.961-2.022,1.7
	c-6.651,5.47-19.032,15.653-19.032,35.366c0,18.579,11,28.693,17.833,34.376c-6.833,5.682-17.833,15.796-17.833,34.377
	c0,18.585,11.005,28.7,17.837,34.381C193.529,185.005,182.525,195.119,182.525,213.705z M211.512,190.443
	c4.567-3.756,7.584-6.238,7.584-11.119s-3.018-7.362-7.584-11.119c-5.618-4.622-13.314-10.952-13.314-23.263
	c0-12.309,7.696-18.639,13.314-23.26c4.567-3.756,7.584-6.237,7.584-11.117s-3.018-7.36-7.585-11.118
	c-5.618-4.622-13.313-10.952-13.313-23.259c0-12.31,7.696-18.639,13.314-23.26c4.567-3.756,7.584-6.237,7.584-11.117
	c0-4.331,3.515-7.854,7.837-7.854s7.837,3.523,7.837,7.854c0,12.31-7.696,18.639-13.314,23.26
	c-4.567,3.756-7.584,6.237-7.584,11.117c0,4.88,3.017,7.36,7.584,11.117c5.618,4.622,13.314,10.952,13.314,23.26
	c0,12.31-7.696,18.639-13.314,23.26c-4.567,3.756-7.584,6.237-7.584,11.117c0,4.88,3.017,7.361,7.584,11.119
	c5.618,4.622,13.314,10.951,13.314,23.263c0,12.311-7.696,18.64-13.315,23.263c-4.566,3.757-7.583,6.239-7.583,11.119
	c0,4.331-3.515,7.856-7.837,7.856s-7.837-3.524-7.837-7.856C198.198,201.395,205.893,195.065,211.512,190.443z"/>
<path d="M257.852,213.705c0,12.973,10.546,23.529,23.51,23.529c12.048,0,22.009-9.118,23.356-20.842
	c0.472-0.41,1.123-0.961,2.022-1.701c6.651-5.471,19.031-15.654,19.031-35.367c0-18.585-11.003-28.699-17.835-34.38
	c6.834-5.681,17.835-15.795,17.835-34.377c0-18.58-11.001-28.695-17.834-34.377c6.834-5.681,17.834-15.795,17.834-34.376
	c0-12.973-10.546-23.528-23.51-23.528c-12.048,0-22.008,9.116-23.356,20.839c-0.471,0.41-1.123,0.961-2.022,1.7
	c-6.651,5.47-19.032,15.653-19.032,35.366c0,18.579,11,28.693,17.833,34.376c-6.833,5.682-17.833,15.796-17.833,34.377
	c0,18.585,11.005,28.7,17.837,34.381C268.856,185.005,257.852,195.119,257.852,213.705z M286.84,190.443
	c4.567-3.756,7.584-6.238,7.584-11.119s-3.018-7.362-7.584-11.119c-5.618-4.622-13.314-10.952-13.314-23.263
	c0-12.309,7.696-18.639,13.314-23.26c4.567-3.756,7.584-6.237,7.584-11.117s-3.018-7.36-7.585-11.118
	c-5.618-4.622-13.313-10.952-13.313-23.259c0-12.31,7.696-18.639,13.314-23.26c4.567-3.756,7.584-6.237,7.584-11.117
	c0-4.331,3.515-7.854,7.837-7.854s7.837,3.523,7.837,7.854c0,12.31-7.696,18.639-13.314,23.26
	c-4.567,3.756-7.584,6.237-7.584,11.117c0,4.88,3.017,7.36,7.584,11.117c5.618,4.622,13.314,10.952,13.314,23.26
	c0,12.31-7.696,18.639-13.314,23.26c-4.567,3.756-7.584,6.237-7.584,11.117c0,4.88,3.017,7.361,7.584,11.119
	c5.618,4.622,13.314,10.951,13.314,23.263c0,12.311-7.696,18.64-13.315,23.263c-4.566,3.757-7.583,6.239-7.583,11.119
	c0,4.331-3.515,7.856-7.837,7.856c-4.322,0-7.837-3.524-7.837-7.856C273.525,201.395,281.221,195.065,286.84,190.443z"/>
<g>
</g>
<g>
</g>
<g>
</g>
<g>
</g>
<g>
</g>
<g>
</g>
<g>
</g>
<g>
</g>
<g>
</g>
<g>
</g>
<g>
</g>
<g>
</g>
<g>
</g>
<g>
</g>
<g>
</g>
</svg>
