<?xml version="1.0" encoding="utf-8"?>
<!-- Generator: Adobe Illustrator 24.3.0, SVG Export Plug-In . SVG Version: 6.00 Build 0)  -->
<svg version="1.1" id="Layer_1" xmlns="http://www.w3.org/2000/svg" xmlns:xlink="http://www.w3.org/1999/xlink" x="0px" y="0px"
	 viewBox="0 0 300 300" enable-background="new 0 0 300 300" xml:space="preserve">
<g>
	<g>
		<g>
			<path fill="#F4F4F4" d="M195.637,60.881v0.156c-7.007-18.652-24.973-31.981-46.041-31.981c-21.01,0-38.935,13.258-45.983,31.824
				H87.733v34.771h15.846c5.827,15.357,19.118,27.068,35.436,30.661v13.482h21.165v-13.482
				c16.338-3.599,29.641-15.331,35.458-30.714v0.053h16.63V60.881H195.637z M149.597,112.37c-18.801,0-34.098-15.295-34.098-34.098
				c0-18.803,15.297-34.098,34.098-34.098c18.802,0,34.098,15.295,34.098,34.098C183.695,97.075,168.398,112.37,149.597,112.37z"/>
		</g>
		<g>
			<g>
				<path fill="#F9F9F9" d="M154.791,29.34c-1.649-0.165-3.314-0.283-5.008-0.283c-21.01,0-38.935,13.258-45.983,31.824h10.016
					C120.295,43.808,135.979,31.259,154.791,29.34z"/>
			</g>
			<g>
				<rect x="87.919" y="60.881" fill="#F9F9F9" width="10.016" height="34.771"/>
			</g>
			<g>
				<path fill="#F9F9F9" d="M113.78,95.652h-10.016c5.827,15.357,19.118,27.068,35.436,30.661v13.482h10.016v-13.482
					C132.898,122.72,119.608,111.009,113.78,95.652z"/>
			</g>
		</g>
		<g>
			
				<ellipse transform="matrix(0.2145 -0.9767 0.9767 0.2145 41.1355 207.5301)" fill="#AA6148" cx="149.597" cy="78.19" rx="34.098" ry="34.098"/>
		</g>
		<g>
			<path fill="#BC715C" d="M128.156,78.19c0-16.671,12.032-30.561,27.862-33.502c-2.025-0.375-4.104-0.597-6.236-0.597
				c-18.802,0-34.098,15.295-34.098,34.098c0,18.803,15.297,34.098,34.098,34.098c2.132,0,4.211-0.221,6.236-0.596
				C140.188,108.747,128.156,94.861,128.156,78.19z"/>
		</g>
		<g>
			<path fill="#AA6148" d="M135.687,139.795l-6.047,111.191c0,11.022,8.935,19.957,19.957,19.957
				c11.023,0,19.958-8.935,19.958-19.957l-6.047-111.191H135.687z"/>
		</g>
		<g>
			<path fill="#BC715C" d="M142.868,250.986l6.047-111.191h-13.228l-6.047,111.191c0,11.022,8.935,19.957,19.957,19.957
				c2.322,0,4.542-0.416,6.614-1.146C148.444,267.067,142.868,259.688,142.868,250.986z"/>
		</g>
		<g>
			<circle fill="#F4F4F4" cx="149.597" cy="252.548" r="3.78"/>
		</g>
		<g>
			<path fill="#F4F4F4" d="M152.126,78.187c0,1.4-1.132,2.53-2.529,2.53c-1.397,0-2.529-1.131-2.529-2.53
				c0-1.397,1.132-2.527,2.529-2.527C150.994,75.659,152.126,76.79,152.126,78.187z"/>
		</g>
		<g>
			<path fill="#F4F4F4" d="M132.169,78.187c0,1.4-1.132,2.53-2.529,2.53c-1.397,0-2.529-1.131-2.529-2.53
				c0-1.397,1.132-2.527,2.529-2.527C131.036,75.659,132.169,76.79,132.169,78.187z"/>
		</g>
		<g>
			<path fill="#F4F4F4" d="M172.084,78.187c0,1.4-1.133,2.53-2.529,2.53c-1.397,0-2.529-1.131-2.529-2.53
				c0-1.397,1.132-2.527,2.529-2.527C170.951,75.659,172.084,76.79,172.084,78.187z"/>
		</g>
		<g>
			<path fill="#F4F4F4" d="M152.126,59.794c0,1.4-1.132,2.53-2.529,2.53c-1.397,0-2.529-1.131-2.529-2.53
				c0-1.397,1.132-2.528,2.529-2.528C150.994,57.267,152.126,58.398,152.126,59.794z"/>
		</g>
		<g>
			<path fill="#F4F4F4" d="M152.126,95.823c0,1.4-1.132,2.533-2.529,2.533c-1.397,0-2.529-1.134-2.529-2.533
				c0-1.394,1.132-2.527,2.529-2.527C150.994,93.296,152.126,94.43,152.126,95.823z"/>
		</g>
		<g>
			<path fill="#F4F4F4" d="M140.908,67.855c0,1.4-1.132,2.53-2.529,2.53c-1.397,0-2.529-1.131-2.529-2.53
				c0-1.397,1.132-2.528,2.529-2.528C139.776,65.328,140.908,66.459,140.908,67.855z"/>
		</g>
		<g>
			<path fill="#F4F4F4" d="M140.908,88.515c0,1.4-1.132,2.533-2.529,2.533c-1.397,0-2.529-1.134-2.529-2.533
				c0-1.394,1.132-2.527,2.529-2.527C139.776,85.988,140.908,87.122,140.908,88.515z"/>
		</g>
		<g>
			<path fill="#F4F4F4" d="M163.343,67.855c0,1.4-1.132,2.53-2.529,2.53c-1.397,0-2.529-1.131-2.529-2.53
				c0-1.397,1.132-2.528,2.529-2.528C162.211,65.328,163.343,66.459,163.343,67.855z"/>
		</g>
		<g>
			<path fill="#F4F4F4" d="M163.343,88.515c0,1.4-1.132,2.533-2.529,2.533c-1.397,0-2.529-1.134-2.529-2.533
				c0-1.394,1.132-2.527,2.529-2.527C162.211,85.988,163.343,87.122,163.343,88.515z"/>
		</g>
	</g>
	<g>
		<g>
			<path fill="#161616" d="M149.597,275.479c-13.506,0-24.493-10.987-24.493-24.493l1.351-24.939
				c0.136-2.504,2.313-4.361,4.775-4.284c2.501,0.136,4.419,2.274,4.281,4.774l-1.344,24.694c0.007,8.259,6.926,15.177,15.43,15.177
				c8.504,0,15.422-6.918,15.422-15.422l-5.807-106.656h-19.231l-3.334,61.284c-0.136,2.504-2.319,4.343-4.775,4.284
				c-2.501-0.136-4.419-2.274-4.281-4.775l3.567-65.574c0.13-2.406,2.119-4.29,4.528-4.29h27.821c2.409,0,4.398,1.884,4.528,4.29
				l6.047,111.191C174.09,264.492,163.103,275.479,149.597,275.479z"/>
		</g>
		<g>
			<circle fill="#161616" cx="149.597" cy="252.548" r="3.78"/>
		</g>
		<g>
			<path fill="#161616" d="M160.18,144.331h-21.165c-2.505,0-4.535-2.031-4.535-4.535v-9.965
				c-15.119-4.42-27.477-15.207-33.933-29.642H87.733c-2.505,0-4.535-2.032-4.535-4.535V60.881c0-2.505,2.03-4.535,4.535-4.535
				h12.852c8.609-19.16,27.918-31.825,49.012-31.825c9.305,0,18.503,2.457,26.598,7.104c2.172,1.248,2.922,4.019,1.674,6.192
				c-1.247,2.173-4.016,2.922-6.192,1.674c-6.722-3.859-14.358-5.899-22.081-5.899c-18.406,0-35.18,11.613-41.743,28.898
				c-0.669,1.761-2.356,2.926-4.24,2.926H92.268v25.701h11.31c1.884,0,3.571,1.163,4.24,2.926
				c5.381,14.182,17.408,24.59,32.171,27.841c2.079,0.458,3.56,2.3,3.56,4.429v8.947h12.094v-8.947c0-2.129,1.481-3.971,3.56-4.429
				c14.786-3.257,26.82-13.683,32.192-27.889c0.76-2.011,2.818-3.21,4.934-2.879h11.402V65.416h-11.256
				c-0.009,0.001-0.018,0.003-0.028,0.006c-2.153,0.391-4.284-0.735-5.057-2.789c-1.355-3.608-3.238-7.1-5.594-10.379
				c-1.463-2.035-0.999-4.868,1.035-6.329c2.036-1.465,4.868-0.997,6.329,1.035c2.148,2.988,3.971,6.133,5.44,9.385h13.665
				c2.505,0,4.535,2.03,4.535,4.535v34.771c0,2.504-2.03,4.535-4.535,4.535h-13.618c-6.455,14.433-18.81,25.219-33.934,29.642v9.965
				C164.715,142.299,162.685,144.331,160.18,144.331z M149.597,116.906c-21.302,0-38.633-17.329-38.633-38.633
				c0-21.302,17.331-38.633,38.633-38.633c21.302,0,38.633,17.331,38.633,38.633C188.23,99.576,170.899,116.906,149.597,116.906z
				 M149.597,48.71c-16.301,0-29.563,13.262-29.563,29.563c0,16.302,13.262,29.563,29.563,29.563
				c16.301,0,29.563-13.261,29.563-29.563C179.16,61.972,165.898,48.71,149.597,48.71z"/>
		</g>
		<g>
			<path fill="#161616" d="M152.126,78.187c0,1.4-1.132,2.53-2.529,2.53c-1.397,0-2.529-1.131-2.529-2.53
				c0-1.397,1.132-2.527,2.529-2.527C150.994,75.659,152.126,76.79,152.126,78.187z"/>
		</g>
		<g>
			<path fill="#161616" d="M132.169,78.187c0,1.4-1.132,2.53-2.529,2.53c-1.397,0-2.529-1.131-2.529-2.53
				c0-1.397,1.132-2.527,2.529-2.527C131.036,75.659,132.169,76.79,132.169,78.187z"/>
		</g>
		<g>
			<path fill="#161616" d="M172.084,78.187c0,1.4-1.133,2.53-2.529,2.53c-1.397,0-2.529-1.131-2.529-2.53
				c0-1.397,1.132-2.527,2.529-2.527C170.951,75.659,172.084,76.79,172.084,78.187z"/>
		</g>
		<g>
			<path fill="#161616" d="M152.126,59.794c0,1.4-1.132,2.53-2.529,2.53c-1.397,0-2.529-1.131-2.529-2.53
				c0-1.397,1.132-2.528,2.529-2.528C150.994,57.267,152.126,58.398,152.126,59.794z"/>
		</g>
		<g>
			<path fill="#161616" d="M152.126,95.823c0,1.4-1.132,2.533-2.529,2.533c-1.397,0-2.529-1.134-2.529-2.533
				c0-1.394,1.132-2.527,2.529-2.527C150.994,93.296,152.126,94.43,152.126,95.823z"/>
		</g>
		<g>
			<path fill="#161616" d="M140.908,67.855c0,1.4-1.132,2.53-2.529,2.53c-1.397,0-2.529-1.131-2.529-2.53
				c0-1.397,1.132-2.528,2.529-2.528C139.776,65.328,140.908,66.459,140.908,67.855z"/>
		</g>
		<g>
			<path fill="#161616" d="M140.908,88.515c0,1.4-1.132,2.533-2.529,2.533c-1.397,0-2.529-1.134-2.529-2.533
				c0-1.394,1.132-2.527,2.529-2.527C139.776,85.988,140.908,87.122,140.908,88.515z"/>
		</g>
		<g>
			<path fill="#161616" d="M163.343,67.855c0,1.4-1.132,2.53-2.529,2.53c-1.397,0-2.529-1.131-2.529-2.53
				c0-1.397,1.132-2.528,2.529-2.528C162.211,65.328,163.343,66.459,163.343,67.855z"/>
		</g>
		<g>
			<path fill="#161616" d="M163.343,88.515c0,1.4-1.132,2.533-2.529,2.533c-1.397,0-2.529-1.134-2.529-2.533
				c0-1.394,1.132-2.527,2.529-2.527C162.211,85.988,163.343,87.122,163.343,88.515z"/>
		</g>
	</g>
</g>
</svg>
