<?xml version="1.0" encoding="iso-8859-1"?>
<!-- Generator: Adobe Illustrator 19.0.0, SVG Export Plug-In . SVG Version: 6.00 Build 0)  -->
<svg version="1.1" id="Layer_1" xmlns="http://www.w3.org/2000/svg" xmlns:xlink="http://www.w3.org/1999/xlink" x="0px" y="0px"
	 viewBox="0 0 511.999 511.999" style="enable-background:new 0 0 511.999 511.999;" xml:space="preserve">
<circle style="fill:#636D77;" cx="265.691" cy="87.579" r="19.575"/>
<g>
	<path style="fill:#F59D40;" d="M313.122,157.087H137.331c-10.617,0-19.221,8.606-19.221,19.221
		c0,10.615,8.604,19.221,19.221,19.221h256.726c10.615,0,19.221-8.606,19.221-19.221c0-10.615-8.606-19.221-19.221-19.221h-55.066"
		/>
	<path style="fill:#F59D40;" d="M493.327,218.353c-10-13.224-25.253-20.807-41.846-20.807c-11.488,0-22.415,3.669-31.594,10.613
		l-8.691,6.573c4.267,10.421,7.742,21.366,10.32,32.739l17.876-13.52c3.518-2.661,7.698-4.067,12.089-4.067
		c6.37,0,12.221,2.907,16.055,7.974c6.682,8.836,4.928,21.461-3.907,28.143l-36.777,27.813c0.004,0.612,0.027,1.221,0.027,1.836
		c0,14.337-1.389,28.291-3.996,41.707l60.25-45.564C506.19,274.358,510.764,241.412,493.327,218.353z"/>
	<path style="fill:#F59D40;" d="M104.57,300.566c-0.04-1.564-0.063-3.192-0.063-4.916c0-2.063,0.033-4.118,0.095-6.165
		c0.056-2.017,0.148-4.024,0.257-6.023h-7.436c-11.258,0-20.417-9.158-20.417-20.417v-2.648v-17.023v-27.781
		c0-29.088-23.665-52.754-52.754-52.754c-8.929,0-16.169,7.238-16.169,16.169c0,8.928,7.239,16.169,16.169,16.169
		c11.258,0,20.417,9.158,20.417,20.417v27.781v49.36v0.493c0,29.088,23.665,52.754,52.754,52.754h12.938
		C106.914,331.471,104.915,316.259,104.57,300.566z"/>
</g>
<g>
	<path style="fill:#F4B042;" d="M389.916,157.087c-21.756-29.488-69.194-49.939-124.222-49.939s-102.466,20.451-124.222,49.939"/>
	<path style="fill:#F4B042;" d="M104.508,295.65c0,60.283,24.321,113.935,62.137,148.346H364.74
		c37.815-34.411,62.138-88.063,62.138-148.346c0-36.803-9.072-71.129-24.737-100.121H129.245
		C113.58,224.521,104.508,258.848,104.508,295.65z"/>
</g>
<g style="opacity:0.2;">
	<path style="fill:#020202;" d="M143.146,176.308c0-10.615,8.604-19.221,19.221-19.221h-25.036
		c-10.617,0-19.221,8.606-19.221,19.221c0,10.615,8.604,19.221,19.221,19.221h25.036C151.75,195.53,143.146,186.923,143.146,176.308
		z"/>
</g>
<g style="opacity:0.2;">
	<path style="fill:#020202;" d="M280.189,107.633c-4.764-0.316-9.598-0.485-14.495-0.485c-55.028,0-102.466,20.451-124.222,49.939
		h28.989C190.281,130.223,231.418,110.867,280.189,107.633z"/>
</g>
<g style="opacity:0.2;">
	<path style="fill:#020202;" d="M129.544,295.65c0-36.803,9.072-71.129,24.737-100.121h-25.036
		c-15.665,28.991-24.737,63.318-24.737,100.121c0,60.283,24.321,113.935,62.137,148.346h30.426
		C159.253,409.586,129.544,355.932,129.544,295.65z"/>
</g>
<g>
	<path style="fill:#020202;" d="M391.613,231.625c-1.509-4.202-6.139-6.383-10.342-4.874c-4.201,1.509-6.384,6.14-4.874,10.342
		c6.751,18.788,10.173,38.707,10.173,59.206c0,31.322-8.077,61.514-23.358,87.314c-2.274,3.842-1.006,8.8,2.836,11.075
		c1.292,0.765,2.712,1.13,4.112,1.13c2.763,0,5.454-1.416,6.963-3.966c16.757-28.294,25.615-61.336,25.615-95.554
		C402.737,273.931,398.994,252.172,391.613,231.625z"/>
	<path style="fill:#020202;" d="M499.775,213.477c-11.542-15.262-29.144-24.015-48.295-24.015c-13.266,0-25.877,4.236-36.471,12.249
		l-0.526,0.398c-0.819-1.749-1.656-3.489-2.523-5.211c5.754-5.01,9.401-12.38,9.401-20.59c0-15.056-12.249-27.305-27.305-27.305
		h-0.192c-11.759-14.454-29.125-26.652-50.516-35.423c-16.236-6.657-34.291-11.105-53.157-13.175
		c2.016-3.836,3.164-8.197,3.164-12.823c0-15.253-12.409-27.663-27.661-27.663c-15.253,0-27.663,12.41-27.663,27.663
		c0,4.626,1.147,8.988,3.164,12.823c-18.865,2.071-36.92,6.518-53.156,13.175c-21.391,8.771-38.756,20.969-50.516,35.423h-0.192
		c-15.056,0-27.305,12.249-27.305,27.305c0,8.209,3.648,15.579,9.4,20.588c-12.121,24.065-19.63,50.791-22.097,78.477
		c-6.756-0.052-12.238-5.56-12.238-12.328v-47.452c0-33.546-27.291-60.838-60.838-60.838C10.88,154.755,0,165.635,0,179.008
		s10.88,24.253,24.253,24.253c6.8,0,12.332,5.533,12.332,12.332v77.634c0,33.546,27.291,60.838,60.838,60.838h6.608
		c10.029,37.484,29.678,70.891,57.174,95.911c1.489,1.355,3.429,2.105,5.441,2.105h198.096c2.012,0,3.953-0.75,5.441-2.105
		c30.429-27.69,51.252-65.649,60.053-108.042l57.774-43.692C514.622,278.117,519.9,240.092,499.775,213.477z M434.262,278.074
		c-0.71-9.203-1.975-18.305-3.78-27.248l13.787-10.428c2.102-1.591,4.596-2.431,7.211-2.431c3.814,0,7.315,1.738,9.606,4.768
		c3.994,5.28,2.946,12.824-2.335,16.818L434.262,278.074z M254.199,87.581c0-6.338,5.157-11.495,11.495-11.495
		c6.337,0,11.493,5.157,11.493,11.495c0,6.28-5.065,11.392-11.323,11.484c-0.056,0-0.113-0.002-0.169-0.002
		c-0.057,0-0.113,0.002-0.169,0.002C259.265,98.973,254.199,93.861,254.199,87.581z M137.331,165.172h175.791
		c4.466,0,8.084-3.618,8.084-8.084c0-4.466-3.619-8.084-8.084-8.084H159.981c23.87-20.834,63.092-33.709,105.425-33.767
		c0.096,0.001,0.191,0.008,0.287,0.008c0.096,0,0.191-0.006,0.287-0.008c42.335,0.058,81.555,12.934,105.425,33.767h-32.416
		c-4.466,0-8.084,3.619-8.084,8.084c0,4.466,3.618,8.084,8.084,8.084h50.911c0.006,0,0.013,0.001,0.019,0.001
		c0.004,0,0.01-0.001,0.014-0.001h4.121c6.141,0,11.137,4.996,11.137,11.137c0,6.141-4.996,11.137-11.137,11.137H137.331
		c-6.141,0-11.137-4.996-11.137-11.137C126.194,170.168,131.19,165.172,137.331,165.172z M97.423,337.897
		c-24.631,0-44.669-20.039-44.669-44.669v-77.634c0-15.716-12.785-28.501-28.501-28.501c-4.458,0-8.084-3.626-8.084-8.084
		c0-4.458,3.626-8.084,8.084-8.084c24.631,0,44.669,20.039,44.669,44.669v47.452c0,15.395,12.27,27.979,27.545,28.486
		c-0.028,1.401-0.042,2.779-0.042,4.119c0,1.683,0.022,3.269,0.058,4.78c0.028,1.379,0.077,2.753,0.129,4.126
		c0.014,0.37,0.025,0.739,0.041,1.109c0.056,1.297,0.127,2.59,0.205,3.882c0.019,0.316,0.038,0.632,0.057,0.947
		c0.091,1.405,0.193,2.806,0.309,4.204c0.006,0.075,0.013,0.15,0.019,0.224c0.65,7.77,1.691,15.438,3.11,22.973L97.423,337.897
		L97.423,337.897z M361.57,435.912H169.816c-25.211-23.821-42.94-55.572-51.463-91.09c-0.034-0.237-0.07-0.474-0.126-0.709
		c-3.373-14.194-5.247-28.904-5.575-43.753c-0.003-0.144-0.005-0.298-0.009-0.443c-0.028-1.42-0.051-2.841-0.051-4.266
		c0-1.717,0.032-3.43,0.073-5.142c0.008-0.268,0.01-0.529,0.018-0.8c0.009-0.327,0.02-0.665,0.032-1.004
		c0.04-1.218,0.096-2.434,0.156-3.649c0.019-0.378,0.038-0.757,0.06-1.152c0.004-0.089-0.001-0.179,0.001-0.268
		c1.6-28.302,8.838-55.673,21.202-80.022h3.196h256.726h3.194c2.354,4.636,4.505,9.391,6.485,14.232
		c0.493,1.204,0.972,2.415,1.442,3.633c0.058,0.151,0.114,0.303,0.172,0.455c0.917,2.394,1.79,4.811,2.617,7.25
		c0.023,0.067,0.046,0.133,0.069,0.199c0.366,1.087,0.72,2.178,1.068,3.273c0.162,0.509,0.321,1.019,0.479,1.528
		c0.344,1.11,0.683,2.223,1.009,3.339c0.366,1.261,0.724,2.526,1.067,3.796c0.216,0.798,0.417,1.599,0.622,2.398
		c0.236,0.918,0.467,1.838,0.689,2.761c0.18,0.746,0.361,1.493,0.532,2.241c3.358,14.626,5.134,29.775,5.264,45.123
		c0,0.01-0.001,0.019-0.001,0.029c0.002,0.313,0.009,0.625,0.015,0.938c0.006,0.28,0.013,0.56,0.013,0.842
		c0,13.509-1.295,27.023-3.847,40.166c-0.032,0.164-0.036,0.328-0.057,0.492C407.279,375.258,388.781,410.202,361.57,435.912z
		 M478.257,285.345l-44.483,33.639c0.323-3.176,0.572-6.37,0.763-9.579c0.027-0.457,0.058-0.914,0.084-1.371
		c0.059-1.109,0.105-2.223,0.148-3.335c0.031-0.791,0.064-1.581,0.087-2.372c0.026-0.909,0.042-1.818,0.058-2.728
		c0.01-0.591,0.031-1.182,0.038-1.773l33.553-25.374c12.392-9.371,14.849-27.077,5.478-39.47
		c-5.376-7.106-13.578-11.181-22.502-11.181c-6.166,0-12.033,1.973-16.965,5.704l-8.194,6.197c-0.405-1.411-0.827-2.817-1.26-4.217
		c-0.293-0.951-0.602-1.895-0.909-2.84c-0.253-0.78-0.511-1.558-0.773-2.334c-0.608-1.807-1.243-3.601-1.897-5.386
		c-0.176-0.479-0.345-0.961-0.524-1.439l3.804-2.878c7.763-5.871,17.001-8.976,26.717-8.976c14.038,0,26.94,6.415,35.398,17.598
		C501.626,242.733,497.759,270.597,478.257,285.345z"/>
</g>
<g>
</g>
<g>
</g>
<g>
</g>
<g>
</g>
<g>
</g>
<g>
</g>
<g>
</g>
<g>
</g>
<g>
</g>
<g>
</g>
<g>
</g>
<g>
</g>
<g>
</g>
<g>
</g>
<g>
</g>
</svg>
