<?xml version="1.0" encoding="iso-8859-1"?>
<!-- Generator: Adobe Illustrator 19.0.0, SVG Export Plug-In . SVG Version: 6.00 Build 0)  -->
<svg version="1.1" id="Layer_1" xmlns="http://www.w3.org/2000/svg" xmlns:xlink="http://www.w3.org/1999/xlink" x="0px" y="0px"
	 viewBox="0 0 512 512" style="enable-background:new 0 0 512 512;" xml:space="preserve">
<path style="fill:#FE5A3A;" d="M503.916,234.442c0,41.605-33.848,75.453-75.453,75.453h-32.337v-43.116h32.337
	c17.831,0,32.337-14.506,32.337-32.337s-14.506-32.337-32.337-32.337h-32.337v-43.116h32.337
	C470.068,158.989,503.916,192.837,503.916,234.442z"/>
<path style="fill:#FED76E;" d="M115.874,158.989V61.979c0-12.167,10.079-21.979,22.344-21.544
	c11.682,0.415,20.772,10.37,20.772,22.06l0,0c0,11.621,9.421,21.042,21.042,21.042h1.033c11.621,0,21.042-9.421,21.042-21.042
	V29.641c0-12.167,10.079-21.979,22.344-21.544c11.682,0.415,20.772,10.37,20.772,22.06v32.337c0,11.621,9.421,21.042,21.042,21.042
	h1.033c11.621,0,21.042-9.421,21.042-21.042l0,0c0-11.69,9.09-21.645,20.772-22.06c12.264-0.435,22.344,9.378,22.344,21.545v97.011
	H115.874z"/>
<path style="fill:#FE7D49;" d="M29.642,288.338V158.989c0-23.812,19.304-43.116,43.116-43.116h301.81
	c23.812,0,43.116,19.304,43.116,43.116v129.348c0,107.155-86.866,194.021-194.021,194.021l0,0
	C116.509,482.359,29.642,395.492,29.642,288.338z"/>
<path style="fill:#FE9D5E;" d="M72.758,115.873h257.617v59.823c0,103.881-84.212,188.093-188.093,188.093H44.861
	c-9.799-23.194-15.219-48.691-15.219-75.453V158.989C29.642,135.176,48.946,115.873,72.758,115.873z"/>
<path style="fill:#FE7D49;" d="M439.242,439.242L439.242,439.242c0,35.718-28.956,64.674-64.674,64.674H72.758
	c-35.718,0-64.674-28.955-64.674-64.674l0,0c0-11.906,9.651-21.558,21.558-21.558h388.042
	C429.591,417.684,439.242,427.336,439.242,439.242z"/>
<path style="fill:#FE9D5E;" d="M40.421,460.8c-11.176,0-21.689-2.836-30.861-7.826c-0.958-4.427-1.476-9.018-1.476-13.732l0,0
	c0-11.906,9.651-21.558,21.558-21.558H403.21c-8.88,25.116-32.822,43.116-60.979,43.116H40.421z"/>
<path d="M202.867,19.764c-3.104-3.21-3.019-8.328,0.19-11.431c5.842-5.651,13.539-8.59,21.679-8.315
	c16.021,0.57,28.57,13.809,28.57,30.139v32.337c0,7.144,5.813,12.957,12.957,12.957h1.034c7.144,0,12.957-5.813,12.957-12.957
	c0-16.33,12.55-29.57,28.57-30.14c8.124-0.276,15.815,2.656,21.656,8.291c5.842,5.637,9.059,13.214,9.059,21.332v21.558
	c0,4.466-3.618,8.084-8.084,8.084S323.37,88,323.37,83.534V61.976c0-3.691-1.463-7.134-4.119-9.697
	c-2.654-2.561-6.144-3.879-9.853-3.768c-7.156,0.255-12.977,6.528-12.977,13.982c0,16.06-13.065,29.126-29.126,29.126h-1.034
	c-16.058,0-29.125-13.065-29.125-29.126V30.157c0-7.455-5.821-13.727-12.976-13.982c-3.714-0.116-7.209,1.209-9.863,3.778
	C211.088,23.055,205.971,22.971,202.867,19.764z M115.874,91.62c4.465,0,8.084-3.618,8.084-8.084V61.978
	c0-3.691,1.463-7.134,4.119-9.697c2.654-2.562,6.145-3.889,9.853-3.768c7.155,0.254,12.976,6.527,12.976,13.981
	c0,16.06,13.066,29.126,29.126,29.126h1.033c16.06,0,29.126-13.065,29.126-29.126V40.419c0-4.466-3.62-8.084-8.084-8.084
	c-4.465,0-8.084,3.618-8.084,8.084v22.075c0,7.144-5.813,12.957-12.957,12.957h-1.033c-7.144,0-12.957-5.813-12.957-12.957
	c0-16.33-12.549-29.57-28.57-30.14c-8.122-0.293-15.816,2.655-21.656,8.291c-5.841,5.64-9.059,13.215-9.059,21.333v21.558
	C107.789,88.001,111.409,91.62,115.874,91.62z M512,234.441c0,46.062-37.475,83.537-83.537,83.537h-4.874
	c-3.714,25.127-12.127,49.4-24.862,71.416c-1.498,2.59-4.214,4.038-7.005,4.038c-1.373,0-2.765-0.35-4.04-1.088
	c-3.865-2.236-5.187-7.181-2.95-11.045c16.268-28.127,24.868-60.273,24.868-92.963V158.988c0-19.317-15.715-35.032-35.032-35.032
	H72.758c-19.316,0-35.032,15.715-35.032,35.032v129.347c0,32.689,8.599,64.835,24.869,92.96c2.236,3.865,0.915,8.811-2.95,11.046
	c-3.862,2.234-8.81,0.914-11.046-2.949c-17.69-30.583-27.041-65.527-27.041-101.057V158.988c0-28.231,22.969-51.2,51.2-51.2h301.81
	c25.483,0,46.676,18.711,50.562,43.116h3.333C474.525,150.904,512,188.379,512,234.441z M425.768,258.693h2.695
	c13.372,0,24.253-10.88,24.253-24.253c0-6.87-2.948-13.453-8.089-18.061c-4.455-3.993-10.195-6.191-16.164-6.191h-2.695V258.693z
	 M495.832,234.441c0-37.147-30.221-67.368-67.368-67.368h-2.695v26.947h2.695c9.958,0,19.53,3.665,26.956,10.32
	c8.556,7.671,13.465,18.642,13.465,30.101c0,22.289-18.132,40.421-40.421,40.421h-2.695v13.474c0,4.505-0.151,8.996-0.448,13.474
	h3.143C465.611,301.81,495.832,271.588,495.832,234.441z M447.326,439.242c0,40.119-32.639,72.758-72.758,72.758H72.758
	C32.639,512,0,479.361,0,439.242C0,422.898,13.297,409.6,29.642,409.6h388.042C434.028,409.6,447.326,422.898,447.326,439.242z
	 M431.158,439.242c0-7.43-6.044-13.474-13.474-13.474H29.642c-7.43,0-13.474,6.044-13.474,13.474
	c0,31.203,25.385,56.589,56.589,56.589h301.81C405.771,495.831,431.158,470.445,431.158,439.242z"/>
<g>
</g>
<g>
</g>
<g>
</g>
<g>
</g>
<g>
</g>
<g>
</g>
<g>
</g>
<g>
</g>
<g>
</g>
<g>
</g>
<g>
</g>
<g>
</g>
<g>
</g>
<g>
</g>
<g>
</g>
</svg>
