<?xml version="1.0" encoding="UTF-8"?>
<!DOCTYPE svg PUBLIC "-//W3C//DTD SVG 1.1//EN" "http://www.w3.org/Graphics/SVG/1.1/DTD/svg11.dtd">
<!-- Creator: CorelDRAW -->
<svg xmlns="http://www.w3.org/2000/svg" xml:space="preserve" width="6.82666in" height="6.82666in" style="shape-rendering:geometricPrecision; text-rendering:geometricPrecision; image-rendering:optimizeQuality; fill-rule:evenodd; clip-rule:evenodd"
viewBox="0 0 6.82666 6.82666"
 xmlns:xlink="http://www.w3.org/1999/xlink">
 <defs>
  <style type="text/css">
   <![CDATA[
    .fil4 {fill:none}
    .fil3 {fill:#AED581}
    .fil0 {fill:#EBE5DF}
    .fil2 {fill:#F39CC3}
    .fil1 {fill:#333333;fill-rule:nonzero}
   ]]>
  </style>
 </defs>
 <g id="Layer_x0020_1">
  <metadata id="CorelCorpID_0Corel-Layer"/>
  <path class="fil0" d="M2.23541 3.57593c0.00672835,-0.0434921 0.0474488,-0.0732913 0.0909409,-0.066563 0.000968504,0.000149606 0.152122,0.0233583 0.363713,0.0790315 0.0520906,0.0137047 0.107846,0.029378 0.165925,0.0471614 0.00780709,-0.00775197 0.016252,-0.0150512 0.025311,-0.0218228 0.0474134,-0.0354449 0.112303,-0.0564449 0.193165,-0.0528661 0.182043,0.00805906 0.390508,0.133594 0.571224,0.276646 0.120433,0.0953307 0.228114,0.19839 0.308807,0.281287 -0.12226,0.0124291 -0.282406,0.0240157 -0.446035,0.0217165 -0.240008,-0.00337008 -0.486756,-0.0359055 -0.621866,-0.139122 -0.0519331,-0.0396732 -0.0828976,-0.0910276 -0.094748,-0.144445 -0.0055748,-0.0251378 -0.00702756,-0.050811 -0.00454331,-0.0760197 -0.0543583,-0.0162874 -0.106417,-0.0306299 -0.154917,-0.0431496 -0.192902,-0.0497913 -0.329516,-0.0707717 -0.330413,-0.0709134 -0.0434921,-0.00672835 -0.0732913,-0.0474488 -0.066563,-0.0909409zm-0.801909 0.821583c-0.000980315,0.0108307 -0.00185039,0.0216181 -0.00260236,0.0323583 4.33071e-005,0.00408268 -0.000232283,0.00813386 -0.00080315,0.0121142 -0.00435039,0.0302598 -0.0259606,0.0566417 -0.0572638,0.0655472 -0.0424528,0.0120787 -0.0866693,-0.0125472 -0.098748,-0.055 -0.0011811,-0.00414961 -0.00236614,-0.00828346 -0.00355512,-0.0124094 -0.00995669,0.17328 0.00762205,0.336854 0.0609331,0.479098 0.111437,0.297311 0.370209,0.497594 0.844276,0.497594l2.05126 0c0.250543,0 0.442437,-0.0634134 0.585157,-0.171732 0.150228,-0.114016 0.242961,-0.275339 0.290232,-0.463398 0.448807,-0.207177 0.443673,-0.728693 0.441409,-0.791157l3.14961e-005 -0.00216929 0 -1.04546c0,-0.194744 0.0263898,-0.20639 0.13065,-0.252394 0.0532126,-0.0234803 0.120965,-0.0533819 0.21039,-0.105681 0.216898,-0.126866 0.168205,-0.194248 -0.0532953,-0.232016 -0.0884567,-0.0150866 -0.239937,-0.0192598 -0.422012,-0.0237441 -0.127429,-0.00314173 -0.232028,0.0679173 -0.311213,0.221988 -0.0681614,0.132638 -0.118413,0.332508 -0.148937,0.60674 -0.0119764,0.107614 -0.0318976,0.187555 -0.0557047,0.246783 -0.0984134,-0.217083 -0.218669,-0.412622 -0.345685,-0.559618 -0.153169,-0.17726 -0.319933,-0.286976 -0.477819,-0.287169 -0.0176969,-0.123835 -0.0758307,-0.235039 -0.160472,-0.319681 -0.102512,-0.102512 -0.243988,-0.166146 -0.399673,-0.166146l-0.225602 0 0 0.08c0,0.0441811 -0.0358189,0.08 -0.08,0.08l0.305602 0c0.111516,0 0.212957,0.0456811 0.286547,0.119272 0.0555748,0.0555748 0.0952323,0.127035 0.111319,0.20672l0.124906 0c0.0441811,0 0.08,0.0358189 0.08,0.08 0,0.0424173 -0.0330197,0.0771299 -0.074752,0.0798307 -0.00173622,0.000114173 -0.00348425,0.000169291 -0.00524803,0.000169291l-1.61887 -3.93701e-006 -0.000929134 3.93701e-006c-0.00169291,0 -0.00337008,-5.11811e-005 -0.00503543,-0.00015748 -0.0361063,0.00155512 -0.0750079,0.0139055 -0.115768,0.0356378 -0.0071378,0.0085 -0.0161693,0.0156457 -0.0268465,0.0207283 -0.0056378,0.00268504 -0.0114331,0.00464961 -0.0172835,0.00593701 -0.236689,0.159161 -0.521992,0.600693 -0.688091,1.07039 -0.0650669,0.183992 -0.110614,0.371346 -0.126512,0.54702z"/>
  <g id="_627477568">
   <path id="_627477040" class="fil1" d="M4.06978 2.71779l-0.0739055 0c-0.0441811,0 -0.08,-0.0358189 -0.08,-0.08l0 -3.93701e-006c0,-0.111516 -0.0456811,-0.212957 -0.119272,-0.286547 -0.0735906,-0.0735906 -0.175031,-0.119272 -0.286547,-0.119272l-0.611205 0c-0.111516,0 -0.212961,0.0456811 -0.286551,0.119272 -0.0735906,0.0735906 -0.119272,0.175031 -0.119272,0.286547l0 7.87402e-006c9.84252e-005,0.0438268 -0.0351457,0.0796535 -0.0790669,0.0801614l-0.000929134 -0.0799961 0.000625984 0.079689c-0.25237,0.0029252 -0.646087,0.545894 -0.85365,1.13285 -0.0650669,0.183992 -0.110614,0.371346 -0.126512,0.54702 -0.0155315,0.171626 -0.00296063,0.331882 0.0473386,0.466087 0.0880591,0.234945 0.300295,0.393217 0.694898,0.393217l2.05126 0c0.213815,0 0.373713,-0.0511811 0.488906,-0.138606 0.126343,-0.0958858 0.202209,-0.238173 0.238709,-0.405902 0.00423228,-0.0270512 0.0222441,-0.0512323 0.0495315,-0.0620709l0.0295276 0.0743504 -0.029374 -0.074063c0.386358,-0.153437 0.381996,-0.599508 0.380079,-0.652819 -0.000354331,-0.00306693 -0.000547244,-0.00618504 -0.000547244,-0.00934646l0 -1.04546c0,-0.298807 0.0457008,-0.318972 0.226272,-0.398646 0.0280276,-0.0123661 0.0602717,-0.0265984 0.096685,-0.0445472 -0.0797638,-0.00563386 -0.183697,-0.00837402 -0.300972,-0.0112638 -0.0619488,-0.00152362 -0.117386,0.0419409 -0.165591,0.135736 -0.0592165,0.115232 -0.103732,0.296602 -0.132063,0.551118 -0.0138858,0.124783 -0.0379409,0.219335 -0.0669843,0.290913 -0.0301693,0.0743465 -0.0665512,0.125976 -0.103524,0.161736 -0.00796457,0.00870866 -0.0179843,0.0157835 -0.0297047,0.0203937 -0.0411142,0.0161732 -0.0875591,-0.00404331 -0.103732,-0.0451575l0.0744449 -0.0292874 -0.074374 0.029063c-0.100862,-0.256374 -0.234811,-0.489197 -0.376886,-0.653622 -0.123614,-0.143055 -0.249437,-0.231551 -0.357618,-0.231551zm0.00042126 -0.159996c0.157886,0.000192913 0.32465,0.109909 0.477819,0.287169 0.127016,0.146996 0.247272,0.342535 0.345685,0.559618 0.0238071,-0.0592283 0.0437283,-0.139169 0.0557047,-0.246783 0.0305236,-0.274232 0.0807756,-0.474102 0.148937,-0.60674 0.079185,-0.154071 0.183783,-0.22513 0.311213,-0.221988 0.182075,0.00448425 0.333555,0.00865748 0.422012,0.0237441 0.2215,0.0377677 0.270193,0.10515 0.0532953,0.232016 -0.0894252,0.0522992 -0.157177,0.0822008 -0.21039,0.105681 -0.10426,0.0460039 -0.13065,0.0576496 -0.13065,0.252394l0 1.04546 -3.14961e-005 0.00216929c0.00226378,0.0624646 0.00739764,0.58398 -0.441409,0.791157 -0.0472717,0.188059 -0.140004,0.349382 -0.290232,0.463398 -0.14272,0.108319 -0.334614,0.171732 -0.585157,0.171732l-2.05126 0c-0.474067,0 -0.732839,-0.200283 -0.844276,-0.497594 -0.059122,-0.157748 -0.0742992,-0.341728 -0.0567087,-0.536087 0.0172244,-0.190311 0.0656693,-0.39074 0.134638,-0.585768 0.20939,-0.592118 0.618598,-1.14357 0.927787,-1.22795 0.0156339,-0.128492 0.0747205,-0.244024 0.162,-0.331303 0.102512,-0.102512 0.243992,-0.166146 0.399677,-0.166146l0.611205 0c0.155685,0 0.297161,0.0636339 0.399673,0.166146 0.0846417,0.0846417 0.142776,0.195846 0.160472,0.319681z"/>
   <path id="_627477448" class="fil1" d="M1.27408 4.45253c0.0120787,0.0424528 0.0562953,0.0670787 0.098748,0.055 0.0424528,-0.0120787 0.0670787,-0.0562953 0.055,-0.098748 -0.0645945,-0.226957 -0.146177,-0.426449 -0.220354,-0.60785 -0.176933,-0.432681 -0.308752,-0.755047 -0.0358189,-1.13502 0.0641929,-0.0893701 0.149051,-0.158516 0.243248,-0.203445 0.0897126,-0.0427874 0.187409,-0.063315 0.283197,-0.0581181 0.0944882,0.00512992 0.187445,0.0353622 0.269157,0.0940551 0.0749055,0.0538031 0.141126,0.132197 0.191563,0.237945 0.0189803,0.0398661 0.0666969,0.0567953 0.106563,0.037815 0.0398661,-0.0189803 0.0567953,-0.0666969 0.037815,-0.106563 -0.0624094,-0.130846 -0.14648,-0.229378 -0.242815,-0.298575 -0.107823,-0.0774488 -0.23011,-0.117323 -0.354157,-0.124055 -0.12276,-0.00666142 -0.246949,0.0191654 -0.360071,0.0731181 -0.117299,0.0559488 -0.223283,0.142496 -0.303878,0.254697 -0.324382,0.451602 -0.178339,0.808764 0.0176929,1.28815 0.0716417,0.175197 0.150437,0.367874 0.21411,0.591598z"/>
   <path id="_627476968" class="fil1" d="M3.12446 2.15196c0,0.0441811 0.0358189,0.08 0.08,0.08 0.0441811,0 0.08,-0.0358189 0.08,-0.08l0 -0.230272c0,-0.0441811 -0.0358189,-0.08 -0.08,-0.08 -0.0441811,0 -0.08,0.0358189 -0.08,0.08l0 0.230272z"/>
   <path id="_627477328" class="fil1" d="M3.20446 1.40985c0.0817047,0 0.155689,0.0331299 0.20924,0.0866811 0.0535512,0.0535472 0.0866811,0.127528 0.0866811,0.20924 0,0.0817047 -0.0331299,0.155689 -0.0866811,0.20924 -0.0535512,0.0535512 -0.127535,0.0866811 -0.20924,0.0866811 -0.0817008,0 -0.155685,-0.0331299 -0.20924,-0.0866772 -0.0535472,-0.0535551 -0.0866772,-0.127539 -0.0866772,-0.209244 0,-0.0817087 0.0331299,-0.155689 0.0866772,-0.209244 0.0535551,-0.0535472 0.127539,-0.0866772 0.20924,-0.0866772zm0.0961142 0.199807c-0.0245906,-0.0245906 -0.0585787,-0.0398071 -0.0961142,-0.0398071 -0.0375354,0 -0.0715236,0.0152126 -0.0961142,0.0398031 -0.0245906,0.0245906 -0.0398031,0.0585787 -0.0398031,0.0961181 0,0.0375394 0.0152165,0.0715276 0.0398031,0.0961181 0.0245906,0.0245906 0.0585787,0.0398031 0.0961142,0.0398031 0.0375354,0 0.0715236,-0.0152165 0.0961142,-0.0398071 0.0245906,-0.0245906 0.0398071,-0.0585787 0.0398071,-0.0961142 0,-0.0375394 -0.0152165,-0.0715276 -0.0398071,-0.0961142z"/>
  </g>
  <path class="fil1" d="M2.41304 2.55796c-0.0441811,0 -0.08,0.0358189 -0.08,0.08 0,0.0441811 0.0358189,0.08 0.08,0.08l1.6198 0c0.0441811,0 0.08,-0.0358189 0.08,-0.08 0,-0.0441811 -0.0358189,-0.08 -0.08,-0.08l-1.6198 0z"/>
  <g id="_627477088">
   <path id="_627477304" class="fil1" d="M3.9545 4.1188c-0.0806929,-0.0828976 -0.188374,-0.185957 -0.308807,-0.281287 -0.180717,-0.143051 -0.389181,-0.268587 -0.571224,-0.276646 -0.0808622,-0.00357874 -0.145752,0.0174213 -0.193165,0.0528661 -0.0384449,0.0287362 -0.065752,0.0669488 -0.0808661,0.108961 -0.0153425,0.0426339 -0.0185591,0.0893071 -0.00858661,0.134256 0.0118504,0.0534173 0.042815,0.104772 0.094748,0.144445 0.13511,0.103217 0.381858,0.135752 0.621866,0.139122 0.16363,0.00229921 0.323776,-0.0092874 0.446035,-0.0217165zm-0.210059 -0.406287c0.192409,0.152299 0.352831,0.322173 0.430319,0.408543 0.0131024,0.0121969 0.0222205,0.0288425 0.0247638,0.0479724 0.00582677,0.0437953 -0.0249488,0.0840276 -0.0687441,0.0898543l-0.0105551 -0.0792992 0.010311 0.079063c-0.115283,0.0153465 -0.364205,0.0448976 -0.623945,0.041248 -0.268638,-0.00377559 -0.549457,-0.0437323 -0.716866,-0.171626 -0.0835984,-0.0638661 -0.133815,-0.148228 -0.153496,-0.236941 -0.0165197,-0.0744685 -0.0112008,-0.15178 0.0142087,-0.222382 0.025626,-0.0712244 0.071311,-0.135547 0.135244,-0.183339 0.0750472,-0.0560984 0.17472,-0.0894724 0.295661,-0.0841181 0.221815,0.0098189 0.460591,0.150724 0.663098,0.311024z"/>
   <path id="_627477280" class="fil1" d="M2.32635 3.50937c-0.0434921,-0.00672835 -0.0842126,0.0230709 -0.0909409,0.066563 -0.00672835,0.0434921 0.0230709,0.0842126 0.066563,0.0909409 0.00204331,0.000318898 0.709449,0.108953 1.18111,0.420366 0.0367598,0.0243346 0.0862913,0.0142598 0.110626,-0.0225 0.0243346,-0.0367598 0.0142598,-0.0862913 -0.0225,-0.110626 -0.500524,-0.330469 -1.24271,-0.444409 -1.24486,-0.444744z"/>
  </g>
  <path class="fil2" d="M2.50098 2.55796l1.40694 0c-0.0160866,-0.079685 -0.0557441,-0.151146 -0.111319,-0.20672 -0.0735906,-0.0735906 -0.175031,-0.119272 -0.286547,-0.119272l-0.305602 0 -0.305602 0c-0.111516,0 -0.212961,0.0456811 -0.286551,0.119272 -0.0555748,0.0555748 -0.0952323,0.127035 -0.111319,0.20672z"/>
  <path class="fil2" d="M3.20446 1.84169c0.0375354,0 0.0715236,-0.0152165 0.0961142,-0.0398071 0.0245906,-0.0245906 0.0398071,-0.0585787 0.0398071,-0.0961142 0,-0.0375394 -0.0152165,-0.0715276 -0.0398071,-0.0961142 -0.0245906,-0.0245906 -0.0585787,-0.0398071 -0.0961142,-0.0398071 -0.0375354,0 -0.0715236,0.0152126 -0.0961142,0.0398031 -0.0245906,0.0245906 -0.0398031,0.0585787 -0.0398031,0.0961181 0,0.0375394 0.0152165,0.0715276 0.0398031,0.0961181 0.0245906,0.0245906 0.0585787,0.0398031 0.0961142,0.0398031z"/>
  <path class="fil3" d="M3.64569 3.83752c-0.180717,-0.143051 -0.389181,-0.268587 -0.571224,-0.276646 -0.0808622,-0.00357874 -0.145752,0.0174213 -0.193165,0.0528661 -0.00905906,0.00677165 -0.0175039,0.0140709 -0.025311,0.0218228 0.229677,0.0703189 0.495693,0.17361 0.71522,0.318551 0.0367598,0.0243346 0.0468346,0.0738661 0.0225,0.110626 -0.0243346,0.0367598 -0.0738661,0.0468346 -0.110626,0.0225 -0.212752,-0.140469 -0.473469,-0.239681 -0.69578,-0.306303 -0.00248425,0.0252087 -0.0010315,0.0508819 0.00454331,0.0760197 0.0118504,0.0534173 0.042815,0.104772 0.094748,0.144445 0.13511,0.103217 0.381858,0.135752 0.621866,0.139122 0.16363,0.00229921 0.323776,-0.0092874 0.446035,-0.0217165 -0.0806929,-0.0828976 -0.188374,-0.185957 -0.308807,-0.281287z"/>
 </g>
 <rect class="fil4" width="6.82666" height="6.82666"/>
</svg>
