<?xml version="1.0" encoding="iso-8859-1"?>
<!-- Generator: Adobe Illustrator 19.0.0, SVG Export Plug-In . SVG Version: 6.00 Build 0)  -->
<svg xmlns="http://www.w3.org/2000/svg" xmlns:xlink="http://www.w3.org/1999/xlink" version="1.1" id="Layer_1" x="0px" y="0px" viewBox="0 0 512 512" style="enable-background:new 0 0 512 512;" xml:space="preserve">
<path style="fill:#A0D755;" d="M392.611,418.472c-47.148,0-85.512-38.364-85.512-85.512v-68.409  c0-47.148,38.364-85.511,85.512-85.511s85.511,38.364,85.511,85.511v68.409C478.122,380.108,439.758,418.472,392.611,418.472z   M392.611,213.244c-28.293,0-51.307,23.014-51.307,51.307v68.409c0,28.293,23.014,51.307,51.307,51.307s51.307-23.014,51.307-51.307  v-68.409C443.917,236.259,420.903,213.244,392.611,213.244z"/>
<path style="fill:#87BE50;" d="M371.193,415.647l1.682-35.338c-18.522-7.748-31.572-26.048-31.572-47.349v-68.409  c0-24.208,16.87-44.501,39.458-49.87l1.665-34.976c-42.357,5.058-75.328,41.15-75.328,84.847v68.409  C307.099,372.701,334.393,406.102,371.193,415.647z"/>
<path style="fill:#B4E66E;" d="M316.843,503.983H75.025c-13.694,0-24.973-10.755-25.625-24.433L33.889,153.793  c-0.232-4.877,3.659-8.958,8.542-8.958h307.008c4.883,0,8.773,4.081,8.542,8.958l-15.512,325.757  C341.816,493.228,330.537,503.983,316.843,503.983z"/>
<path style="fill:#A0D755;" d="M124.063,396.885l-12.002-252.05H42.43c-4.883,0-8.773,4.081-8.542,8.957l15.513,325.757  c0.651,13.679,11.931,24.433,25.625,24.433h241.821c13.693,0,24.971-10.755,25.62-24.433l0.058-1.221H209.478  C163.832,478.33,126.235,442.479,124.063,396.885z"/>
<path d="M392.611,171.023c-9.461,0-18.712,1.417-27.626,4.208l1.003-21.058c0.214-4.503-1.447-8.958-4.56-12.221  c-3.112-3.263-7.482-5.134-11.99-5.134H42.43c-4.509,0-8.879,1.872-11.991,5.135c-3.112,3.263-4.773,7.717-4.559,12.222  l15.513,325.757C42.25,497.914,57.023,512,75.025,512h241.817c18.002,0,32.775-14.086,33.632-32.068l2.96-62.143  c12.256,5.709,25.597,8.7,39.176,8.7c51.572,0,93.528-41.956,93.528-93.528v-68.409  C486.139,212.979,444.183,171.023,392.611,171.023z M392.611,221.261c23.871,0,43.29,19.42,43.29,43.29v68.409  c0,23.871-19.42,43.29-43.29,43.29c-14.745,0-28.208-7.354-36.26-19.705l5.846-122.757  C370.277,225.808,381.251,221.261,392.611,221.261z M316.843,495.967H75.025c-9.43,0-17.169-7.379-17.616-16.798L41.897,153.411  c-0.003-0.062-0.011-0.228,0.146-0.393c0.158-0.166,0.325-0.166,0.387-0.166h307.008c0.063,0,0.229,0,0.387,0.166  c0.158,0.166,0.151,0.332,0.148,0.394L334.46,479.169C334.011,488.588,326.273,495.967,316.843,495.967z M470.105,332.96  c0,42.731-34.764,77.495-77.495,77.495c-13.457,0-26.642-3.548-38.338-10.274l1.005-21.098  c10.391,8.452,23.448,13.201,37.333,13.201c32.711,0,59.324-26.612,59.324-59.324v-68.409c0-32.711-26.612-59.324-59.324-59.324  c-10.386,0-20.535,2.773-29.429,7.859l0.978-20.538c9.068-3.632,18.621-5.491,28.451-5.491c42.731,0,77.495,34.764,77.495,77.495  V332.96z"/>
<path d="M224.123,239.844c-4.2-1.4-8.74,0.87-10.141,5.071l-51.307,153.921c-1.4,4.2,0.87,8.74,5.071,10.141  c0.841,0.28,1.695,0.414,2.536,0.414c3.356,0,6.484-2.125,7.604-5.483l51.307-153.921  C230.593,245.784,228.323,241.244,224.123,239.844z"/>
<path d="M141.744,275.985c-3.131-3.131-8.207-3.131-11.337,0l-42.756,42.756c-3.131,3.131-3.131,8.207,0,11.337l42.756,42.756  c1.565,1.565,3.617,2.348,5.668,2.348s4.103-0.782,5.668-2.348c3.131-3.131,3.131-8.207,0-11.337l-37.087-37.087l37.087-37.087  C144.875,284.192,144.875,279.115,141.744,275.985z"/>
<path d="M261.461,275.985c-3.131-3.131-8.207-3.131-11.337,0c-3.131,3.131-3.131,8.207,0,11.337l37.087,37.087l-37.087,37.087  c-3.131,3.131-3.131,8.207,0,11.337c1.565,1.565,3.617,2.348,5.668,2.348c2.051,0,4.103-0.782,5.668-2.348l42.756-42.756  c3.131-3.131,3.131-8.207,0-11.337L261.461,275.985z"/>
<path d="M179.366,110.63c0,4.427,3.589,8.017,8.017,8.017s8.017-3.589,8.017-8.017c0-10.399,3.18-15.169,7.204-21.207  c4.639-6.959,9.898-14.846,9.898-30.1s-5.258-23.142-9.898-30.1c-4.025-6.038-7.204-10.808-7.204-21.207  C195.4,3.589,191.81,0,187.383,0s-8.017,3.589-8.017,8.017c0,15.254,5.258,23.142,9.898,30.1c4.025,6.038,7.204,10.808,7.204,21.207  s-3.18,15.169-7.204,21.207C184.624,87.489,179.366,95.376,179.366,110.63z"/>
<path d="M238.62,52.251c0.723,3.852,4.089,6.541,7.87,6.541c0.49,0,0.988-0.045,1.487-0.139c4.351-0.817,7.217-5.006,6.402-9.357  c-1.707-9.104-5.589-14.926-9.013-20.063c-2.455-3.684-7.433-4.677-11.116-2.224c-3.683,2.456-4.68,7.433-2.224,11.118  C234.972,42.546,237.516,46.363,238.62,52.251z"/>
<path d="M230.139,118.647c4.427,0,8.017-3.589,8.017-8.017c0-10.399,3.179-15.168,7.203-21.206c2.456-3.684,1.46-8.661-2.223-11.117  c-3.683-2.456-8.661-1.46-11.116,2.223c-4.639,6.958-9.897,14.846-9.897,30.099C222.122,115.058,225.711,118.647,230.139,118.647z"/>
<path d="M136.611,110.63c0,4.427,3.589,8.017,8.017,8.017s8.017-3.589,8.017-8.017c0-10.399,3.18-15.169,7.204-21.207  c4.639-6.959,9.898-14.846,9.898-30.1s-5.255-23.136-9.892-30.09c-2.455-3.683-7.433-4.68-11.116-2.223  c-3.684,2.455-4.68,7.433-2.223,11.116c4.022,6.033,7.198,10.798,7.198,21.197s-3.18,15.169-7.204,21.207  C141.868,87.489,136.611,95.376,136.611,110.63z"/>
<g>
</g>
<g>
</g>
<g>
</g>
<g>
</g>
<g>
</g>
<g>
</g>
<g>
</g>
<g>
</g>
<g>
</g>
<g>
</g>
<g>
</g>
<g>
</g>
<g>
</g>
<g>
</g>
<g>
</g>
</svg>
