<?xml version="1.0" encoding="utf-8"?>
<!-- Generator: Adobe Illustrator 24.3.0, SVG Export Plug-In . SVG Version: 6.00 Build 0)  -->
<svg version="1.1" id="Layer_1" xmlns="http://www.w3.org/2000/svg" xmlns:xlink="http://www.w3.org/1999/xlink" x="0px" y="0px"
	 viewBox="0 0 300 300" enable-background="new 0 0 300 300" xml:space="preserve">
<g>
	<g>
		<g>
			<rect x="48.671" y="90.712" fill="#F4F4F4" width="202.658" height="123.997"/>
		</g>
		<g>
			<path fill="#AA6148" d="M269.952,72.089c0,10.284-8.339,18.623-18.623,18.623H48.671c-10.284,0-18.623-8.339-18.623-18.623
				v-24.41c0-10.281,8.338-18.623,18.623-18.623h202.658c10.284,0,18.623,8.341,18.623,18.623V72.089z"/>
		</g>
		<g>
			<path fill="#AA6148" d="M269.952,238c0,10.284-8.339,18.623-18.623,18.623H48.671c-10.284,0-18.623-8.338-18.623-18.623v-4.668
				c0-10.281,8.338-18.623,18.623-18.623h202.658c10.284,0,18.623,8.342,18.623,18.623V238z"/>
		</g>
		<g>
			<path fill="#BC715C" d="M55.247,72.089v-24.41c0-10.281,8.339-18.623,18.623-18.623H48.671c-10.284,0-18.623,8.341-18.623,18.623
				v24.41c0,10.284,8.338,18.623,18.623,18.623H73.87C63.586,90.712,55.247,82.374,55.247,72.089z"/>
		</g>
		<g>
			<path fill="#BC715C" d="M55.247,238v-4.668c0-10.281,8.339-18.623,18.623-18.623H48.671c-10.284,0-18.623,8.342-18.623,18.623
				V238c0,10.284,8.338,18.623,18.623,18.623H73.87C63.586,256.623,55.247,248.284,55.247,238z"/>
		</g>
		<g>
			<rect x="57.733" y="256.623" fill="#AA6148" width="16.63" height="14.321"/>
		</g>
		<g>
			<rect x="224.031" y="256.623" fill="#AA6148" width="16.63" height="14.321"/>
		</g>
		<g>
			<path fill="#9AE8CE" d="M74.091,59.883c0,6.853-5.557,12.41-12.407,12.41c-6.856,0-12.41-5.557-12.41-12.41
				c0-6.85,5.554-12.407,12.41-12.407C68.534,47.475,74.091,53.033,74.091,59.883z"/>
		</g>
		<g>
			<path fill="#AEF4DB" d="M56.343,59.883c0-5.613,3.756-10.305,8.876-11.835c-1.128-0.337-2.297-0.573-3.534-0.573
				c-6.856,0-12.41,5.557-12.41,12.407c0,6.853,5.554,12.41,12.41,12.41c1.237,0,2.407-0.236,3.534-0.573
				C60.098,70.191,56.343,65.499,56.343,59.883z"/>
		</g>
		<g>
			<path fill="#FFDA88" d="M112.802,59.883c0,6.853-5.557,12.41-12.41,12.41c-6.853,0-12.41-5.557-12.41-12.41
				c0-6.85,5.557-12.407,12.41-12.407C107.244,47.475,112.802,53.033,112.802,59.883z"/>
		</g>
		<g>
			<rect x="129.166" y="42.358" fill="#FFDA88" width="60.472" height="12.319"/>
		</g>
		<g>
			<rect x="129.354" y="66.119" fill="#F4F4F4" width="24.094" height="12.319"/>
		</g>
		<g>
			<rect x="165.543" y="66.119" fill="#F4F4F4" width="24.094" height="12.319"/>
		</g>
		<g>
			<rect x="221.046" y="47.475" fill="#F4F4F4" width="22.603" height="24.803"/>
		</g>
		<g>
			<rect x="117.544" y="90.712" fill="#9AE8CE" width="65.007" height="13.615"/>
		</g>
		<g>
			<rect x="137.088" y="104.327" fill="#9AE8CE" width="25.922" height="13.101"/>
		</g>
		<g>
			<rect x="48.671" y="90.712" fill="#F9F9F9" width="17.377" height="123.997"/>
		</g>
		<g>
			<path fill="#FFDA88" d="M130.695,214.709h40.47c8.991-6.36,14.882-16.816,14.882-28.668v-28.045h-70.227v28.045
				C115.819,197.893,121.707,208.349,130.695,214.709z"/>
		</g>
		<g>
			<path fill="#FFE2A9" d="M130.937,186.041v-28.045h-15.118v28.045c0,11.852,5.888,22.308,14.876,28.668h15.118
				C136.825,208.349,130.937,197.893,130.937,186.041z"/>
		</g>
		<g>
			<path fill="#FFDA88" d="M187.934,164.799h-1.887v7.52h1.887c7.169,0,13.004,5.835,13.004,13.004
				c0,7.169-5.835,13.004-13.004,13.004h-4.125c-1.004,2.675-2.315,5.2-3.91,7.521h8.034c11.318,0,20.525-9.207,20.525-20.525
				S199.251,164.799,187.934,164.799z"/>
		</g>
		<g>
			<rect x="57.733" y="256.623" fill="#BC715C" width="8.315" height="14.321"/>
		</g>
		<g>
			<rect x="224.031" y="256.623" fill="#BC715C" width="8.315" height="14.321"/>
		</g>
		<g>
			<path fill="#FFDA88" d="M178.783,125.365c0,4.382-3.555,7.937-7.937,7.937h-41.598c-4.382,0-7.937-3.555-7.937-7.937l0,0
				c0-4.382,3.555-7.937,7.937-7.937h41.598C175.228,117.428,178.783,120.984,178.783,125.365L178.783,125.365z"/>
		</g>
		<g>
			<path fill="#FFE2A9" d="M130.382,125.365c0-4.382,3.555-7.937,7.937-7.937h-9.071c-4.382,0-7.937,3.555-7.937,7.937
				c0,4.382,3.555,7.937,7.937,7.937h9.071C133.937,133.302,130.382,129.747,130.382,125.365z"/>
		</g>
		<g>
			<path fill="#AA6148" d="M121.264,125.365c0-1.822,0.638-3.478,1.671-4.819l-59.905-3.505c-4.592,0-8.321,3.726-8.321,8.324
				c0,4.597,3.729,8.324,8.321,8.324l59.905-3.505C121.902,128.844,121.264,127.187,121.264,125.365z"/>
		</g>
		<g>
			<path fill="#BC715C" d="M62.658,125.365c0-3.821,2.59-7.004,6.094-7.984l-5.817-0.34c-4.591,0-8.321,3.726-8.321,8.324
				c0,4.597,3.729,8.324,8.321,8.324l5.817-0.339C65.248,132.369,62.658,129.186,62.658,125.365z"/>
		</g>
		<g>
			<rect x="117.544" y="90.712" fill="#AEF4DB" width="11.811" height="13.615"/>
		</g>
		<g>
			<rect x="137.088" y="104.327" fill="#AEF4DB" width="11.811" height="13.101"/>
		</g>
		<g>
			<path fill="#FFE2A9" d="M95.05,59.883c0-5.613,3.756-10.305,8.876-11.835c-1.128-0.337-2.297-0.573-3.535-0.573
				c-6.856,0-12.41,5.557-12.41,12.407c0,6.853,5.554,12.41,12.41,12.41c1.237,0,2.407-0.236,3.535-0.573
				C98.806,70.191,95.05,65.499,95.05,59.883z"/>
		</g>
	</g>
	<g>
		<g>
			<path fill="#161616" d="M251.329,219.244H48.671c-2.505,0-4.535-2.031-4.535-4.535v-39.448c0-2.504,2.03-4.535,4.535-4.535
				c2.505,0,4.535,2.031,4.535,4.535v34.913h193.587V95.248H53.207v59.09c0,2.504-2.03,4.535-4.535,4.535
				c-2.505,0-4.535-2.031-4.535-4.535V90.712c0-2.504,2.03-4.535,4.535-4.535h202.658c2.504,0,4.535,2.031,4.535,4.535v123.997
				C255.864,217.213,253.833,219.244,251.329,219.244z"/>
		</g>
		<g>
			<path fill="#161616" d="M251.329,95.248H48.671c-12.769,0-23.158-10.388-23.158-23.158v-24.41
				c0-12.771,10.389-23.158,23.158-23.158h202.658c12.771,0,23.158,10.388,23.158,23.158v24.41
				C274.487,84.86,264.099,95.248,251.329,95.248z M48.671,33.592c-7.767,0-14.087,6.319-14.087,14.087v24.41
				c0,7.769,6.32,14.088,14.087,14.088h202.658c7.769,0,14.088-6.319,14.088-14.088v-24.41c0-7.769-6.319-14.087-14.088-14.087
				H48.671z"/>
		</g>
		<g>
			<path fill="#161616" d="M251.329,261.158h-58.316c-2.504,0-4.535-2.031-4.535-4.535c0-2.504,2.031-4.535,4.535-4.535h58.316
				c7.769,0,14.088-6.319,14.088-14.087v-4.668c0-7.769-6.319-14.087-14.088-14.087H48.671c-7.767,0-14.087,6.319-14.087,14.087V238
				c0,7.769,6.32,14.087,14.087,14.087h123.418c2.504,0,4.535,2.031,4.535,4.535c0,2.504-2.032,4.535-4.535,4.535H48.671
				c-12.769,0-23.158-10.388-23.158-23.158v-4.668c0-12.771,10.389-23.158,23.158-23.158h202.658
				c12.771,0,23.158,10.388,23.158,23.158V238C274.487,250.771,264.099,261.158,251.329,261.158z"/>
		</g>
		<g>
			<path fill="#161616" d="M74.363,275.479h-16.63c-2.505,0-4.535-2.031-4.535-4.535v-14.321c0-2.504,2.03-4.535,4.535-4.535h16.63
				c2.505,0,4.535,2.031,4.535,4.535v14.321C78.898,273.448,76.868,275.479,74.363,275.479z M62.269,266.408h7.559v-5.25h-7.559
				V266.408z"/>
		</g>
		<g>
			<path fill="#161616" d="M240.661,275.479h-16.63c-2.504,0-4.535-2.031-4.535-4.535v-14.321c0-2.504,2.031-4.535,4.535-4.535
				h16.63c2.504,0,4.535,2.031,4.535,4.535v14.321C245.196,273.448,243.164,275.479,240.661,275.479z M228.566,266.408h7.559v-5.25
				h-7.559V266.408z"/>
		</g>
		<g>
			<path fill="#161616" d="M61.682,76.828c-9.342,0-16.944-7.603-16.944-16.946c0-9.343,7.602-16.943,16.944-16.943
				c9.343,0,16.944,7.6,16.944,16.943C78.627,69.225,71.025,76.828,61.682,76.828z M61.682,52.011c-4.342,0-7.873,3.532-7.873,7.872
				c0,4.343,3.531,7.875,7.873,7.875s7.874-3.532,7.874-7.875C69.556,55.542,66.024,52.011,61.682,52.011z"/>
		</g>
		<g>
			<path fill="#161616" d="M100.391,76.828c-9.342,0-16.944-7.603-16.944-16.946c0-9.343,7.602-16.943,16.944-16.943
				s16.944,7.6,16.944,16.943C117.335,69.225,109.734,76.828,100.391,76.828z M100.391,52.011c-4.342,0-7.873,3.532-7.873,7.872
				c0,4.343,3.531,7.875,7.873,7.875s7.873-3.532,7.873-7.875C108.265,55.542,104.733,52.011,100.391,52.011z"/>
		</g>
		<g>
			<path fill="#161616" d="M189.637,59.213h-60.472c-2.505,0-4.535-2.032-4.535-4.535V42.358c0-2.504,2.03-4.535,4.535-4.535h60.472
				c2.504,0,4.535,2.032,4.535,4.535v12.319C194.173,57.181,192.141,59.213,189.637,59.213z M133.701,50.142h51.401v-3.248h-51.401
				V50.142z"/>
		</g>
		<g>
			<path fill="#161616" d="M153.449,82.973h-24.094c-2.505,0-4.535-2.032-4.535-4.535V66.119c0-2.504,2.03-4.535,4.535-4.535h24.094
				c2.504,0,4.535,2.032,4.535,4.535v12.319C157.984,80.942,155.953,82.973,153.449,82.973z M133.89,73.902h15.023v-3.248H133.89
				V73.902z"/>
		</g>
		<g>
			<path fill="#161616" d="M189.637,82.973h-24.094c-2.504,0-4.535-2.032-4.535-4.535V66.119c0-2.504,2.031-4.535,4.535-4.535
				h24.094c2.504,0,4.535,2.032,4.535,4.535v12.319C194.173,80.942,192.141,82.973,189.637,82.973z M170.079,73.902h15.023v-3.248
				h-15.023V73.902z"/>
		</g>
		<g>
			<path fill="#161616" d="M243.649,76.814h-22.603c-2.504,0-4.535-2.031-4.535-4.535V47.475c0-2.504,2.031-4.535,4.535-4.535
				h22.603c2.504,0,4.535,2.032,4.535,4.535v24.803C248.184,74.782,246.153,76.814,243.649,76.814z M225.581,67.743h13.532V52.011
				h-13.532V67.743z"/>
		</g>
		<g>
			<path fill="#161616" d="M182.551,108.863h-65.007c-2.505,0-4.535-2.032-4.535-4.535V90.712c0-2.504,2.03-4.535,4.535-4.535
				h65.007c2.504,0,4.535,2.031,4.535,4.535v13.615C187.086,106.831,185.055,108.863,182.551,108.863z M122.079,99.792h55.936
				v-4.544h-55.936V99.792z"/>
		</g>
		<g>
			<path fill="#161616" d="M163.01,121.964h-25.922c-2.505,0-4.535-2.031-4.535-4.535v-13.101c0-2.504,2.03-4.535,4.535-4.535
				h25.922c2.504,0,4.535,2.032,4.535,4.535v13.101C167.545,119.932,165.514,121.964,163.01,121.964z M141.623,112.893h16.851v-4.03
				h-16.851V112.893z"/>
		</g>
		<g>
			<path fill="#161616" d="M170.799,137.838h-41.598c-6.877,0-12.472-5.595-12.472-12.472c0-6.877,5.595-12.472,12.472-12.472
				h41.598c6.877,0,12.472,5.595,12.472,12.472C183.271,132.242,177.676,137.838,170.799,137.838z M129.201,121.964
				c-1.875,0-3.402,1.527-3.402,3.402s1.527,3.402,3.402,3.402h41.598c1.875,0,3.401-1.527,3.401-3.402s-1.526-3.402-3.401-3.402
				H129.201z"/>
		</g>
		<g>
			<path fill="#161616" d="M171.165,219.244h-40.471c-0.939,0-1.854-0.292-2.619-0.833c-10.515-7.441-16.792-19.541-16.792-32.371
				v-28.045c0-2.504,2.03-4.535,4.535-4.535h70.229c2.504,0,4.535,2.031,4.535,4.535v28.045c0,12.83-6.281,24.93-16.798,32.371
				C173.019,218.952,172.104,219.244,171.165,219.244z M132.191,210.174h37.477c7.441-5.787,11.843-14.708,11.843-24.133v-23.51
				h-61.158v23.51C120.353,195.466,124.753,204.386,132.191,210.174z"/>
		</g>
		<g>
			<path fill="#161616" d="M187.934,164.799h-1.887v7.52h1.887c7.169,0,13.004,5.835,13.004,13.004
				c0,7.169-5.835,13.004-13.004,13.004h-4.125c-1.004,2.675-2.315,5.2-3.91,7.521h8.034c11.318,0,20.525-9.207,20.525-20.525
				S199.251,164.799,187.934,164.799z"/>
		</g>
		<g>
			<path fill="#161616" d="M63.281,138.216c-7.348,0-13.107-5.764-13.107-12.85c0-7.09,5.768-12.859,12.858-12.859l60.18,3.499
				c1.68,0.097,3.168,1.116,3.865,2.652c0.697,1.533,0.486,3.325-0.545,4.654c-0.334,0.431-0.732,1.137-0.732,2.055
				c0,0.918,0.399,1.624,0.732,2.055c1.03,1.329,1.242,3.121,0.545,4.654c-0.697,1.535-2.185,2.554-3.865,2.651l-59.915,3.49
				C63.292,138.216,63.286,138.216,63.281,138.216z M62.768,121.568c-1.823,0.009-3.523,1.71-3.523,3.797s1.699,3.788,3.787,3.788
				l53.715-3.136c-0.012-0.215-0.018-0.434-0.018-0.652c0-0.219,0.006-0.434,0.018-0.653L62.768,121.568z"/>
		</g>
	</g>
</g>
</svg>
