<?xml version="1.0" encoding="UTF-8"?>
<svg xmlns="http://www.w3.org/2000/svg" xmlns:xlink="http://www.w3.org/1999/xlink" width="655px" height="655px" viewBox="0 0 328 328" version="1.1">
<g id="surface1">
<path style=" stroke:none;fill-rule:nonzero;fill:rgb(20%,20%,20%);fill-opacity:1;" d="M 121.558594 101.679688 L 206.726562 101.679688 C 208.628906 101.679688 210.207031 103.058594 210.519531 104.871094 L 215.636719 125.621094 L 215.644531 125.617188 C 216.15625 127.679688 214.894531 129.765625 212.832031 130.273438 C 212.40625 130.378906 211.980469 130.410156 211.5625 130.371094 L 116.296875 130.386719 L 116.296875 130.402344 C 114.171875 130.402344 112.449219 128.679688 112.449219 126.554688 C 112.449219 126.140625 112.515625 125.742188 112.636719 125.371094 L 117.757812 104.609375 L 121.484375 105.527344 L 117.75 104.605469 C 118.1875 102.824219 119.800781 101.644531 121.558594 101.679688 Z M 203.722656 109.371094 L 124.488281 109.371094 L 121.195312 122.722656 L 207.015625 122.707031 Z M 203.722656 109.371094 "/>
<path style=" stroke:none;fill-rule:nonzero;fill:rgb(20%,20%,20%);fill-opacity:1;" d="M 217.875 146.96875 C 218.039062 144.855469 216.460938 143.003906 214.34375 142.835938 C 212.226562 142.671875 210.378906 144.253906 210.210938 146.367188 L 200.480469 270.476562 C 200.273438 273.070312 199.210938 275.410156 197.554688 277.066406 C 196.054688 278.566406 194.046875 279.496094 191.746094 279.496094 L 136.464844 279.496094 C 134.167969 279.496094 132.15625 278.566406 130.65625 277.066406 C 129 275.410156 127.9375 273.070312 127.734375 270.476562 L 118 146.351562 C 117.832031 144.234375 115.984375 142.652344 113.867188 142.820312 C 111.75 142.984375 110.171875 144.835938 110.335938 146.949219 L 120.070312 271.078125 C 120.417969 275.519531 122.292969 279.578125 125.21875 282.503906 C 128.109375 285.398438 132.003906 287.1875 136.464844 287.1875 L 191.746094 287.1875 C 196.210938 287.1875 200.101562 285.398438 202.996094 282.503906 C 205.917969 279.578125 207.792969 275.519531 208.140625 271.078125 Z M 217.875 146.96875 "/>
<path style=" stroke:none;fill-rule:nonzero;fill:rgb(20%,20%,20%);fill-opacity:1;" d="M 116.359375 168.933594 C 114.234375 168.933594 112.511719 170.65625 112.511719 172.78125 C 112.511719 174.90625 114.234375 176.628906 116.359375 176.628906 L 211.855469 176.628906 C 213.980469 176.628906 215.703125 174.90625 215.703125 172.78125 C 215.703125 170.65625 213.980469 168.933594 211.855469 168.933594 Z M 116.359375 168.933594 "/>
<path style=" stroke:none;fill-rule:nonzero;fill:rgb(20%,20%,20%);fill-opacity:1;" d="M 205.890625 254.019531 C 208.015625 254.019531 209.738281 252.296875 209.738281 250.171875 C 209.738281 248.046875 208.015625 246.328125 205.890625 246.328125 L 122.320312 246.328125 C 120.199219 246.328125 118.476562 248.046875 118.476562 250.171875 C 118.476562 252.296875 120.199219 254.019531 122.320312 254.019531 Z M 205.890625 254.019531 "/>
<path style=" stroke:none;fill-rule:nonzero;fill:rgb(20%,20%,20%);fill-opacity:1;" d="M 109.84375 122.703125 L 218.441406 122.703125 C 220.34375 122.703125 221.921875 124.082031 222.230469 125.894531 L 227.105469 145.734375 L 223.378906 146.648438 L 227.117188 145.730469 C 227.621094 147.792969 226.363281 149.878906 224.296875 150.382812 C 223.964844 150.464844 223.632812 150.5 223.304688 150.496094 L 104.832031 150.496094 C 102.707031 150.496094 100.988281 148.773438 100.988281 146.648438 C 100.988281 146.238281 101.050781 145.839844 101.171875 145.46875 L 106.046875 125.632812 L 106.039062 125.628906 C 106.472656 123.851562 108.085938 122.667969 109.84375 122.703125 Z M 215.433594 130.394531 L 112.777344 130.394531 L 109.730469 142.804688 L 218.484375 142.804688 Z M 215.433594 130.394531 "/>
<path style=" stroke:none;fill-rule:nonzero;fill:rgb(20%,20%,20%);fill-opacity:1;" d="M 164.105469 184.597656 C 169.867188 184.597656 174.980469 187.808594 178.589844 192.996094 C 181.917969 197.777344 183.976562 204.316406 183.976562 211.476562 C 183.976562 218.636719 181.917969 225.175781 178.589844 229.957031 C 174.980469 235.148438 169.867188 238.355469 164.105469 238.355469 C 158.34375 238.355469 153.230469 235.148438 149.621094 229.957031 C 146.292969 225.175781 144.238281 218.636719 144.238281 211.476562 C 144.238281 204.316406 146.292969 197.777344 149.621094 192.996094 C 153.230469 187.808594 158.34375 184.597656 164.105469 184.597656 Z M 172.28125 197.382812 C 170.089844 194.238281 167.191406 192.289062 164.105469 192.289062 C 161.019531 192.289062 158.121094 194.238281 155.929688 197.382812 C 153.457031 200.9375 151.929688 205.917969 151.929688 211.476562 C 151.929688 217.039062 153.457031 222.015625 155.929688 225.570312 C 158.121094 228.71875 161.019531 230.664062 164.105469 230.664062 C 167.191406 230.664062 170.089844 228.71875 172.28125 225.570312 C 174.753906 222.015625 176.28125 217.039062 176.28125 211.476562 C 176.28125 205.917969 174.753906 200.9375 172.28125 197.382812 Z M 172.28125 197.382812 "/>
<path style=" stroke:none;fill-rule:nonzero;fill:rgb(20%,20%,20%);fill-opacity:1;" d="M 160.511719 232.242188 C 159.257812 233.949219 159.628906 236.351562 161.335938 237.605469 C 163.046875 238.859375 165.449219 238.488281 166.699219 236.777344 C 172.921875 228.300781 170.488281 220.023438 167.914062 211.25 C 165.894531 204.375 163.761719 197.121094 167.078125 190.066406 C 167.972656 188.148438 167.144531 185.871094 165.230469 184.972656 C 163.3125 184.078125 161.03125 184.90625 160.136719 186.820312 C 155.585938 196.511719 158.132812 205.183594 160.550781 213.410156 C 162.578125 220.308594 164.488281 226.820312 160.511719 232.242188 Z M 160.511719 232.242188 "/>
<path style=" stroke:none;fill-rule:nonzero;fill:rgb(20%,20%,20%);fill-opacity:1;" d="M 140.863281 86.847656 C 139.6875 88.617188 140.164062 91.003906 141.929688 92.183594 C 143.699219 93.359375 146.085938 92.882812 147.265625 91.117188 C 152.890625 82.679688 150.339844 75.671875 147.871094 68.890625 C 146.199219 64.300781 144.582031 59.847656 147.265625 55.8125 C 148.433594 54.046875 147.949219 51.664062 146.183594 50.496094 C 144.417969 49.324219 142.035156 49.808594 140.863281 51.574219 C 136.042969 58.824219 138.316406 65.066406 140.660156 71.503906 C 142.472656 76.484375 144.34375 81.628906 140.863281 86.847656 Z M 140.863281 86.847656 "/>
<path style=" stroke:none;fill-rule:nonzero;fill:rgb(20%,20%,20%);fill-opacity:1;" d="M 160.640625 78.027344 C 159.460938 79.792969 159.9375 82.183594 161.707031 83.359375 C 163.472656 84.539062 165.863281 84.0625 167.039062 82.292969 C 172.664062 73.855469 170.113281 66.851562 167.648438 60.070312 C 165.976562 55.476562 164.355469 51.027344 167.039062 46.992188 C 168.210938 45.222656 167.726562 42.84375 165.957031 41.671875 C 164.191406 40.503906 161.808594 40.988281 160.640625 42.753906 C 155.820312 50 158.089844 56.242188 160.433594 62.683594 C 162.246094 67.664062 164.117188 72.808594 160.640625 78.027344 Z M 160.640625 78.027344 "/>
<path style=" stroke:none;fill-rule:nonzero;fill:rgb(20%,20%,20%);fill-opacity:1;" d="M 180.414062 86.847656 C 179.234375 88.617188 179.714844 91.003906 181.480469 92.183594 C 183.246094 93.359375 185.636719 92.882812 186.8125 91.117188 C 192.4375 82.679688 189.890625 75.671875 187.421875 68.890625 C 185.75 64.300781 184.128906 59.847656 186.8125 55.8125 C 187.984375 54.046875 187.5 51.664062 185.734375 50.496094 C 183.964844 49.324219 181.582031 49.808594 180.414062 51.574219 C 175.59375 58.824219 177.867188 65.066406 180.210938 71.503906 C 182.023438 76.484375 183.894531 81.628906 180.414062 86.847656 Z M 180.414062 86.847656 "/>
<path style=" stroke:none;fill-rule:evenodd;fill:rgb(70.196078%,55.686275%,52.156863%);fill-opacity:1;" d="M 201.769531 254.019531 L 126.445312 254.019531 L 127.734375 270.476562 C 127.9375 273.070312 129 275.410156 130.65625 277.066406 C 132.15625 278.566406 134.167969 279.496094 136.464844 279.496094 L 191.746094 279.496094 C 194.046875 279.496094 196.054688 278.566406 197.554688 277.066406 C 199.210938 275.410156 200.277344 273.070312 200.480469 270.476562 Z M 201.769531 254.019531 "/>
<path style=" stroke:none;fill-rule:evenodd;fill:rgb(100%,82.745098%,70.196078%);fill-opacity:1;" d="M 125.839844 246.328125 L 202.371094 246.328125 L 207.839844 176.628906 L 120.375 176.628906 Z M 178.589844 192.996094 C 181.917969 197.777344 183.976562 204.316406 183.976562 211.476562 C 183.976562 218.636719 181.917969 225.175781 178.589844 229.957031 C 174.980469 235.148438 169.867188 238.355469 164.105469 238.355469 C 163.933594 238.355469 163.761719 238.355469 163.589844 238.347656 C 163.488281 238.347656 163.386719 238.34375 163.28125 238.335938 C 157.859375 238.042969 153.058594 234.898438 149.621094 229.957031 C 146.292969 225.175781 144.238281 218.636719 144.238281 211.476562 C 144.238281 204.316406 146.292969 197.777344 149.621094 192.996094 C 153.230469 187.808594 158.34375 184.597656 164.105469 184.597656 C 169.867188 184.597656 174.980469 187.808594 178.589844 192.996094 Z M 178.589844 192.996094 "/>
<path style=" stroke:none;fill-rule:evenodd;fill:rgb(100%,82.745098%,70.196078%);fill-opacity:1;" d="M 119.769531 168.933594 L 208.441406 168.933594 L 209.886719 150.496094 L 118.324219 150.496094 Z M 119.769531 168.933594 "/>
<path style=" stroke:none;fill-rule:evenodd;fill:rgb(70.196078%,55.686275%,52.156863%);fill-opacity:1;" d="M 109.730469 142.804688 L 218.484375 142.804688 L 215.433594 130.394531 L 116.296875 130.394531 L 116.296875 130.402344 C 116.210938 130.402344 116.125 130.398438 116.042969 130.394531 L 112.777344 130.394531 Z M 109.730469 142.804688 "/>
<path style=" stroke:none;fill-rule:evenodd;fill:rgb(70.196078%,55.686275%,52.156863%);fill-opacity:1;" d="M 121.199219 122.703125 L 207.011719 122.703125 L 203.726562 109.371094 L 124.488281 109.371094 Z M 121.199219 122.703125 "/>
<path style=" stroke:none;fill-rule:evenodd;fill:rgb(70.196078%,55.686275%,52.156863%);fill-opacity:1;" d="M 172.28125 197.382812 C 170.574219 194.933594 168.441406 193.210938 166.121094 192.570312 C 164.261719 198.828125 166.128906 205.183594 167.914062 211.25 C 169.574219 216.898438 171.171875 222.34375 170.4375 227.769531 C 171.09375 227.125 171.710938 226.390625 172.28125 225.570312 C 174.753906 222.015625 176.28125 217.039062 176.28125 211.476562 C 176.28125 205.917969 174.753906 200.9375 172.28125 197.382812 Z M 172.28125 197.382812 "/>
<path style=" stroke:none;fill-rule:evenodd;fill:rgb(70.196078%,55.686275%,52.156863%);fill-opacity:1;" d="M 160.550781 213.410156 C 158.851562 207.625 157.085938 201.613281 157.773438 195.1875 C 157.117188 195.828125 156.5 196.566406 155.929688 197.382812 C 153.457031 200.9375 151.929688 205.917969 151.929688 211.476562 C 151.929688 217.039062 153.457031 222.015625 155.929688 225.570312 C 157.539062 227.878906 159.523438 229.542969 161.6875 230.265625 C 164.035156 225.265625 162.335938 219.492188 160.550781 213.410156 Z M 160.550781 213.410156 "/>
</g>
</svg>
