<?xml version="1.0" encoding="UTF-8"?>
<svg xmlns="http://www.w3.org/2000/svg" xmlns:xlink="http://www.w3.org/1999/xlink" width="150px" height="150px" viewBox="0 0 150 150" version="1.1">
<g id="surface1">
<path style=" stroke:none;fill-rule:nonzero;fill:rgb(85.882353%,49.411765%,33.72549%);fill-opacity:1;" d="M 104.40625 31.078125 C 94.71875 31.078125 86.09375 37.46875 80.507812 47.421875 C 81.367188 48.058594 82.183594 48.757812 82.953125 49.527344 C 93.761719 60.332031 91.472656 80.515625 78.382812 96.753906 C 83.746094 109.121094 93.394531 117.375 104.40625 117.375 C 121.253906 117.375 134.910156 98.058594 134.910156 74.226562 C 134.910156 50.394531 121.253906 31.078125 104.40625 31.078125 Z M 104.40625 31.078125 "/>
<path style=" stroke:none;fill-rule:nonzero;fill:rgb(89.803922%,58.039216%,46.666667%);fill-opacity:1;" d="M 104.40625 117.34375 C 103.777344 117.34375 103.152344 117.085938 102.707031 116.585938 C 101.875 115.660156 101.964844 114.25 102.902344 113.429688 C 115.851562 102.140625 115.773438 89.613281 102.660156 74.011719 C 83.277344 50.953125 102.625 31.878906 102.820312 31.691406 C 103.71875 30.828125 105.152344 30.847656 106.027344 31.734375 C 106.902344 32.613281 106.882812 34.03125 105.988281 34.890625 C 105.269531 35.59375 89.5 51.347656 106.152344 71.160156 C 120.765625 88.546875 120.683594 103.898438 105.90625 116.78125 C 105.476562 117.15625 104.9375 117.34375 104.40625 117.34375 Z M 104.40625 117.34375 "/>
<path style=" stroke:none;fill-rule:nonzero;fill:rgb(66.666667%,38.039216%,28.235294%);fill-opacity:1;" d="M 74.015625 101.578125 C 57.164062 118.425781 33.847656 122.429688 21.933594 110.515625 C 10.019531 98.601562 14.023438 75.285156 30.871094 58.433594 C 47.722656 41.582031 71.039062 37.582031 82.953125 49.492188 C 94.867188 61.40625 90.867188 84.726562 74.015625 101.578125 Z M 74.015625 101.578125 "/>
<path style=" stroke:none;fill-rule:nonzero;fill:rgb(73.72549%,44.313725%,36.078431%);fill-opacity:1;" d="M 37.082031 63.535156 C 51.832031 48.785156 71.539062 43.878906 84.214844 50.878906 C 83.8125 50.402344 83.398438 49.9375 82.953125 49.492188 C 71.039062 37.578125 47.722656 41.582031 30.871094 58.433594 C 14.019531 75.285156 10.019531 98.601562 21.933594 110.515625 C 23.417969 112 25.078125 113.238281 26.882812 114.234375 C 16.554688 101.96875 20.859375 79.757812 37.082031 63.535156 Z M 37.082031 63.535156 "/>
<path style=" stroke:none;fill-rule:nonzero;fill:rgb(89.803922%,58.039216%,46.666667%);fill-opacity:1;" d="M 86.0625 84.175781 C 84.179688 88.472656 81.601562 92.730469 78.359375 96.742188 C 83.722656 109.117188 93.371094 117.375 104.386719 117.375 C 106.324219 117.375 108.21875 117.109375 110.054688 116.617188 C 98.214844 113.46875 88.816406 100.640625 86.0625 84.175781 Z M 86.0625 84.175781 "/>
<path style=" stroke:none;fill-rule:nonzero;fill:rgb(89.803922%,58.039216%,46.666667%);fill-opacity:1;" d="M 82.953125 49.492188 C 85.078125 51.617188 86.6875 54.109375 87.816406 56.859375 C 91.808594 44.046875 100.0625 34.492188 110.050781 31.832031 C 108.214844 31.34375 106.324219 31.078125 104.386719 31.078125 C 94.710938 31.078125 86.097656 37.453125 80.507812 47.386719 C 81.367188 48.023438 82.183594 48.722656 82.953125 49.492188 Z M 82.953125 49.492188 "/>
<path style=" stroke:none;fill-rule:nonzero;fill:rgb(73.72549%,44.313725%,36.078431%);fill-opacity:1;" d="M 21.957031 110.492188 C 21.511719 110.050781 21.25 109.429688 21.289062 108.757812 C 21.355469 107.515625 22.417969 106.578125 23.660156 106.664062 C 40.796875 107.835938 49.597656 98.925781 51.359375 78.621094 C 53.960938 48.609375 81.125 48.800781 81.398438 48.808594 C 82.644531 48.832031 83.648438 49.859375 83.636719 51.105469 C 83.632812 52.347656 82.617188 53.335938 81.378906 53.308594 C 80.371094 53.296875 58.078125 53.289062 55.84375 79.070312 C 53.882812 101.699219 42.972656 112.496094 23.414062 111.15625 C 22.84375 111.117188 22.332031 110.871094 21.957031 110.492188 Z M 21.957031 110.492188 "/>
<path style=" stroke:none;fill-rule:nonzero;fill:rgb(85.882353%,49.411765%,33.72549%);fill-opacity:1;" d="M 38.953125 131.097656 C 30.46875 131.097656 22.972656 128.601562 18.152344 124.148438 C 17.230469 123.300781 17.171875 121.867188 18.023438 120.945312 C 18.871094 120.027344 20.308594 119.96875 21.226562 120.816406 C 30.355469 129.246094 52.046875 129.074219 68.574219 115.351562 C 69.539062 114.550781 70.96875 114.6875 71.769531 115.648438 C 72.566406 116.613281 72.4375 118.042969 71.472656 118.84375 C 61.226562 127.347656 49.351562 131.097656 38.953125 131.097656 Z M 38.953125 131.097656 "/>
<path style=" stroke:none;fill-rule:nonzero;fill:rgb(66.666667%,38.039216%,28.235294%);fill-opacity:1;" d="M 78.101562 34.035156 C 77.585938 34.035156 77.0625 33.859375 76.636719 33.496094 C 75.679688 32.6875 75.5625 31.257812 76.371094 30.300781 C 76.765625 29.835938 86.222656 18.875 101.523438 18.875 C 102.777344 18.875 103.789062 19.890625 103.789062 21.140625 C 103.789062 22.394531 102.777344 23.410156 101.523438 23.410156 C 88.304688 23.410156 79.917969 33.132812 79.832031 33.230469 C 79.386719 33.761719 78.746094 34.035156 78.101562 34.035156 Z M 78.101562 34.035156 "/>
<path style=" stroke:none;fill-rule:nonzero;fill:rgb(66.666667%,38.039216%,28.235294%);fill-opacity:1;" d="M 117.046875 26.753906 C 116.589844 26.753906 116.128906 26.613281 115.726562 26.328125 C 113.785156 24.929688 110.65625 24.46875 110.628906 24.464844 C 109.386719 24.292969 108.519531 23.148438 108.691406 21.90625 C 108.859375 20.664062 110.007812 19.796875 111.246094 19.96875 C 111.675781 20.03125 115.542969 20.609375 118.375 22.640625 C 119.390625 23.375 119.621094 24.789062 118.890625 25.808594 C 118.449219 26.425781 117.753906 26.753906 117.046875 26.753906 Z M 117.046875 26.753906 "/>
<path style=" stroke:none;fill-rule:nonzero;fill:rgb(8.627451%,8.627451%,8.627451%);fill-opacity:1;" d="M 104.4375 117.367188 C 103.8125 117.367188 103.1875 117.113281 102.738281 116.613281 C 101.910156 115.6875 101.996094 114.277344 102.9375 113.457031 C 115.882812 102.167969 115.804688 89.640625 102.695312 74.039062 C 83.3125 50.980469 102.65625 31.90625 102.855469 31.71875 C 103.753906 30.855469 105.1875 30.871094 106.0625 31.757812 C 106.9375 32.640625 106.917969 34.058594 106.023438 34.917969 C 105.304688 35.617188 89.535156 51.375 106.183594 71.1875 C 120.800781 88.574219 120.71875 103.921875 105.941406 116.808594 C 105.507812 117.183594 104.972656 117.367188 104.4375 117.367188 Z M 104.4375 117.367188 "/>
<path style=" stroke:none;fill-rule:nonzero;fill:rgb(8.627451%,8.627451%,8.627451%);fill-opacity:1;" d="M 39.925781 119.675781 C 32.109375 119.675781 25.308594 117.09375 20.363281 112.144531 C 12.777344 104.558594 10.804688 92.3125 15.082031 79.382812 C 15.476562 78.195312 16.761719 77.550781 17.949219 77.941406 C 19.136719 78.335938 19.78125 79.617188 19.386719 80.808594 C 15.660156 92.074219 17.222656 102.589844 23.570312 108.9375 C 34.582031 119.949219 56.507812 115.941406 72.445312 100 C 88.386719 84.058594 92.394531 62.132812 81.386719 51.125 C 70.375 40.113281 48.449219 44.125 32.507812 60.0625 C 28.976562 63.59375 25.964844 67.492188 23.546875 71.648438 C 22.917969 72.726562 21.53125 73.097656 20.445312 72.464844 C 19.363281 71.835938 18.996094 70.449219 19.625 69.367188 C 22.238281 64.875 25.496094 60.664062 29.300781 56.859375 C 47.011719 39.148438 71.816406 35.140625 84.59375 47.917969 C 97.371094 60.695312 93.359375 85.5 75.652344 103.207031 C 67.175781 111.6875 56.835938 117.328125 46.539062 119.09375 C 44.269531 119.484375 42.058594 119.675781 39.925781 119.675781 Z M 39.925781 119.675781 "/>
<path style=" stroke:none;fill-rule:nonzero;fill:rgb(8.627451%,8.627451%,8.627451%);fill-opacity:1;" d="M 104.4375 119.667969 C 92.8125 119.667969 82.308594 111.449219 76.335938 97.679688 C 76 96.90625 76.125 96.011719 76.652344 95.355469 C 89.101562 79.910156 91.136719 60.910156 81.386719 51.15625 C 80.714844 50.488281 79.976562 49.851562 79.191406 49.269531 C 78.273438 48.589844 78.003906 47.335938 78.566406 46.339844 C 84.808594 35.214844 94.238281 28.835938 104.4375 28.835938 C 120.40625 28.835938 133.980469 44.621094 136.714844 66.367188 C 136.871094 67.609375 135.992188 68.742188 134.746094 68.898438 C 133.503906 69.054688 132.371094 68.175781 132.214844 66.933594 C 129.769531 47.484375 118.089844 33.371094 104.4375 33.371094 C 96.421875 33.371094 88.867188 38.28125 83.488281 46.917969 C 83.871094 47.253906 84.238281 47.597656 84.59375 47.949219 C 95.933594 59.292969 94.390625 79.789062 81.050781 97.101562 C 86.34375 108.421875 95.011719 115.132812 104.4375 115.132812 C 119.242188 115.132812 131.617188 98.386719 132.605469 77.007812 C 132.664062 75.757812 133.730469 74.800781 134.976562 74.847656 C 136.226562 74.90625 137.195312 75.964844 137.136719 77.214844 C 136.035156 101.023438 121.671875 119.667969 104.4375 119.667969 Z M 104.4375 119.667969 "/>
<path style=" stroke:none;fill-rule:nonzero;fill:rgb(8.627451%,8.627451%,8.627451%);fill-opacity:1;" d="M 21.988281 110.519531 C 21.546875 110.074219 21.285156 109.453125 21.320312 108.785156 C 21.390625 107.542969 22.449219 106.605469 23.691406 106.691406 C 40.832031 107.863281 49.632812 98.949219 51.394531 78.648438 C 53.992188 48.636719 81.160156 48.828125 81.433594 48.835938 C 82.679688 48.859375 83.679688 49.886719 83.671875 51.132812 C 83.667969 52.371094 82.652344 53.363281 81.410156 53.335938 C 80.40625 53.324219 58.113281 53.316406 55.878906 79.097656 C 53.921875 101.726562 43.007812 112.523438 23.449219 111.183594 C 22.878906 111.144531 22.367188 110.898438 21.988281 110.519531 Z M 21.988281 110.519531 "/>
<path style=" stroke:none;fill-rule:nonzero;fill:rgb(8.627451%,8.627451%,8.627451%);fill-opacity:1;" d="M 38.988281 131.125 C 30.503906 131.125 23.007812 128.628906 18.183594 124.175781 C 17.265625 123.328125 17.207031 121.890625 18.058594 120.972656 C 18.90625 120.054688 20.339844 119.992188 21.261719 120.84375 C 30.390625 129.269531 52.082031 129.101562 68.609375 115.378906 C 69.574219 114.578125 71.003906 114.714844 71.804688 115.675781 C 72.601562 116.640625 72.46875 118.070312 71.507812 118.871094 C 61.261719 127.371094 49.382812 131.125 38.988281 131.125 Z M 38.988281 131.125 "/>
<path style=" stroke:none;fill-rule:nonzero;fill:rgb(8.627451%,8.627451%,8.627451%);fill-opacity:1;" d="M 78.136719 34.058594 C 77.617188 34.058594 77.097656 33.882812 76.671875 33.523438 C 75.714844 32.714844 75.597656 31.285156 76.40625 30.328125 C 76.800781 29.859375 86.257812 18.902344 101.558594 18.902344 C 102.808594 18.902344 103.824219 19.914062 103.824219 21.167969 C 103.824219 22.421875 102.808594 23.4375 101.558594 23.4375 C 88.335938 23.4375 79.949219 33.160156 79.867188 33.257812 C 79.417969 33.789062 78.78125 34.058594 78.136719 34.058594 Z M 78.136719 34.058594 "/>
<path style=" stroke:none;fill-rule:nonzero;fill:rgb(8.627451%,8.627451%,8.627451%);fill-opacity:1;" d="M 117.082031 26.777344 C 116.625 26.777344 116.160156 26.640625 115.761719 26.351562 C 113.816406 24.957031 110.691406 24.496094 110.660156 24.488281 C 109.421875 24.320312 108.550781 23.175781 108.722656 21.933594 C 108.894531 20.691406 110.039062 19.816406 111.28125 19.996094 C 111.710938 20.054688 115.578125 20.636719 118.40625 22.671875 C 119.425781 23.402344 119.65625 24.816406 118.925781 25.835938 C 118.484375 26.453125 117.789062 26.777344 117.082031 26.777344 Z M 117.082031 26.777344 "/>
</g>
</svg>
