<?xml version="1.0" encoding="iso-8859-1"?>
<!-- Generator: Adobe Illustrator 19.0.0, SVG Export Plug-In . SVG Version: 6.00 Build 0)  -->
<svg version="1.1" id="Layer_1" xmlns="http://www.w3.org/2000/svg" xmlns:xlink="http://www.w3.org/1999/xlink" x="0px" y="0px"
	 viewBox="0 0 512 512" style="enable-background:new 0 0 512 512;" xml:space="preserve">
<circle style="fill:#F4712F;" cx="238.301" cy="27.662" r="19.575"/>
<path style="fill:#F59D40;" d="M104.377,97.168h267.844c-23.455-29.489-74.597-49.94-133.922-49.94
	C178.974,47.228,127.831,67.679,104.377,97.168z"/>
<path style="fill:#F4712F;" d="M357.993,128.354h24.805c8.61,0,15.593-6.982,15.593-15.592c0-8.612-6.982-15.594-15.593-15.594
	h-31.554h-20.987h-21.493h-31.554h-20.987H129.063H94.909c-8.612,0-15.593,6.982-15.593,15.594c0,8.61,6.98,15.592,15.593,15.592
	h34.153h179.7h22.283"/>
<g style="opacity:0.2;">
	<path style="fill:#020202;" d="M254.198,47.728c-5.225-0.328-10.527-0.5-15.899-0.5c-59.325,0-110.467,20.451-133.922,49.94h31.797
		C157.504,70.35,201.738,51.011,254.198,47.728z"/>
</g>
<g style="opacity:0.2;">
	<path style="fill:#020202;" d="M104.377,112.762c0-8.612,6.98-15.594,15.593-15.594H94.909c-8.612,0-15.593,6.982-15.593,15.594
		c0,8.61,6.98,15.592,15.593,15.592h25.06C111.356,128.354,104.377,121.373,104.377,112.762z"/>
</g>
<path style="fill:#636D77;" d="M425.152,151.424h-41.405v32.337h41.405c2.739,0,4.967,2.228,4.967,4.967v201.265
	c0,8.929,7.239,16.168,16.168,16.168c8.929,0,16.168-7.239,16.168-16.168V188.729C462.457,168.159,445.721,151.424,425.152,151.424z
	"/>
<path style="fill:#EBEDED;" d="M128.401,128.354H88.538H60.583c-17.554,0-9.706,11.396-6.41,15.397l1.194,1.37l0.005,0.005l0,0
	l33.167,37.997v287.741c0,18.253,14.798,33.053,33.053,33.053h229.103c18.254,0,33.053-14.799,33.053-33.053v-342.51"/>
<path style="fill:#F59D40;" d="M88.538,224.579v246.284c0,18.253,14.798,33.053,33.053,33.053h229.103
	c18.254,0,33.053-14.799,33.053-33.053V224.579H88.538z"/>
<path style="fill:#636D77;" d="M88.538,464.345v6.518c0,18.253,14.798,33.053,33.053,33.053h229.103
	c18.254,0,33.053-14.799,33.053-33.053v-6.518H88.538z"/>
<g>
	<path style="fill:#020202;" d="M425.152,143.34h-33.321v-8.698c8.585-3.558,14.642-12.024,14.642-21.88
		c0-13.055-10.622-23.678-23.677-23.678h-6.794c-12.634-14.5-31.351-26.727-54.418-35.5c-17.895-6.807-37.855-11.288-58.701-13.268
		c1.962-3.795,3.076-8.096,3.076-12.654C265.961,12.41,253.551,0,238.299,0c-15.252,0-27.662,12.41-27.662,27.662
		c0,4.558,1.116,8.859,3.076,12.654c-20.846,1.98-40.806,6.461-58.701,13.268c-23.067,8.773-41.784,21.001-54.418,35.5h-5.686
		c-13.055,0-23.677,10.622-23.677,23.678c0,2.624,0.435,5.147,1.228,7.508H60.583c-9.246,0-15.271,2.831-17.904,8.413
		c-1.893,4.012-2.518,10.774,5.254,20.208c0.049,0.059,0.098,0.116,0.149,0.175l1.194,1.37c0.019,0.023,0.039,0.045,0.059,0.068
		l31.12,35.651v38.425v239.766v6.518C80.454,493.546,98.908,512,121.591,512h229.103c22.683,0,41.137-18.454,41.137-41.137v-6.518
		V224.579v-32.734h30.204v198.147c0,13.372,10.88,24.253,24.253,24.253c13.372,0,24.253-10.88,24.253-24.253V188.729
		C470.541,163.701,450.18,143.34,425.152,143.34z M226.805,27.662c0-6.338,5.156-11.494,11.494-11.494
		c6.338,0,11.494,5.156,11.494,11.494c0,6.274-5.055,11.383-11.306,11.484c-0.063,0-0.125-0.002-0.189-0.002
		c-0.063,0-0.125,0.002-0.189,0.002C231.86,39.045,226.805,33.936,226.805,27.662z M237.962,55.315
		c0.113,0.001,0.224,0.009,0.337,0.009c0.113,0,0.224-0.008,0.337-0.009c45.764,0.064,88.175,12.932,114.057,33.768h-228.79
		C149.787,68.247,192.197,55.379,237.962,55.315z M61.463,139.809c-0.019-0.023-0.038-0.043-0.057-0.066l-1.062-1.217
		c-0.622-0.761-1.112-1.444-1.497-2.036c0.497-0.032,1.071-0.054,1.735-0.054h34.327H128.4h202.644c4.466,0,8.084-3.618,8.084-8.084
		s-3.618-8.084-8.084-8.084H128.4H94.909c-4.14,0-7.509-3.367-7.509-7.508c0-4.141,3.368-7.51,7.509-7.51h9.467H372.22h10.576
		c4.14,0,7.509,3.368,7.509,7.51c0,4.14-3.368,7.508-7.509,7.508h-24.805c-4.466,0-8.084,3.618-8.084,8.084
		c0,4.466,3.618,8.084,8.084,8.084h17.671v14.986v32.337v32.734H96.623V183.12c0-1.954-0.708-3.843-1.994-5.316L61.463,139.809z
		 M375.663,456.261H96.623V232.664h279.04V456.261z M121.591,495.832c-0.8,0-1.59-0.042-2.37-0.115
		c-0.038-0.003-0.077-0.005-0.114-0.009c-0.752-0.074-1.494-0.188-2.225-0.328c-0.063-0.012-0.126-0.022-0.189-0.033
		c-0.71-0.142-1.408-0.318-2.094-0.518c-0.079-0.023-0.158-0.044-0.237-0.068c-0.672-0.204-1.33-0.438-1.976-0.695
		c-0.086-0.035-0.174-0.067-0.26-0.102c-0.635-0.261-1.255-0.55-1.863-0.86c-0.089-0.046-0.18-0.091-0.269-0.138
		c-0.598-0.315-1.181-0.655-1.75-1.016c-0.088-0.056-0.176-0.112-0.263-0.169c-0.563-0.368-1.109-0.757-1.638-1.166
		c-0.082-0.064-0.163-0.127-0.244-0.192c-0.526-0.417-1.035-0.855-1.525-1.313c-0.073-0.068-0.146-0.138-0.218-0.207
		c-0.488-0.467-0.959-0.952-1.408-1.456c-0.061-0.069-0.122-0.14-0.182-0.21c-0.449-0.516-0.88-1.048-1.286-1.6
		c-0.049-0.066-0.094-0.134-0.142-0.199c-0.409-0.566-0.797-1.147-1.158-1.747c-0.033-0.055-0.064-0.111-0.096-0.166
		c-0.365-0.619-0.708-1.253-1.021-1.904c-0.017-0.037-0.033-0.074-0.051-0.111c-0.32-0.675-0.613-1.366-0.872-2.073
		c-0.002-0.004-0.003-0.01-0.004-0.013c-0.259-0.708-0.484-1.431-0.679-2.168c-0.01-0.035-0.02-0.069-0.029-0.103
		c-0.185-0.714-0.336-1.442-0.459-2.18c-0.011-0.064-0.024-0.126-0.034-0.19c-0.113-0.718-0.192-1.448-0.243-2.185
		c-0.004-0.056-0.01-0.111-0.013-0.167H375.61c-0.003,0.054-0.009,0.108-0.012,0.162c-0.051,0.739-0.129,1.471-0.244,2.192
		c-0.01,0.061-0.023,0.123-0.033,0.184c-0.123,0.739-0.274,1.469-0.46,2.185c-0.009,0.032-0.019,0.065-0.028,0.097
		c-0.195,0.738-0.421,1.465-0.681,2.174c-0.001,0.003-0.002,0.006-0.003,0.011c-0.26,0.708-0.554,1.399-0.874,2.075
		c-0.017,0.036-0.032,0.072-0.049,0.108c-0.313,0.651-0.655,1.284-1.021,1.902c-0.033,0.056-0.064,0.113-0.097,0.168
		c-0.36,0.599-0.747,1.179-1.154,1.744c-0.049,0.068-0.096,0.137-0.146,0.204c-0.404,0.55-0.834,1.08-1.282,1.594
		c-0.063,0.072-0.124,0.144-0.188,0.216c-0.447,0.502-0.916,0.985-1.403,1.451c-0.074,0.071-0.148,0.142-0.223,0.212
		c-0.488,0.456-0.996,0.891-1.52,1.307c-0.083,0.066-0.167,0.133-0.251,0.197c-0.528,0.409-1.073,0.797-1.632,1.162
		c-0.089,0.058-0.179,0.115-0.269,0.172c-0.567,0.36-1.148,0.698-1.744,1.012c-0.092,0.049-0.184,0.095-0.276,0.141
		c-0.606,0.309-1.223,0.597-1.856,0.858c-0.088,0.036-0.177,0.07-0.265,0.105c-0.645,0.257-1.301,0.49-1.971,0.694
		c-0.08,0.024-0.162,0.045-0.241,0.069c-0.686,0.201-1.383,0.376-2.091,0.517c-0.064,0.013-0.128,0.023-0.192,0.035
		c-0.731,0.14-1.471,0.252-2.224,0.328c-0.038,0.003-0.077,0.005-0.115,0.009c-0.78,0.074-1.57,0.115-2.37,0.115L121.591,495.832
		L121.591,495.832z M454.373,389.993c0,4.458-3.626,8.084-8.084,8.084s-8.084-3.626-8.084-8.084V188.729
		c0-7.197-5.855-13.051-13.051-13.051h-33.321v-16.168h33.321c16.111,0,29.22,13.108,29.22,29.22V389.993z"/>
	<path style="fill:#020202;" d="M187.11,344.534c2.068,0,4.138-0.789,5.717-2.368l41.68-41.682
		c3.157-3.157,3.157-8.276-0.001-11.432c-3.156-3.156-8.275-3.157-11.432,0.001l-41.68,41.682
		c-3.157,3.157-3.157,8.276,0.001,11.432C182.972,343.744,185.041,344.534,187.11,344.534z"/>
	<path style="fill:#020202;" d="M197.687,380.482c1.579,1.578,3.649,2.367,5.717,2.367c2.068,0,4.138-0.789,5.717-2.367
		l86.592-86.592c3.157-3.158,3.157-8.276,0-11.433c-3.158-3.156-8.276-3.156-11.433,0l-86.592,86.592
		C194.53,372.207,194.53,377.325,197.687,380.482z"/>
	<path style="fill:#020202;" d="M182.633,403.62c2.068,0,4.138-0.789,5.717-2.367l2.877-2.877c3.157-3.158,3.157-8.276,0-11.433
		c-3.158-3.156-8.276-3.156-11.433,0l-2.877,2.877c-3.157,3.158-3.157,8.276,0,11.433
		C178.495,402.831,180.565,403.62,182.633,403.62z"/>
	<path style="fill:#020202;" d="M289.376,331.972l-55.332,55.332c-3.157,3.158-3.157,8.276,0,11.433
		c1.579,1.578,3.649,2.367,5.717,2.367c2.068,0,4.138-0.789,5.717-2.367l55.332-55.332c3.157-3.158,3.157-8.276,0-11.433
		C297.651,328.817,292.533,328.817,289.376,331.972z"/>
</g>
<g style="opacity:0.2;">
	<path style="fill:#020202;" d="M146.383,498.526c-18.253,0-33.053-14.8-33.053-33.053V177.733l-33.167-37.997l-0.005-0.005
		l-1.194-1.37c-1.783-2.164-4.889-6.49-4.596-10.007H60.583c-17.554,0-9.706,11.396-6.41,15.397l1.194,1.37l0.005,0.005
		l33.167,37.997v287.741c0,18.253,14.798,33.053,33.053,33.053h229.103c6.675,0,12.884-1.986,18.08-5.389H146.383z"/>
</g>
<g>
</g>
<g>
</g>
<g>
</g>
<g>
</g>
<g>
</g>
<g>
</g>
<g>
</g>
<g>
</g>
<g>
</g>
<g>
</g>
<g>
</g>
<g>
</g>
<g>
</g>
<g>
</g>
<g>
</g>
</svg>
