<svg xmlns="http://www.w3.org/2000/svg" xmlns:xlink="http://www.w3.org/1999/xlink" viewBox="0 0 219.13 233.73"><defs><style>.cls-1{isolation:isolate;}.cls-2{fill:#cec09f;}.cls-2,.cls-6,.cls-7{stroke:#212683;}.cls-2,.cls-3,.cls-5,.cls-6,.cls-7{stroke-miterlimit:10;stroke-width:6px;}.cls-3{fill:#a8dedb;}.cls-3,.cls-5{stroke:#1f2687;}.cls-4{opacity:0.4;mix-blend-mode:multiply;fill:url(#linear-gradient);}.cls-5{fill:#f2a7c5;}.cls-6{fill:none;}.cls-7{fill:#9dcc96;}.cls-8{fill:#212683;}</style><linearGradient id="linear-gradient" x1="-1538.72" y1="-1339.85" x2="-1331.12" y2="-1339.85" gradientTransform="matrix(0.82, -0.57, 0.57, 0.82, 2066.64, 409.47)" gradientUnits="userSpaceOnUse"><stop offset="0" stop-color="#efa6c2"/><stop offset="1" stop-color="#96cdbd"/></linearGradient></defs><title>Tea</title><g class="cls-1"><g id="Layer_2" data-name="Layer 2"><g id="Layer_1-2" data-name="Layer 1"><ellipse class="cls-2" cx="112.33" cy="181.53" rx="58.02" ry="18.16"/><path class="cls-3" d="M170.36,90.25h7.2a24.87,24.87,0,0,1,24.87,24.87h0A24.87,24.87,0,0,1,177.56,140h-7.2"/><path class="cls-4" d="M182.92,29.76A69.19,69.19,0,0,0,63.48,39.7a69.2,69.2,0,1,0,18.32,137A69.2,69.2,0,1,0,185.27,105,69.2,69.2,0,0,0,182.92,29.76Z"/><path class="cls-5" d="M54.3,84.18H170.36a0,0,0,0,1,0,0V123.5a58,58,0,0,1-58,58h0a58,58,0,0,1-58-58V84.18a0,0,0,0,1,0,0Z"/><path class="cls-6" d="M74.25,167.31c-12.23,3.45-20,8.55-20,14.23,0,8.64,17.89,15.93,42.29,18.16"/><path class="cls-6" d="M150.41,167.31c12.21,3.45,19.94,8.55,19.94,14.23,0,8.64-17.88,15.93-42.27,18.16"/><path class="cls-7" d="M70.45,29.48A59,59,0,0,0,54.28,82.7a59,59,0,0,0,69.38-69.38A59,59,0,0,0,70.45,29.48Z"/><line class="cls-7" x1="123.66" y1="13.32" x2="54.28" y2="82.7"/><line class="cls-7" x1="102.57" y1="34.41" x2="124.1" y2="33.81"/><line class="cls-7" x1="102.57" y1="34.41" x2="103.17" y2="12.88"/><line class="cls-7" x1="83.31" y1="53.67" x2="117.49" y2="52.71"/><line class="cls-7" x1="83.31" y1="53.67" x2="84.27" y2="19.49"/><line class="cls-7" x1="64.63" y1="72.35" x2="102.75" y2="71.28"/><line class="cls-7" x1="64.63" y1="72.35" x2="65.7" y2="34.23"/><line class="cls-6" x1="54.3" y1="106.2" x2="133.06" y2="106.2"/><line class="cls-6" x1="138.56" y1="106.2" x2="149.22" y2="106.2"/><line class="cls-6" x1="55.05" y1="132.86" x2="109.56" y2="132.86"/><circle class="cls-8" cx="112.33" cy="200.36" r="3.18"/><path class="cls-8" d="M192.66,12H189.5a1.37,1.37,0,0,1-1.37-1.37V7.5a1.63,1.63,0,0,0-1.32-1.65A1.55,1.55,0,0,0,185,7.38v3.28A1.37,1.37,0,0,1,183.66,12H180.5a1.63,1.63,0,0,0-1.65,1.32,1.55,1.55,0,0,0,1.53,1.78h3.28A1.37,1.37,0,0,1,185,16.5v3.16a1.63,1.63,0,0,0,1.32,1.65,1.55,1.55,0,0,0,1.78-1.53V16.5a1.37,1.37,0,0,1,1.37-1.37h3.28a1.55,1.55,0,0,0,1.53-1.78A1.63,1.63,0,0,0,192.66,12Z"/><path class="cls-8" d="M195,168.37h-3.16a1.37,1.37,0,0,1-1.37-1.37v-3.16a1.63,1.63,0,0,0-1.32-1.65,1.55,1.55,0,0,0-1.78,1.53V167a1.37,1.37,0,0,1-1.37,1.37h-3.16a1.63,1.63,0,0,0-1.65,1.32,1.55,1.55,0,0,0,1.53,1.78H186a1.37,1.37,0,0,1,1.37,1.37V176a1.63,1.63,0,0,0,1.32,1.65,1.55,1.55,0,0,0,1.78-1.53v-3.28a1.37,1.37,0,0,1,1.37-1.37h3.28a1.55,1.55,0,0,0,1.53-1.78A1.63,1.63,0,0,0,195,168.37Z"/></g></g></g></svg>