<?xml version="1.0" encoding="UTF-8"?>
<!DOCTYPE svg PUBLIC "-//W3C//DTD SVG 1.1//EN" "http://www.w3.org/Graphics/SVG/1.1/DTD/svg11.dtd">
<!-- Creator: CorelDRAW -->
<svg xmlns="http://www.w3.org/2000/svg" xml:space="preserve" width="2048px" height="2048px" style="shape-rendering:geometricPrecision; text-rendering:geometricPrecision; image-rendering:optimizeQuality; fill-rule:evenodd; clip-rule:evenodd"
viewBox="0 0 2048 2048"
 xmlns:xlink="http://www.w3.org/1999/xlink">
 <defs>
  <style type="text/css">
   <![CDATA[
    .fil2 {fill:none}
    .fil0 {fill:#FFA726}
    .fil1 {fill:#FFCC80}
    .fil3 {fill:#FFA726;fill-rule:nonzero}
   ]]>
  </style>
 </defs>
 <g id="Layer_x0020_1">
  <metadata id="CorelCorpID_0Corel-Layer"/>
  <polygon class="fil0" points="576,992.296 575.747,992.446 255.997,991.767 255.997,1663.91 573.243,1663.91 576,1664.72 "/>
  <path class="fil1" d="M1660.14 1090.52c62.6327,-49.3276 127.478,-206.229 -64.389,-251.522 -137.925,-32.2465 -230.429,65.9375 -296.125,-78.5103 -60.1123,-132.34 125.352,-372.486 -76.6005,-485.876 -22.0831,-12.3921 -43.6323,-18.7606 -62.8229,-18.6059 -45.4642,0.361418 -77.7449,37.3323 -72.7276,117.641 13.5106,228.88 -124.785,261.608 -227.581,475.669 -97.7753,57.0367 -184.833,84.2127 -282.847,142.363l-1.04528 0.618898 0 672.422 0.0897638 0.0259843 98.5536 28.715c155.353,81.4536 347.124,98.5454 480.532,98.5454 80.3008,0 242.296,-7.59095 295.058,-49.8189 59.8961,-47.9091 77.2028,-124.63 82.4268,-156.901 104.225,-41.739 132.09,-129.027 93.932,-223.416 45.052,-24.802 73.0465,-57.9863 83.2442,-98.5454 20.8606,-82.6666 -34.1563,-145.877 -49.6985,-172.805z"/>
  <g id="_272039912">
   <rect id="_276856272" class="fil2" width="2048" height="2048"/>
   <rect id="_276132880" class="fil2" x="255.999" y="255.999" width="1536" height="1536"/>
  </g>
  <polygon class="fil3" points="1666.38,1100.52 1522.72,1100.52 1522.72,1084.82 1666.38,1084.82 "/>
  <path class="fil3" d="M1631.4 1374.95l-127.4 0 0 -15.6969 124.546 0c1.98425,4.51654 3.13583,9.60946 2.85355,15.6969z"/>
  <path class="fil3" d="M1529.94 1600l-25.9347 0 0 -15.6969 31.0748 0c-0.480709,5.23347 -1.97599,10.4658 -5.14016,15.6969z"/>
 </g>
</svg>
